Mate-Regular.otf.ufo
<glyph name="exclam" format="1">
  <advance width="257"/>
  <unicode hex="0021"/>
  <outline>
    <contour>
      <point x="123" y="695" type="line" name="hr00"/>
      <point x="77" y="433" type="line"/>
      <point x="104" y="172" type="line"/>
      <point x="137" y="172" type="line"/>
      <point x="179" y="695" type="line"/>
    </contour>
    <contour>
      <point x="138" y="95" type="curve" smooth="yes"/>
      <point x="117" y="95"/>
      <point x="81" y="89"/>
      <point x="81" y="89" type="curve"/>
      <point x="81" y="89" smooth="yes"/>
      <point x="73" y="62" smooth="yes"/>
      <point x="73" y="37" type="curve" smooth="yes"/>
      <point x="73" y="12" smooth="yes"/>
      <point x="80" y="-12" smooth="yes"/>
      <point x="110" y="-12" type="curve" smooth="yes"/>
      <point x="132" y="-12"/>
      <point x="167" y="-4"/>
      <point x="167" y="-4" type="curve"/>
      <point x="167" y="-4" smooth="yes"/>
      <point x="174" y="22" smooth="yes"/>
      <point x="174" y="45" type="curve" smooth="yes"/>
      <point x="174" y="72" smooth="yes"/>
      <point x="165" y="95" smooth="yes"/>
    </contour>
  </outline>
</glyph>
<glyph name="numbersign" format="1">
  <advance width="510"/>
  <unicode hex="0023"/>
  <outline>
    <contour>
      <point x="48" y="330" type="line" name="hr00"/>
      <point x="162" y="330" type="line"/>
      <point x="126" y="225" type="line"/>
      <point x="22" y="225" type="line"/>
      <point x="2" y="168" type="line"/>
      <point x="106" y="168" type="line"/>
      <point x="47" y="0" type="line"/>
      <point x="104" y="0" type="line"/>
      <point x="163" y="168" type="line"/>
      <point x="268" y="168" type="line"/>
      <point x="209" y="0" type="line"/>
      <point x="266" y="0" type="line"/>
      <point x="325" y="168" type="line"/>
      <point x="442" y="168" type="line"/>
      <point x="462" y="225" type="line"/>
      <point x="345" y="225" type="line"/>
      <point x="381" y="330" type="line"/>
      <point x="488" y="330" type="line"/>
      <point x="508" y="387" type="line"/>
      <point x="401" y="387" type="line"/>
      <point x="460" y="554" type="line"/>
      <point x="403" y="554" type="line"/>
      <point x="344" y="387" type="line"/>
      <point x="239" y="387" type="line"/>
      <point x="298" y="554" type="line"/>
      <point x="241" y="554" type="line"/>
      <point x="182" y="387" type="line"/>
      <point x="68" y="387" type="line"/>
    </contour>
    <contour>
      <point x="219" y="330" type="line"/>
      <point x="324" y="330" type="line"/>
      <point x="288" y="225" type="line"/>
      <point x="183" y="225" type="line"/>
    </contour>
  </outline>
</glyph>
<glyph name="dollar" format="1">
  <advance width="510"/>
  <unicode hex="0024"/>
  <outline>
    <contour>
      <point x="437" y="137" type="curve" smooth="yes" name="hr00"/>
      <point x="437" y="184" smooth="yes"/>
      <point x="406" y="235" smooth="yes"/>
      <point x="344" y="271" type="curve" smooth="yes"/>
      <point x="208" y="349" type="line" smooth="yes"/>
      <point x="171" y="370" smooth="yes"/>
      <point x="150" y="390" smooth="yes"/>
      <point x="150" y="438" type="curve" smooth="yes"/>
      <point x="150" y="493" smooth="yes"/>
      <point x="210" y="520" smooth="yes"/>
      <point x="265" y="520" type="curve" smooth="yes"/>
      <point x="304" y="520"/>
      <point x="331" y="511"/>
      <point x="352" y="500" type="curve"/>
      <point x="352" y="420" type="line" smooth="yes"/>
      <point x="352" y="409"/>
      <point x="381" y="409"/>
      <point x="388" y="409" type="curve"/>
      <point x="409" y="535" type="line"/>
      <point x="364" y="551" smooth="yes"/>
      <point x="317" y="563" smooth="yes"/>
      <point x="270" y="563" type="curve" smooth="yes"/>
      <point x="144" y="563" smooth="yes"/>
      <point x="88" y="491" smooth="yes"/>
      <point x="88" y="415" type="curve" smooth="yes"/>
      <point x="88" y="357" smooth="yes"/>
      <point x="114" y="317" smooth="yes"/>
      <point x="169" y="286" type="curve" smooth="yes"/>
      <point x="309" y="206" type="line" smooth="yes"/>
      <point x="357" y="179" smooth="yes"/>
      <point x="371" y="146" smooth="yes"/>
      <point x="371" y="121" type="curve" smooth="yes"/>
      <point x="371" y="73" smooth="yes"/>
      <point x="334" y="32" smooth="yes"/>
      <point x="253" y="32" type="curve" smooth="yes"/>
      <point x="214" y="32"/>
      <point x="166" y="44"/>
      <point x="134" y="65" type="curve"/>
      <point x="134" y="153" type="line" smooth="yes"/>
      <point x="134" y="162" smooth="yes"/>
      <point x="104" y="162" smooth="yes"/>
      <point x="98" y="162" type="curve" smooth="yes"/>
      <point x="97" y="162"/>
      <point x="83" y="63"/>
      <point x="79" y="28" type="curve"/>
      <point x="140" y="2" smooth="yes"/>
      <point x="196" y="-9" smooth="yes"/>
      <point x="249" y="-9" type="curve" smooth="yes"/>
      <point x="356" y="-9" smooth="yes"/>
      <point x="437" y="40" smooth="yes"/>
    </contour>
    <contour>
      <point x="239" y="-139" type="line"/>
      <point x="303" y="698" type="line"/>
      <point x="263" y="698" type="line"/>
      <point x="199" y="-139" type="line"/>
    </contour>
  </outline>
</glyph>
<glyph name="ampersand" format="1">
  <advance width="580"/>
  <unicode hex="0026"/>
  <outline>
    <contour>
      <point x="230" y="611" type="curve" name="hr00"/>
      <point x="258" y="623" smooth="yes"/>
      <point x="288" y="628" smooth="yes"/>
      <point x="319" y="628" type="curve" smooth="yes"/>
      <point x="352" y="628"/>
      <point x="386" y="621"/>
      <point x="417" y="610" type="curve"/>
      <point x="417" y="506" type="line" smooth="yes"/>
      <point x="417" y="492"/>
      <point x="454" y="492"/>
      <point x="462" y="492" type="curve"/>
      <point x="488" y="641" type="line"/>
      <point x="438" y="667" smooth="yes"/>
      <point x="371" y="681" smooth="yes"/>
      <point x="321" y="681" type="curve" smooth="yes"/>
      <point x="212" y="681" smooth="yes"/>
      <point x="133" y="630" smooth="yes"/>
      <point x="133" y="532" type="curve" smooth="yes"/>
      <point x="133" y="487" smooth="yes"/>
      <point x="150" y="447" smooth="yes"/>
      <point x="164" y="422" type="curve" smooth="yes"/>
      <point x="181" y="391" type="line"/>
      <point x="151" y="372" type="line" smooth="yes"/>
      <point x="38" y="301" smooth="yes"/>
      <point x="7" y="240" smooth="yes"/>
      <point x="7" y="165" type="curve" smooth="yes"/>
      <point x="7" y="65" smooth="yes"/>
      <point x="74" y="-13" smooth="yes"/>
      <point x="195" y="-13" type="curve" smooth="yes"/>
      <point x="279" y="-13"/>
      <point x="339" y="22"/>
      <point x="389" y="69" type="curve"/>
      <point x="436" y="0" type="line"/>
      <point x="564" y="0" type="line" smooth="yes"/>
      <point x="580" y="0"/>
      <point x="580" y="24"/>
      <point x="580" y="31" type="curve"/>
      <point x="496" y="55" type="line"/>
      <point x="446" y="131" type="line"/>
      <point x="499" y="207"/>
      <point x="531" y="297"/>
      <point x="539" y="367" type="curve"/>
      <point x="525" y="374" smooth="yes"/>
      <point x="416" y="407" smooth="yes"/>
      <point x="409" y="407" type="curve" smooth="yes"/>
      <point x="407" y="407" smooth="yes"/>
      <point x="398" y="384" smooth="yes"/>
      <point x="398" y="374" type="curve" smooth="yes"/>
      <point x="398" y="369" smooth="yes"/>
      <point x="399" y="365" smooth="yes"/>
      <point x="403" y="363" type="curve" smooth="yes"/>
      <point x="471" y="328" type="line"/>
      <point x="469" y="285"/>
      <point x="450" y="228"/>
      <point x="416" y="176" type="curve"/>
      <point x="270" y="401" type="line" smooth="yes"/>
      <point x="236" y="454" smooth="yes"/>
      <point x="210" y="493" smooth="yes"/>
      <point x="210" y="543" type="curve" smooth="yes"/>
      <point x="210" y="566"/>
      <point x="216" y="589"/>
    </contour>
    <contour>
      <point x="211" y="39" type="curve" smooth="yes"/>
      <point x="117" y="39" smooth="yes"/>
      <point x="73" y="100" smooth="yes"/>
      <point x="73" y="168" type="curve" smooth="yes"/>
      <point x="73" y="233" smooth="yes"/>
      <point x="102" y="283" smooth="yes"/>
      <point x="157" y="320" type="curve" smooth="yes"/>
      <point x="206" y="353" type="line"/>
      <point x="363" y="111" type="line"/>
      <point x="322" y="68" smooth="yes"/>
      <point x="274" y="39" smooth="yes"/>
    </contour>
  </outline>
</glyph>
<glyph name="quotesingle" format="1">
  <advance width="175"/>
  <unicode hex="0027"/>
  <outline>
    <contour>
      <point x="102" y="474" type="line" name="hr00"/>
      <point x="112" y="511" smooth="yes"/>
      <point x="125" y="618" smooth="yes"/>
      <point x="125" y="699" type="curve" smooth="yes"/>
      <point x="125" y="707" smooth="yes"/>
      <point x="106" y="712" smooth="yes"/>
      <point x="87" y="712" type="curve" smooth="yes"/>
      <point x="69" y="712" smooth="yes"/>
      <point x="50" y="707" smooth="yes"/>
      <point x="50" y="699" type="curve" smooth="yes"/>
      <point x="50" y="618"/>
      <point x="65" y="511"/>
      <point x="75" y="474" type="curve"/>
    </contour>
  </outline>
</glyph>
<glyph name="asterisk" format="1">
  <advance width="449"/>
  <unicode hex="002A"/>
  <outline>
    <contour>
      <point x="239" y="551" type="line" name="hr00"/>
      <point x="249" y="575" smooth="yes"/>
      <point x="263" y="648" smooth="yes"/>
      <point x="263" y="700" type="curve" smooth="yes"/>
      <point x="263" y="708" smooth="yes"/>
      <point x="242" y="712" smooth="yes"/>
      <point x="223" y="712" type="curve" smooth="yes"/>
      <point x="204" y="712" smooth="yes"/>
      <point x="183" y="708" smooth="yes"/>
      <point x="183" y="700" type="curve" smooth="yes"/>
      <point x="183" y="647"/>
      <point x="199" y="575"/>
      <point x="209" y="551" type="curve"/>
    </contour>
    <contour>
      <point x="203" y="545" type="line"/>
      <point x="182" y="562" smooth="yes"/>
      <point x="86" y="614" smooth="yes"/>
      <point x="68" y="614" type="curve" smooth="yes"/>
      <point x="51" y="614" smooth="yes"/>
      <point x="39" y="562" smooth="yes"/>
      <point x="39" y="546" type="curve" smooth="yes"/>
      <point x="39" y="534" smooth="yes"/>
      <point x="95" y="523" smooth="yes"/>
      <point x="141" y="519" type="curve" smooth="yes"/>
      <point x="164" y="517"/>
      <point x="184" y="516"/>
      <point x="193" y="516" type="curve"/>
    </contour>
    <contour>
      <point x="197" y="509" type="line"/>
      <point x="174" y="495" smooth="yes"/>
      <point x="123" y="443" smooth="yes"/>
      <point x="90" y="402" type="curve" smooth="yes"/>
      <point x="89" y="401" smooth="yes"/>
      <point x="89" y="400" smooth="yes"/>
      <point x="89" y="399" type="curve" smooth="yes"/>
      <point x="89" y="385" smooth="yes"/>
      <point x="132" y="353" smooth="yes"/>
      <point x="150" y="353" type="curve" smooth="yes"/>
      <point x="152" y="353" smooth="yes"/>
      <point x="154" y="354" smooth="yes"/>
      <point x="155" y="355" type="curve" smooth="yes"/>
      <point x="186" y="398"/>
      <point x="216" y="466"/>
      <point x="222" y="490" type="curve"/>
    </contour>
    <contour>
      <point x="230" y="492" type="line"/>
      <point x="235" y="470" smooth="yes"/>
      <point x="268" y="394" smooth="yes"/>
      <point x="298" y="357" type="curve" smooth="yes"/>
      <point x="299" y="356" smooth="yes"/>
      <point x="301" y="355" smooth="yes"/>
      <point x="303" y="355" type="curve" smooth="yes"/>
      <point x="319" y="355" smooth="yes"/>
      <point x="364" y="387" smooth="yes"/>
      <point x="364" y="402" type="curve" smooth="yes"/>
      <point x="364" y="403" smooth="yes"/>
      <point x="363" y="404" smooth="yes"/>
      <point x="363" y="405" type="curve" smooth="yes"/>
      <point x="332" y="447"/>
      <point x="276" y="497"/>
      <point x="255" y="510" type="curve"/>
    </contour>
    <contour>
      <point x="257" y="519" type="line"/>
      <point x="270" y="519" smooth="yes"/>
      <point x="309" y="521" smooth="yes"/>
      <point x="344" y="526" type="curve" smooth="yes"/>
      <point x="379" y="531" smooth="yes"/>
      <point x="411" y="540" smooth="yes"/>
      <point x="411" y="549" type="curve" smooth="yes"/>
      <point x="411" y="565" smooth="yes"/>
      <point x="399" y="617" smooth="yes"/>
      <point x="382" y="617" type="curve" smooth="yes"/>
      <point x="364" y="617"/>
      <point x="268" y="565"/>
      <point x="247" y="548" type="curve"/>
    </contour>
  </outline>
</glyph>
<glyph name="plus" format="1">
  <advance width="510"/>
  <unicode hex="002B"/>
  <outline>
    <contour>
      <point x="73" y="249" type="line" name="hr00"/>
      <point x="226" y="249" type="line"/>
      <point x="226" y="95" type="line"/>
      <point x="283" y="95" type="line"/>
      <point x="283" y="249" type="line"/>
      <point x="437" y="249" type="line"/>
      <point x="437" y="306" type="line"/>
      <point x="283" y="306" type="line"/>
      <point x="283" y="459" type="line"/>
      <point x="226" y="459" type="line"/>
      <point x="226" y="306" type="line"/>
      <point x="73" y="306" type="line"/>
    </contour>
  </outline>
</glyph>
<glyph name="comma" format="1">
  <advance width="197"/>
  <unicode hex="002C"/>
  <outline>
    <contour>
      <point x="28" y="-142" type="line" name="hr00"/>
      <point x="104" y="-127" smooth="yes"/>
      <point x="161" y="-62" smooth="yes"/>
      <point x="161" y="12" type="curve" smooth="yes"/>
      <point x="161" y="76" smooth="yes"/>
      <point x="142" y="121" smooth="yes"/>
      <point x="115" y="121" type="curve" smooth="yes"/>
      <point x="97" y="121"/>
      <point x="74" y="118"/>
      <point x="56" y="114" type="curve"/>
      <point x="51" y="90" smooth="yes"/>
      <point x="48" y="68" smooth="yes"/>
      <point x="48" y="49" type="curve" smooth="yes"/>
      <point x="48" y="9" smooth="yes"/>
      <point x="60" y="-11" smooth="yes"/>
      <point x="85" y="-11" type="curve" smooth="yes"/>
      <point x="91" y="-11"/>
      <point x="94" y="-11"/>
      <point x="101" y="-10" type="curve"/>
      <point x="101" y="-15" type="line" smooth="yes"/>
      <point x="101" y="-61"/>
      <point x="69" y="-98"/>
      <point x="19" y="-113" type="curve"/>
    </contour>
  </outline>
</glyph>
<glyph name="period" format="1">
  <advance width="197"/>
  <unicode hex="002E"/>
  <outline>
    <contour>
      <point x="113" y="121" type="curve" smooth="yes" name="hr00"/>
      <point x="92" y="121"/>
      <point x="56" y="114"/>
      <point x="56" y="114" type="curve"/>
      <point x="56" y="114" smooth="yes"/>
      <point x="48" y="80" smooth="yes"/>
      <point x="48" y="49" type="curve" smooth="yes"/>
      <point x="48" y="18" smooth="yes"/>
      <point x="55" y="-12" smooth="yes"/>
      <point x="85" y="-12" type="curve" smooth="yes"/>
      <point x="107" y="-12"/>
      <point x="142" y="-3"/>
      <point x="142" y="-3" type="curve"/>
      <point x="142" y="-3" smooth="yes"/>
      <point x="149" y="30" smooth="yes"/>
      <point x="149" y="59" type="curve" smooth="yes"/>
      <point x="149" y="92" smooth="yes"/>
      <point x="140" y="121" smooth="yes"/>
    </contour>
  </outline>
</glyph>
<glyph name="slash" format="1">
  <advance width="327"/>
  <unicode hex="002F"/>
  <outline>
    <contour>
      <point x="-30" y="-50" type="line" name="hr00"/>
      <point x="24" y="-50" type="line"/>
      <point x="357" y="750" type="line"/>
      <point x="303" y="750" type="line"/>
    </contour>
  </outline>
</glyph>
<glyph name="five" format="1">
  <advance width="510"/>
  <unicode hex="0035"/>
  <outline>
    <contour>
      <point x="106" y="255" type="line" name="hr00"/>
      <point x="135" y="232" type="line"/>
      <point x="152" y="235" smooth="yes"/>
      <point x="174" y="237" smooth="yes"/>
      <point x="191" y="237" type="curve" smooth="yes"/>
      <point x="307" y="237" smooth="yes"/>
      <point x="373" y="176" smooth="yes"/>
      <point x="373" y="105" type="curve" smooth="yes"/>
      <point x="373" y="22" smooth="yes"/>
      <point x="303" y="-19" smooth="yes"/>
      <point x="226" y="-19" type="curve" smooth="yes"/>
      <point x="191" y="-19"/>
      <point x="153" y="-10"/>
      <point x="120" y="8" type="curve"/>
      <point x="124" y="81" type="line" smooth="yes"/>
      <point x="125" y="94" smooth="yes"/>
      <point x="90" y="97" smooth="yes"/>
      <point x="84" y="97" type="curve" smooth="yes"/>
      <point x="83" y="97"/>
      <point x="56" y="-15"/>
      <point x="55" y="-29" type="curve"/>
      <point x="104" y="-52" smooth="yes"/>
      <point x="175" y="-68" smooth="yes"/>
      <point x="245" y="-68" type="curve" smooth="yes"/>
      <point x="350" y="-68" smooth="yes"/>
      <point x="454" y="-3" smooth="yes"/>
      <point x="454" y="107" type="curve" smooth="yes"/>
      <point x="454" y="201" smooth="yes"/>
      <point x="382" y="289" smooth="yes"/>
      <point x="187" y="289" type="curve" smooth="yes"/>
      <point x="177" y="289"/>
      <point x="168" y="289"/>
      <point x="158" y="288" type="curve"/>
      <point x="180" y="493" type="line"/>
      <point x="378" y="493" type="line"/>
      <point x="378" y="415" type="line" smooth="yes"/>
      <point x="378" y="399" smooth="yes"/>
      <point x="411" y="399" smooth="yes"/>
      <point x="418" y="399" type="curve" smooth="yes"/>
      <point x="420" y="399"/>
      <point x="442" y="526"/>
      <point x="442" y="543" type="curve"/>
      <point x="440" y="555"/>
      <point x="432" y="557"/>
      <point x="415" y="557" type="curve"/>
      <point x="116" y="532" type="line"/>
    </contour>
  </outline>
</glyph>
<glyph name="six" format="1">
  <advance width="510"/>
  <unicode hex="0036"/>
  <outline>
    <contour>
      <point x="394" y="673" type="line" name="hr00"/>
      <point x="202" y="562" smooth="yes"/>
      <point x="49" y="427" smooth="yes"/>
      <point x="49" y="220" type="curve" smooth="yes"/>
      <point x="49" y="58" smooth="yes"/>
      <point x="155" y="-12" smooth="yes"/>
      <point x="260" y="-12" type="curve" smooth="yes"/>
      <point x="366" y="-12" smooth="yes"/>
      <point x="468" y="56" smooth="yes"/>
      <point x="468" y="175" type="curve" smooth="yes"/>
      <point x="468" y="293" smooth="yes"/>
      <point x="374" y="350" smooth="yes"/>
      <point x="268" y="350" type="curve" smooth="yes"/>
      <point x="153" y="350" type="line"/>
      <point x="183" y="433"/>
      <point x="256" y="526"/>
      <point x="421" y="632" type="curve"/>
    </contour>
    <contour>
      <point x="256" y="302" type="curve" smooth="yes"/>
      <point x="328" y="302" smooth="yes"/>
      <point x="383" y="275" smooth="yes"/>
      <point x="383" y="174" type="curve" smooth="yes"/>
      <point x="383" y="87" smooth="yes"/>
      <point x="324" y="40" smooth="yes"/>
      <point x="257" y="40" type="curve" smooth="yes"/>
      <point x="186" y="40" smooth="yes"/>
      <point x="134" y="112" smooth="yes"/>
      <point x="134" y="233" type="curve" smooth="yes"/>
      <point x="134" y="250"/>
      <point x="135" y="268"/>
      <point x="137" y="287" type="curve"/>
      <point x="176" y="295" smooth="yes"/>
      <point x="217" y="302" smooth="yes"/>
    </contour>
  </outline>
</glyph>
<glyph name="eight" format="1">
  <advance width="510"/>
  <unicode hex="0038"/>
  <outline>
    <contour>
      <point x="47" y="159" type="curve" smooth="yes"/>
      <point x="47" y="62" smooth="yes"/>
      <point x="130" y="-12" smooth="yes"/>
      <point x="252" y="-12" type="curve" smooth="yes"/>
      <point x="387" y="-12" smooth="yes"/>
      <point x="465" y="65" smooth="yes"/>
      <point x="465" y="155" type="curve" smooth="yes"/>
      <point x="465" y="249"/>
      <point x="395" y="304"/>
      <point x="328" y="345" type="curve"/>
      <point x="408" y="391" smooth="yes"/>
      <point x="441" y="462" smooth="yes"/>
      <point x="441" y="514" type="curve" smooth="yes" name="hr01"/>
      <point x="441" y="601" smooth="yes"/>
      <point x="366" y="668" smooth="yes"/>
      <point x="258" y="668" type="curve" smooth="yes"/>
      <point x="138" y="668" smooth="yes"/>
      <point x="69" y="599" smooth="yes"/>
      <point x="69" y="517" type="curve" smooth="yes"/>
      <point x="69" y="439"/>
      <point x="114" y="385"/>
      <point x="178" y="346" type="curve"/>
      <point x="84" y="296" smooth="yes"/>
      <point x="47" y="215" smooth="yes"/>
    </contour>
    <contour>
      <point x="302" y="270" type="line" smooth="yes"/>
      <point x="339" y="246" smooth="yes"/>
      <point x="380" y="210" smooth="yes"/>
      <point x="380" y="152" type="curve" smooth="yes"/>
      <point x="380" y="80" smooth="yes"/>
      <point x="320" y="37" smooth="yes"/>
      <point x="253" y="37" type="curve" smooth="yes"/>
      <point x="169" y="37" smooth="yes"/>
      <point x="131" y="96" smooth="yes"/>
      <point x="131" y="164" type="curve" smooth="yes"/>
      <point x="131" y="213"/>
      <point x="161" y="277"/>
      <point x="218" y="321" type="curve"/>
    </contour>
    <contour>
      <point x="148" y="517" type="curve" smooth="yes" name="hr03"/>
      <point x="148" y="577" smooth="yes"/>
      <point x="187" y="619" smooth="yes"/>
      <point x="257" y="619" type="curve" smooth="yes"/>
      <point x="328" y="619" smooth="yes"/>
      <point x="361" y="568" smooth="yes"/>
      <point x="361" y="509" type="curve" smooth="yes"/>
      <point x="361" y="465"/>
      <point x="340" y="408"/>
      <point x="290" y="368" type="curve"/>
      <point x="236" y="400" type="line" smooth="yes"/>
      <point x="191" y="427" smooth="yes"/>
      <point x="148" y="466" smooth="yes"/>
    </contour>
  </outline>
</glyph>
<glyph name="nine" format="1">
  <advance width="510"/>
  <unicode hex="0039"/>
  <outline>
    <contour>
      <point x="102" y="-97" type="curve" name="hr00"/>
      <point x="132" y="-133" type="line"/>
      <point x="303" y="-22" smooth="yes"/>
      <point x="468" y="113" smooth="yes"/>
      <point x="468" y="326" type="curve" smooth="yes"/>
      <point x="468" y="491" smooth="yes"/>
      <point x="360" y="563" smooth="yes"/>
      <point x="254" y="563" type="curve" smooth="yes"/>
      <point x="150" y="563" smooth="yes"/>
      <point x="48" y="493" smooth="yes"/>
      <point x="48" y="377" type="curve" smooth="yes"/>
      <point x="48" y="256" smooth="yes"/>
      <point x="143" y="198" smooth="yes"/>
      <point x="251" y="198" type="curve" smooth="yes"/>
      <point x="358" y="198" type="line"/>
      <point x="329" y="116"/>
      <point x="259" y="21"/>
    </contour>
    <contour>
      <point x="133" y="377" type="curve"/>
      <point x="133" y="466" smooth="yes"/>
      <point x="189" y="512" smooth="yes"/>
      <point x="257" y="512" type="curve" smooth="yes"/>
      <point x="334" y="512" smooth="yes"/>
      <point x="378" y="440" smooth="yes"/>
      <point x="378" y="317" type="curve" smooth="yes"/>
      <point x="378" y="297"/>
      <point x="376" y="277"/>
      <point x="373" y="257" type="curve"/>
      <point x="332" y="245" smooth="yes"/>
      <point x="296" y="240" smooth="yes"/>
      <point x="267" y="240" type="curve" smooth="yes"/>
      <point x="167" y="240" smooth="yes"/>
      <point x="133" y="299" smooth="yes"/>
    </contour>
  </outline>
</glyph>
<glyph name="less" format="1">
  <advance width="510"/>
  <unicode hex="003C"/>
  <outline>
    <contour>
      <point x="437" y="147" type="line" name="hr00"/>
      <point x="138" y="277" type="line"/>
      <point x="437" y="408" type="line"/>
      <point x="437" y="468" type="line"/>
      <point x="73" y="306" type="line"/>
      <point x="73" y="249" type="line"/>
      <point x="437" y="87" type="line"/>
    </contour>
  </outline>
</glyph>
<glyph name="at" format="1">
  <advance width="882"/>
  <unicode hex="0040"/>
  <outline>
    <contour>
      <point x="579" y="-63" type="line" name="hr00"/>
      <point x="515" y="-109" smooth="yes"/>
      <point x="441" y="-135" smooth="yes"/>
      <point x="368" y="-135" type="curve" smooth="yes"/>
      <point x="221" y="-135" smooth="yes"/>
      <point x="121" y="-39" smooth="yes"/>
      <point x="121" y="123" type="curve" smooth="yes"/>
      <point x="121" y="321" smooth="yes"/>
      <point x="283" y="555" smooth="yes"/>
      <point x="512" y="555" type="curve" smooth="yes"/>
      <point x="659" y="555" smooth="yes"/>
      <point x="761" y="459" smooth="yes"/>
      <point x="761" y="295" type="curve" smooth="yes"/>
      <point x="761" y="185" smooth="yes"/>
      <point x="714" y="29" smooth="yes"/>
      <point x="594" y="29" type="curve" smooth="yes"/>
      <point x="568" y="29" smooth="yes"/>
      <point x="557" y="39" smooth="yes"/>
      <point x="557" y="65" type="curve" smooth="yes"/>
      <point x="557" y="95"/>
      <point x="596" y="328"/>
      <point x="627" y="468" type="curve"/>
      <point x="604" y="468" type="line"/>
      <point x="581" y="441" type="line"/>
      <point x="556" y="451"/>
      <point x="523" y="462"/>
      <point x="506" y="462" type="curve"/>
      <point x="392" y="434" smooth="yes"/>
      <point x="245" y="364" smooth="yes"/>
      <point x="245" y="105" type="curve" smooth="yes"/>
      <point x="245" y="22" smooth="yes"/>
      <point x="268" y="-12" smooth="yes"/>
      <point x="317" y="-12" type="curve" smooth="yes"/>
      <point x="348" y="-12" smooth="yes"/>
      <point x="391" y="3" smooth="yes"/>
      <point x="442" y="27" type="curve" smooth="yes"/>
      <point x="493" y="51" type="line"/>
      <point x="495" y="6" smooth="yes"/>
      <point x="517" y="-12" smooth="yes"/>
      <point x="562" y="-12" type="curve" smooth="yes"/>
      <point x="719" y="-12" smooth="yes"/>
      <point x="832" y="132" smooth="yes"/>
      <point x="832" y="301" type="curve" smooth="yes"/>
      <point x="832" y="485" smooth="yes"/>
      <point x="705" y="592" smooth="yes"/>
      <point x="523" y="592" type="curve" smooth="yes"/>
      <point x="260" y="592" smooth="yes"/>
      <point x="50" y="356" smooth="yes"/>
      <point x="50" y="118" type="curve" smooth="yes"/>
      <point x="50" y="-64" smooth="yes"/>
      <point x="175" y="-172" smooth="yes"/>
      <point x="357" y="-172" type="curve" smooth="yes"/>
      <point x="443" y="-172"/>
      <point x="530" y="-146"/>
      <point x="605" y="-99" type="curve"/>
    </contour>
    <contour>
      <point x="358" y="40" type="curve" smooth="yes"/>
      <point x="332" y="40" smooth="yes"/>
      <point x="316" y="57" smooth="yes"/>
      <point x="316" y="105" type="curve" smooth="yes"/>
      <point x="316" y="250" smooth="yes"/>
      <point x="356" y="405" smooth="yes"/>
      <point x="474" y="405" type="curve" smooth="yes"/>
      <point x="549" y="405" type="line"/>
      <point x="495" y="92" type="line"/>
      <point x="425" y="60" type="line" smooth="yes"/>
      <point x="399" y="48" smooth="yes"/>
      <point x="376" y="40" smooth="yes"/>
    </contour>
  </outline>
</glyph>
<glyph name="C" format="1">
  <advance width="642"/>
  <unicode hex="0043"/>
  <outline>
    <contour>
      <point x="592" y="194" type="line" name="hr00"/>
      <point x="585" y="194"/>
      <point x="551" y="193"/>
      <point x="547" y="180" type="curve"/>
      <point x="524" y="78" type="line"/>
      <point x="481" y="52" smooth="yes"/>
      <point x="434" y="41" smooth="yes"/>
      <point x="373" y="41" type="curve" smooth="yes"/>
      <point x="234" y="41" smooth="yes"/>
      <point x="128" y="143" smooth="yes"/>
      <point x="128" y="352" type="curve" smooth="yes"/>
      <point x="128" y="478"/>
      <point x="167" y="583"/>
      <point x="229" y="629" type="curve"/>
      <point x="268" y="642" smooth="yes"/>
      <point x="324" y="653" smooth="yes"/>
      <point x="373" y="653" type="curve" smooth="yes"/>
      <point x="421" y="653"/>
      <point x="481" y="641"/>
      <point x="514" y="628" type="curve"/>
      <point x="514" y="517" type="line" smooth="yes"/>
      <point x="514" y="503"/>
      <point x="551" y="503"/>
      <point x="559" y="503" type="curve"/>
      <point x="585" y="652" type="line"/>
      <point x="527" y="691" smooth="yes"/>
      <point x="457" y="712" smooth="yes"/>
      <point x="379" y="712" type="curve" smooth="yes"/>
      <point x="192" y="712" smooth="yes"/>
      <point x="40" y="588" smooth="yes"/>
      <point x="40" y="354" type="curve" smooth="yes"/>
      <point x="40" y="109" smooth="yes"/>
      <point x="178" y="-12" smooth="yes"/>
      <point x="363" y="-12" type="curve" smooth="yes"/>
      <point x="450" y="-12" smooth="yes"/>
      <point x="528" y="9" smooth="yes"/>
      <point x="584" y="51" type="curve" smooth="yes"/>
    </contour>
  </outline>
</glyph>
<glyph name="E" format="1">
  <advance width="601"/>
  <unicode hex="0045"/>
  <outline>
    <contour>
      <point x="473" y="555" type="line" smooth="yes" name="hr00"/>
      <point x="473" y="541"/>
      <point x="508" y="541"/>
      <point x="516" y="541" type="curve"/>
      <point x="540" y="690" type="line"/>
      <point x="539" y="700" smooth="yes"/>
      <point x="526" y="700" smooth="yes"/>
      <point x="508" y="700" type="curve" smooth="yes"/>
      <point x="168" y="696" type="line"/>
      <point x="74" y="700"/>
      <point x="65" y="700"/>
      <point x="65" y="700" type="curve"/>
      <point x="50" y="700"/>
      <point x="50" y="677"/>
      <point x="50" y="670" type="curve"/>
      <point x="134" y="648" type="line"/>
      <point x="134" y="52" type="line"/>
      <point x="50" y="30" type="line"/>
      <point x="50" y="23"/>
      <point x="50" y="0"/>
      <point x="65" y="0" type="curve"/>
      <point x="170" y="8" type="line"/>
      <point x="514" y="0" type="line" smooth="yes"/>
      <point x="534" y="0" smooth="yes"/>
      <point x="542" y="1" smooth="yes"/>
      <point x="543" y="12" type="curve" smooth="yes"/>
      <point x="551" y="163" type="line"/>
      <point x="544" y="163" smooth="yes"/>
      <point x="509" y="163" smooth="yes"/>
      <point x="509" y="149" type="curve" smooth="yes"/>
      <point x="483" y="55" type="line"/>
      <point x="208" y="55" type="line"/>
      <point x="217" y="326" type="line"/>
      <point x="473" y="339" type="line"/>
      <point x="473" y="382" type="line"/>
      <point x="217" y="382" type="line"/>
      <point x="208" y="646" type="line"/>
      <point x="473" y="649" type="line"/>
    </contour>
  </outline>
</glyph>
<glyph name="J" format="1">
  <advance width="315"/>
  <unicode hex="004A"/>
  <outline>
    <contour>
      <point x="133" y="159" type="line" smooth="yes" name="hr00"/>
      <point x="133" y="39" smooth="yes"/>
      <point x="78" y="-75" smooth="yes"/>
      <point x="-4" y="-183" type="curve" smooth="yes"/>
      <point x="26" y="-204" type="line"/>
      <point x="138" y="-80" smooth="yes"/>
      <point x="212" y="48" smooth="yes"/>
      <point x="212" y="186" type="curve" smooth="yes"/>
      <point x="212" y="648" type="line"/>
      <point x="296" y="669" type="line"/>
      <point x="296" y="676" smooth="yes"/>
      <point x="296" y="700" smooth="yes"/>
      <point x="281" y="700" type="curve" smooth="yes"/>
      <point x="281" y="700"/>
      <point x="264" y="700"/>
      <point x="170" y="696" type="curve"/>
      <point x="77" y="700"/>
      <point x="54" y="700"/>
      <point x="54" y="700" type="curve"/>
      <point x="38" y="700"/>
      <point x="38" y="676"/>
      <point x="38" y="670" type="curve"/>
      <point x="133" y="648" type="line"/>
    </contour>
  </outline>
</glyph>
<glyph name="M" format="1">
  <advance width="908"/>
  <unicode hex="004D"/>
  <outline>
    <contour>
      <point x="138" y="4" type="curve" name="hr00"/>
      <point x="248" y="0" type="line" smooth="yes"/>
      <point x="264" y="0"/>
      <point x="264" y="22"/>
      <point x="264" y="30" type="curve"/>
      <point x="169" y="52" type="line"/>
      <point x="192" y="594" type="line"/>
      <point x="423" y="50" type="line"/>
      <point x="442" y="50" type="line"/>
      <point x="695" y="601" type="line"/>
      <point x="716" y="52" type="line"/>
      <point x="621" y="30" type="line"/>
      <point x="621" y="22" smooth="yes"/>
      <point x="621" y="0" smooth="yes"/>
      <point x="637" y="0" type="curve" smooth="yes"/>
      <point x="750" y="4" type="line"/>
      <point x="837" y="0"/>
      <point x="868" y="0"/>
      <point x="868" y="0" type="curve"/>
      <point x="883" y="0"/>
      <point x="883" y="23"/>
      <point x="883" y="30" type="curve"/>
      <point x="798" y="52" type="line"/>
      <point x="767" y="647" type="line"/>
      <point x="849" y="669" type="line"/>
      <point x="849" y="676" smooth="yes"/>
      <point x="849" y="700" smooth="yes"/>
      <point x="834" y="700" type="curve" smooth="yes"/>
      <point x="834" y="700"/>
      <point x="799" y="700"/>
      <point x="676" y="696" type="curve"/>
      <point x="445" y="184" type="line"/>
      <point x="234" y="696" type="line"/>
      <point x="111" y="700"/>
      <point x="74" y="700"/>
      <point x="74" y="700" type="curve"/>
      <point x="59" y="700"/>
      <point x="59" y="676"/>
      <point x="59" y="669" type="curve"/>
      <point x="141" y="647" type="line"/>
      <point x="110" y="52" type="line"/>
      <point x="25" y="30" type="line"/>
      <point x="25" y="23" smooth="yes"/>
      <point x="25" y="0" smooth="yes"/>
      <point x="40" y="0" type="curve" smooth="yes"/>
      <point x="40" y="0"/>
      <point x="51" y="0"/>
    </contour>
  </outline>
</glyph>
<glyph name="Q" format="1">
  <advance width="747"/>
  <unicode hex="0051"/>
  <outline>
    <contour>
      <point x="128" y="352" type="curve" smooth="yes" name="hr00"/>
      <point x="128" y="140" smooth="yes"/>
      <point x="234" y="36" smooth="yes"/>
      <point x="373" y="36" type="curve" smooth="yes"/>
      <point x="513" y="36" smooth="yes"/>
      <point x="619" y="140" smooth="yes"/>
      <point x="619" y="352" type="curve" smooth="yes"/>
      <point x="619" y="557" smooth="yes"/>
      <point x="513" y="658" smooth="yes"/>
      <point x="373" y="658" type="curve" smooth="yes"/>
      <point x="324" y="658"/>
      <point x="268" y="647"/>
      <point x="229" y="634" type="curve"/>
      <point x="167" y="587" smooth="yes"/>
      <point x="128" y="480" smooth="yes"/>
    </contour>
    <contour>
      <point x="368" y="-12" type="line"/>
      <point x="178" y="-12" smooth="yes"/>
      <point x="40" y="109" smooth="yes"/>
      <point x="40" y="354" type="curve" smooth="yes"/>
      <point x="40" y="588" smooth="yes"/>
      <point x="192" y="712" smooth="yes"/>
      <point x="379" y="712" type="curve" smooth="yes"/>
      <point x="560" y="712" smooth="yes"/>
      <point x="707" y="597" smooth="yes"/>
      <point x="707" y="363" type="curve" smooth="yes"/>
      <point x="707" y="137"/>
      <point x="592" y="16"/>
      <point x="426" y="-8" type="curve"/>
      <point x="553" y="-210" type="line"/>
      <point x="529" y="-225" smooth="yes"/>
      <point x="509" y="-231" smooth="yes"/>
      <point x="493" y="-231" type="curve" smooth="yes"/>
      <point x="477" y="-231" smooth="yes"/>
      <point x="465" y="-224" smooth="yes"/>
      <point x="460" y="-212" type="curve" smooth="yes"/>
    </contour>
  </outline>
</glyph>
<glyph name="S" format="1">
  <advance width="554"/>
  <unicode hex="0053"/>
  <outline>
    <contour>
      <point x="504" y="170" type="curve" smooth="yes" name="hr00"/>
      <point x="504" y="227" smooth="yes"/>
      <point x="464" y="292" smooth="yes"/>
      <point x="386" y="337" type="curve" smooth="yes"/>
      <point x="214" y="435" type="line" smooth="yes"/>
      <point x="176" y="457" smooth="yes"/>
      <point x="139" y="490" smooth="yes"/>
      <point x="139" y="547" type="curve" smooth="yes"/>
      <point x="139" y="559"/>
      <point x="140" y="573"/>
      <point x="144" y="587" type="curve"/>
      <point x="178" y="642" smooth="yes"/>
      <point x="236" y="662" smooth="yes"/>
      <point x="292" y="662" type="curve" smooth="yes"/>
      <point x="334" y="662"/>
      <point x="375" y="650"/>
      <point x="403" y="637" type="curve"/>
      <point x="403" y="536" type="line" smooth="yes"/>
      <point x="403" y="522"/>
      <point x="437" y="522"/>
      <point x="445" y="522" type="curve"/>
      <point x="471" y="676" type="line"/>
      <point x="415" y="697" smooth="yes"/>
      <point x="356" y="712" smooth="yes"/>
      <point x="298" y="712" type="curve" smooth="yes"/>
      <point x="150" y="712" smooth="yes"/>
      <point x="69" y="622" smooth="yes"/>
      <point x="69" y="528" type="curve" smooth="yes"/>
      <point x="69" y="468" smooth="yes"/>
      <point x="102" y="407" smooth="yes"/>
      <point x="171" y="368" type="curve" smooth="yes"/>
      <point x="348" y="267" type="line" smooth="yes"/>
      <point x="404" y="235" smooth="yes"/>
      <point x="419" y="190" smooth="yes"/>
      <point x="419" y="157" type="curve" smooth="yes"/>
      <point x="419" y="92" smooth="yes"/>
      <point x="376" y="36" smooth="yes"/>
      <point x="276" y="36" type="curve" smooth="yes"/>
      <point x="225" y="36"/>
      <point x="163" y="51"/>
      <point x="121" y="78" type="curve"/>
      <point x="121" y="189" type="line" smooth="yes"/>
      <point x="121" y="201" smooth="yes"/>
      <point x="86" y="201" smooth="yes"/>
      <point x="78" y="201" type="curve" smooth="yes"/>
      <point x="77" y="201"/>
      <point x="60" y="79"/>
      <point x="55" y="36" type="curve"/>
      <point x="132" y="3" smooth="yes"/>
      <point x="201" y="-12" smooth="yes"/>
      <point x="268" y="-12" type="curve" smooth="yes"/>
      <point x="402" y="-12" smooth="yes"/>
      <point x="504" y="51" smooth="yes"/>
    </contour>
  </outline>
</glyph>
<glyph name="W" format="1">
  <advance width="920"/>
  <unicode hex="0057"/>
  <outline>
    <contour>
      <point x="237" y="670" type="line" name="hr00"/>
      <point x="237" y="678" smooth="yes"/>
      <point x="237" y="700" smooth="yes"/>
      <point x="222" y="700" type="curve" smooth="yes"/>
      <point x="222" y="700"/>
      <point x="223" y="700"/>
      <point x="115" y="696" type="curve"/>
      <point x="28" y="700"/>
      <point x="15" y="700"/>
      <point x="15" y="700" type="curve"/>
      <point x="0" y="700"/>
      <point x="0" y="677"/>
      <point x="0" y="670" type="curve"/>
      <point x="65" y="648" type="line"/>
      <point x="247" y="0" type="line"/>
      <point x="323" y="0" type="line"/>
      <point x="460" y="447" type="line"/>
      <point x="599" y="0" type="line"/>
      <point x="675" y="0" type="line"/>
      <point x="855" y="648" type="line"/>
      <point x="920" y="670" type="line"/>
      <point x="920" y="677"/>
      <point x="920" y="698"/>
      <point x="905" y="700" type="curve"/>
      <point x="906" y="700"/>
      <point x="901" y="699"/>
      <point x="827" y="696" type="curve"/>
      <point x="724" y="700" type="line" smooth="yes"/>
      <point x="709" y="700"/>
      <point x="709" y="678"/>
      <point x="709" y="670" type="curve"/>
      <point x="794" y="648" type="line"/>
      <point x="645" y="113" type="line"/>
      <point x="498" y="584" type="line"/>
      <point x="498" y="651" type="line"/>
      <point x="463" y="651" type="line"/>
      <point x="297" y="113" type="line"/>
      <point x="152" y="648" type="line"/>
    </contour>
  </outline>
</glyph>
<glyph name="Z" format="1">
  <advance width="611"/>
  <unicode hex="005A"/>
  <outline>
    <contour>
      <point x="489" y="55" type="line"/>
      <point x="146" y="55" type="line"/>
      <point x="577" y="695" type="line"/>
      <point x="555" y="712" type="line"/>
      <point x="520" y="689" type="line"/>
      <point x="106" y="700" smooth="yes"/>
      <point x="102" y="700" smooth="yes"/>
      <point x="100" y="700" type="curve" smooth="yes" name="hr01"/>
      <point x="86" y="700"/>
      <point x="80" y="697"/>
      <point x="79" y="688" type="curve"/>
      <point x="104" y="537" type="line"/>
      <point x="111" y="537" smooth="yes"/>
      <point x="146" y="537" smooth="yes"/>
      <point x="146" y="551" type="curve" smooth="yes"/>
      <point x="146" y="642" type="line"/>
      <point x="456" y="642" type="line"/>
      <point x="28" y="8" type="line"/>
      <point x="45" y="-12" type="line"/>
      <point x="77" y="5" type="line"/>
      <point x="527" y="0" type="line" name="hr02"/>
      <point x="547" y="0"/>
      <point x="555" y="1"/>
      <point x="556" y="12" type="curve"/>
      <point x="531" y="165" type="line"/>
      <point x="524" y="165" smooth="yes"/>
      <point x="489" y="165" smooth="yes"/>
      <point x="489" y="151" type="curve" smooth="yes"/>
    </contour>
  </outline>
</glyph>
<glyph name="backslash" format="1">
  <advance width="327"/>
  <unicode hex="005C"/>
  <outline>
    <contour>
      <point x="24" y="750" type="line" name="hr00"/>
      <point x="-30" y="750" type="line"/>
      <point x="303" y="-50" type="line"/>
      <point x="357" y="-50" type="line"/>
    </contour>
  </outline>
</glyph>
<glyph name="bracketright" format="1">
  <advance width="247"/>
  <unicode hex="005D"/>
  <outline>
    <contour>
      <point x="130" y="249" type="curve" name="hr00"/>
      <point x="164" y="362" smooth="yes"/>
      <point x="174" y="461" smooth="yes"/>
      <point x="174" y="563" type="curve" smooth="yes"/>
      <point x="174" y="617"/>
      <point x="168" y="672"/>
      <point x="160" y="731" type="curve"/>
      <point x="5" y="731" type="line" smooth="yes"/>
      <point x="-12" y="731" smooth="yes"/>
      <point x="-12" y="705" smooth="yes"/>
      <point x="-12" y="697" type="curve" smooth="yes"/>
      <point x="-12" y="696"/>
      <point x="81" y="680"/>
      <point x="100" y="680" type="curve"/>
      <point x="100" y="-182" type="line"/>
      <point x="81" y="-182" smooth="yes"/>
      <point x="-12" y="-198" smooth="yes"/>
      <point x="-12" y="-199" type="curve" smooth="yes"/>
      <point x="-12" y="-207" smooth="yes"/>
      <point x="-12" y="-233" smooth="yes"/>
      <point x="5" y="-233" type="curve" smooth="yes"/>
      <point x="160" y="-233" type="line"/>
      <point x="166" y="-174" smooth="yes"/>
      <point x="174" y="-119" smooth="yes"/>
      <point x="174" y="-65" type="curve" smooth="yes"/>
      <point x="174" y="37"/>
      <point x="164" y="136"/>
    </contour>
  </outline>
</glyph>
<glyph name="asciicircum" format="1">
  <advance width="510"/>
  <unicode hex="005E"/>
  <outline>
    <contour>
      <point x="135" y="225" type="line" name="hr00"/>
      <point x="75" y="225" type="line"/>
      <point x="227" y="512" type="line"/>
      <point x="284" y="512" type="line"/>
      <point x="436" y="225" type="line"/>
      <point x="376" y="225" type="line"/>
      <point x="255" y="457" type="line"/>
    </contour>
  </outline>
</glyph>
<glyph name="grave" format="1">
  <advance width="317"/>
  <unicode hex="0060"/>
  <outline>
    <contour>
      <point x="267" y="537" type="line" name="hr00"/>
      <point x="267" y="537"/>
      <point x="170" y="603"/>
      <point x="75" y="680" type="curve"/>
      <point x="70" y="674" smooth="yes"/>
      <point x="50" y="633" smooth="yes"/>
      <point x="50" y="613" type="curve" smooth="yes"/>
      <point x="50" y="608" smooth="yes"/>
      <point x="51" y="603" smooth="yes"/>
      <point x="55" y="601" type="curve" smooth="yes"/>
      <point x="122" y="558"/>
      <point x="220" y="528"/>
      <point x="256" y="518" type="curve"/>
    </contour>
  </outline>
</glyph>
<glyph name="a" format="1">
  <advance width="496"/>
  <unicode hex="0061"/>
  <outline>
    <contour>
      <point x="157" y="-12" type="curve" name="hr00"/>
      <point x="181" y="-12"/>
      <point x="243" y="12"/>
      <point x="320" y="52" type="curve"/>
      <point x="326" y="11" smooth="yes"/>
      <point x="356" y="-12" smooth="yes"/>
      <point x="400" y="-12" type="curve" smooth="yes"/>
      <point x="422" y="-12"/>
      <point x="448" y="-4"/>
      <point x="471" y="9" type="curve"/>
      <point x="471" y="18"/>
      <point x="467" y="29"/>
      <point x="462" y="34" type="curve"/>
      <point x="450" y="32" smooth="yes"/>
      <point x="440" y="31" smooth="yes"/>
      <point x="432" y="31" type="curve" smooth="yes"/>
      <point x="402" y="31" smooth="yes"/>
      <point x="389" y="42" smooth="yes"/>
      <point x="389" y="67" type="curve" smooth="yes"/>
      <point x="389" y="322" type="line" smooth="yes"/>
      <point x="389" y="415"/>
      <point x="334" y="468"/>
      <point x="237" y="468" type="curve"/>
      <point x="187" y="458"/>
      <point x="125" y="435"/>
      <point x="64" y="406" type="curve"/>
      <point x="67" y="379" smooth="yes"/>
      <point x="88" y="348" smooth="yes"/>
      <point x="103" y="348" type="curve" smooth="yes"/>
      <point x="124" y="348"/>
      <point x="163" y="379"/>
      <point x="209" y="430" type="curve"/>
      <point x="274" y="430" smooth="yes"/>
      <point x="318" y="385" smooth="yes"/>
      <point x="318" y="319" type="curve" smooth="yes"/>
      <point x="318" y="319"/>
      <point x="318" y="319"/>
      <point x="318" y="259" type="curve"/>
      <point x="118" y="245" smooth="yes"/>
      <point x="50" y="175" smooth="yes"/>
      <point x="50" y="102" type="curve" smooth="yes"/>
      <point x="50" y="41" smooth="yes"/>
      <point x="90" y="-12" smooth="yes"/>
    </contour>
    <contour>
      <point x="178" y="41" type="curve"/>
      <point x="139" y="41" smooth="yes"/>
      <point x="122" y="75" smooth="yes"/>
      <point x="122" y="114" type="curve" smooth="yes"/>
      <point x="122" y="128"/>
      <point x="126" y="147"/>
      <point x="131" y="160" type="curve"/>
      <point x="164" y="189"/>
      <point x="230" y="215"/>
      <point x="318" y="226" type="curve"/>
      <point x="318" y="91" type="line"/>
      <point x="274" y="62" smooth="yes"/>
      <point x="219" y="41" smooth="yes"/>
    </contour>
  </outline>
</glyph>
<glyph name="b" format="1">
  <advance width="519"/>
  <unicode hex="0062"/>
  <outline>
    <contour>
      <point x="268" y="-12" type="curve" name="hr00"/>
      <point x="402" y="-12" smooth="yes"/>
      <point x="479" y="75" smooth="yes"/>
      <point x="479" y="228" type="curve" smooth="yes"/>
      <point x="479" y="374"/>
      <point x="403" y="462"/>
      <point x="277" y="462" type="curve"/>
      <point x="237" y="448"/>
      <point x="177" y="417"/>
      <point x="143" y="393" type="curve"/>
      <point x="140" y="395" type="line"/>
      <point x="143" y="734" type="line" smooth="yes"/>
      <point x="143" y="745"/>
      <point x="137" y="756"/>
      <point x="127" y="762" type="curve"/>
      <point x="116" y="762" smooth="yes"/>
      <point x="-15" y="743" smooth="yes"/>
      <point x="-15" y="741" type="curve" smooth="yes"/>
      <point x="-15" y="719" smooth="yes"/>
      <point x="-9" y="704" smooth="yes"/>
      <point x="-1" y="704" type="curve" smooth="yes"/>
      <point x="72" y="704" type="line"/>
      <point x="72" y="0" type="line"/>
      <point x="106" y="0" type="line"/>
      <point x="120" y="19" type="line"/>
      <point x="168" y="-1" smooth="yes"/>
      <point x="220" y="-12" smooth="yes"/>
    </contour>
    <contour>
      <point x="273" y="409" type="curve" smooth="yes"/>
      <point x="353" y="409" smooth="yes"/>
      <point x="401" y="340" smooth="yes"/>
      <point x="401" y="226" type="curve" smooth="yes"/>
      <point x="401" y="98" smooth="yes"/>
      <point x="350" y="32" smooth="yes"/>
      <point x="252" y="32" type="curve" smooth="yes"/>
      <point x="219" y="32"/>
      <point x="181" y="39"/>
      <point x="143" y="52" type="curve"/>
      <point x="143" y="294" type="line" smooth="yes"/>
      <point x="143" y="316"/>
      <point x="148" y="337"/>
      <point x="162" y="371" type="curve"/>
      <point x="199" y="396" smooth="yes"/>
      <point x="239" y="409" smooth="yes"/>
    </contour>
  </outline>
</glyph>
<glyph name="c" format="1">
  <advance width="435"/>
  <unicode hex="0063"/>
  <outline>
    <contour>
      <point x="263" y="-12" type="curve" name="hr00"/>
      <point x="311" y="-12"/>
      <point x="359" y="3"/>
      <point x="403" y="31" type="curve"/>
      <point x="399" y="44"/>
      <point x="395" y="52"/>
      <point x="385" y="61" type="curve"/>
      <point x="344" y="44" smooth="yes"/>
      <point x="311" y="36" smooth="yes"/>
      <point x="276" y="36" type="curve" smooth="yes"/>
      <point x="178" y="36" smooth="yes"/>
      <point x="118" y="110" smooth="yes"/>
      <point x="118" y="231" type="curve" smooth="yes"/>
      <point x="118" y="338"/>
      <point x="164" y="407"/>
      <point x="253" y="435" type="curve"/>
      <point x="287" y="405" smooth="yes"/>
      <point x="344" y="372" smooth="yes"/>
      <point x="360" y="372" type="curve" smooth="yes"/>
      <point x="376" y="372"/>
      <point x="397" y="407"/>
      <point x="397" y="435" type="curve"/>
      <point x="359" y="450"/>
      <point x="304" y="465"/>
      <point x="268" y="468" type="curve"/>
      <point x="136" y="468" smooth="yes"/>
      <point x="40" y="368" smooth="yes"/>
      <point x="40" y="230" type="curve" smooth="yes"/>
      <point x="40" y="80" smooth="yes"/>
      <point x="125" y="-12" smooth="yes"/>
    </contour>
  </outline>
</glyph>
<glyph name="d" format="1">
  <advance width="552"/>
  <unicode hex="0064"/>
  <outline>
    <contour>
      <point x="250" y="-12" type="curve"/>
      <point x="291" y="3"/>
      <point x="349" y="30"/>
      <point x="383" y="52" type="curve"/>
      <point x="390" y="11" smooth="yes"/>
      <point x="419" y="-12" smooth="yes"/>
      <point x="463" y="-12" type="curve" smooth="yes"/>
      <point x="486" y="-12"/>
      <point x="512" y="-4"/>
      <point x="534" y="9" type="curve"/>
      <point x="534" y="19"/>
      <point x="530" y="29"/>
      <point x="525" y="34" type="curve"/>
      <point x="513" y="32" smooth="yes"/>
      <point x="503" y="31" smooth="yes"/>
      <point x="495" y="31" type="curve" smooth="yes"/>
      <point x="465" y="31" smooth="yes"/>
      <point x="452" y="42" smooth="yes"/>
      <point x="452" y="67" type="curve" smooth="yes"/>
      <point x="452" y="734" type="line" smooth="yes"/>
      <point x="452" y="745"/>
      <point x="446" y="756"/>
      <point x="436" y="762" type="curve"/>
      <point x="425" y="762" smooth="yes"/>
      <point x="296" y="743" smooth="yes"/>
      <point x="296" y="741" type="curve" smooth="yes"/>
      <point x="296" y="719" smooth="yes"/>
      <point x="302" y="704" smooth="yes"/>
      <point x="310" y="704" type="curve" smooth="yes"/>
      <point x="381" y="704" type="line"/>
      <point x="381" y="433" type="line"/>
      <point x="334" y="452" smooth="yes"/>
      <point x="289" y="462" smooth="yes"/>
      <point x="248" y="462" type="curve" smooth="yes"/>
      <point x="118" y="462" smooth="yes"/>
      <point x="40" y="374" smooth="yes"/>
      <point x="40" y="228" type="curve" smooth="yes"/>
      <point x="40" y="82" smooth="yes"/>
      <point x="122" y="-12" smooth="yes"/>
    </contour>
    <contour>
      <point x="251" y="48" type="curve"/>
      <point x="169" y="48" smooth="yes"/>
      <point x="118" y="117" smooth="yes"/>
      <point x="118" y="230" type="curve" smooth="yes"/>
      <point x="118" y="355" smooth="yes"/>
      <point x="166" y="417" smooth="yes"/>
      <point x="262" y="417" type="curve" smooth="yes"/>
      <point x="294" y="417"/>
      <point x="331" y="410"/>
      <point x="381" y="395" type="curve"/>
      <point x="381" y="93" type="line" name="hr01"/>
      <point x="338" y="65" smooth="yes"/>
      <point x="288" y="48" smooth="yes"/>
    </contour>
  </outline>
</glyph>
<glyph name="e" format="1">
  <advance width="469"/>
  <unicode hex="0065"/>
  <outline>
    <contour>
      <point x="256" y="-12" type="curve" name="hr00"/>
      <point x="312" y="-12"/>
      <point x="378" y="9"/>
      <point x="417" y="38" type="curve"/>
      <point x="414" y="51"/>
      <point x="409" y="59"/>
      <point x="400" y="68" type="curve"/>
      <point x="358" y="47" smooth="yes"/>
      <point x="315" y="36" smooth="yes"/>
      <point x="273" y="36" type="curve" smooth="yes"/>
      <point x="172" y="36"/>
      <point x="117" y="103"/>
      <point x="117" y="225" type="curve"/>
      <point x="140" y="223" smooth="yes"/>
      <point x="162" y="222" smooth="yes"/>
      <point x="184" y="222" type="curve" smooth="yes"/>
      <point x="269" y="222"/>
      <point x="348" y="229"/>
      <point x="434" y="245" type="curve"/>
      <point x="434" y="383" smooth="yes"/>
      <point x="375" y="468" smooth="yes"/>
      <point x="279" y="468" type="curve" smooth="yes"/>
      <point x="133" y="468" smooth="yes"/>
      <point x="40" y="368" smooth="yes"/>
      <point x="40" y="209" type="curve" smooth="yes"/>
      <point x="40" y="72" smooth="yes"/>
      <point x="122" y="-12" smooth="yes"/>
    </contour>
    <contour>
      <point x="120" y="262" type="curve"/>
      <point x="129" y="331"/>
      <point x="158" y="385"/>
      <point x="203" y="415" type="curve"/>
      <point x="217" y="418" smooth="yes"/>
      <point x="233" y="420" smooth="yes"/>
      <point x="251" y="420" type="curve" smooth="yes"/>
      <point x="316" y="420" smooth="yes"/>
      <point x="353" y="383" smooth="yes"/>
      <point x="353" y="317" type="curve" smooth="yes"/>
      <point x="353" y="306"/>
      <point x="352" y="295"/>
      <point x="350" y="283" type="curve"/>
      <point x="274" y="270"/>
      <point x="197" y="263"/>
    </contour>
  </outline>
</glyph>
<glyph name="f" format="1">
  <advance width="339"/>
  <unicode hex="0066"/>
  <outline>
    <contour>
      <point x="44" y="0" type="curve" smooth="yes" name="hr00"/>
      <point x="153" y="4" type="line"/>
      <point x="285" y="0" type="line"/>
      <point x="293" y="-1"/>
      <point x="299" y="12"/>
      <point x="299" y="30" type="curve"/>
      <point x="187" y="52" type="line"/>
      <point x="187" y="409" type="line"/>
      <point x="292" y="409" type="line" smooth="yes"/>
      <point x="300" y="409"/>
      <point x="306" y="429"/>
      <point x="306" y="457" type="curve"/>
      <point x="187" y="457" type="line"/>
      <point x="187" y="516" type="line" smooth="yes"/>
      <point x="187" y="621"/>
      <point x="202" y="704"/>
      <point x="225" y="724" type="curve"/>
      <point x="315" y="662" smooth="yes"/>
      <point x="319" y="660" smooth="yes"/>
      <point x="339" y="660" type="curve" smooth="yes"/>
      <point x="352" y="660"/>
      <point x="369" y="696"/>
      <point x="369" y="723" type="curve"/>
      <point x="335" y="742"/>
      <point x="258" y="762"/>
      <point x="220" y="762" type="curve"/>
      <point x="144" y="725"/>
      <point x="116" y="642"/>
      <point x="116" y="460" type="curve"/>
      <point x="41" y="448" type="line"/>
      <point x="41" y="425" smooth="yes"/>
      <point x="47" y="409" smooth="yes"/>
      <point x="55" y="409" type="curve" smooth="yes"/>
      <point x="116" y="409" type="line"/>
      <point x="116" y="52" type="line"/>
      <point x="30" y="30" type="line"/>
      <point x="30" y="11" smooth="yes"/>
      <point x="36" y="-1" smooth="yes"/>
    </contour>
  </outline>
</glyph>
<glyph name="g" format="1">
  <advance width="475"/>
  <unicode hex="0067"/>
  <outline>
    <contour>
      <point x="200" y="-262" type="curve"/>
      <point x="348" y="-262" smooth="yes"/>
      <point x="460" y="-182" smooth="yes"/>
      <point x="460" y="-76" type="curve" smooth="yes"/>
      <point x="460" y="4" smooth="yes"/>
      <point x="392" y="58" smooth="yes"/>
      <point x="292" y="58" type="curve" smooth="yes"/>
      <point x="129" y="58" type="line"/>
      <point x="130" y="79"/>
      <point x="146" y="113"/>
      <point x="170" y="146" type="curve"/>
      <point x="186" y="143" smooth="yes"/>
      <point x="203" y="141" smooth="yes"/>
      <point x="220" y="141" type="curve" smooth="yes" name="hr01"/>
      <point x="336" y="141" smooth="yes"/>
      <point x="404" y="204" smooth="yes"/>
      <point x="404" y="310" type="curve" smooth="yes"/>
      <point x="404" y="349"/>
      <point x="393" y="383"/>
      <point x="372" y="409" type="curve"/>
      <point x="442" y="415" smooth="yes"/>
      <point x="458" y="420" smooth="yes"/>
      <point x="458" y="439" type="curve" smooth="yes"/>
      <point x="458" y="459"/>
      <point x="436" y="485"/>
      <point x="436" y="485" type="curve"/>
      <point x="404" y="477"/>
      <point x="371" y="459"/>
      <point x="345" y="435" type="curve"/>
      <point x="314" y="456" smooth="yes"/>
      <point x="274" y="468" smooth="yes"/>
      <point x="229" y="468" type="curve" smooth="yes" name="hr02"/>
      <point x="120" y="468" smooth="yes"/>
      <point x="48" y="403" smooth="yes"/>
      <point x="48" y="306" type="curve" smooth="yes"/>
      <point x="48" y="236"/>
      <point x="77" y="185"/>
      <point x="130" y="160" type="curve"/>
      <point x="88" y="103" smooth="yes"/>
      <point x="64" y="55" smooth="yes"/>
      <point x="64" y="28" type="curve" smooth="yes"/>
      <point x="64" y="15"/>
      <point x="68" y="6"/>
      <point x="76" y="0" type="curve"/>
      <point x="109" y="0" type="line"/>
      <point x="52" y="-60" smooth="yes"/>
      <point x="20" y="-102" smooth="yes"/>
      <point x="20" y="-116" type="curve" smooth="yes"/>
      <point x="20" y="-207" smooth="yes"/>
      <point x="87" y="-262" smooth="yes"/>
    </contour>
    <contour>
      <point x="227" y="180" type="curve" smooth="yes"/>
      <point x="164" y="180" smooth="yes"/>
      <point x="121" y="235" smooth="yes"/>
      <point x="121" y="315" type="curve" smooth="yes" name="hr04"/>
      <point x="121" y="361"/>
      <point x="135" y="397"/>
      <point x="160" y="416" type="curve"/>
      <point x="180" y="423" smooth="yes"/>
      <point x="205" y="428" smooth="yes"/>
      <point x="226" y="428" type="curve" smooth="yes"/>
      <point x="291" y="428" smooth="yes"/>
      <point x="332" y="380" smooth="yes"/>
      <point x="332" y="305" type="curve" smooth="yes"/>
      <point x="332" y="228" smooth="yes"/>
      <point x="291" y="180" smooth="yes"/>
    </contour>
    <contour>
      <point x="214" y="-218" type="curve" name="hr05"/>
      <point x="134" y="-218"/>
      <point x="90" y="-178"/>
      <point x="90" y="-104" type="curve"/>
      <point x="153" y="0" type="line"/>
      <point x="302" y="0" type="line" smooth="yes"/>
      <point x="355" y="0" smooth="yes"/>
      <point x="391" y="-33" smooth="yes"/>
      <point x="391" y="-82" type="curve" smooth="yes"/>
      <point x="391" y="-159" smooth="yes"/>
      <point x="314" y="-218" smooth="yes"/>
    </contour>
  </outline>
</glyph>
<glyph name="h" format="1">
  <advance width="578"/>
  <unicode hex="0068"/>
  <outline>
    <contour>
      <point x="35" y="0" type="curve" name="hr00"/>
      <point x="35" y="0"/>
      <point x="36" y="0"/>
      <point x="145" y="4" type="curve"/>
      <point x="237" y="0"/>
      <point x="238" y="0"/>
      <point x="238" y="0" type="curve"/>
      <point x="246" y="0"/>
      <point x="251" y="13"/>
      <point x="251" y="30" type="curve"/>
      <point x="179" y="52" type="line"/>
      <point x="179" y="294" type="line" smooth="yes"/>
      <point x="179" y="321"/>
      <point x="185" y="346"/>
      <point x="198" y="371" type="curve"/>
      <point x="241" y="400" smooth="yes"/>
      <point x="283" y="415" smooth="yes"/>
      <point x="319" y="415" type="curve" smooth="yes"/>
      <point x="368" y="415" smooth="yes"/>
      <point x="396" y="381" smooth="yes"/>
      <point x="396" y="319" type="curve" smooth="yes"/>
      <point x="396" y="52" type="line"/>
      <point x="324" y="30" type="line"/>
      <point x="324" y="13" smooth="yes"/>
      <point x="330" y="0" smooth="yes"/>
      <point x="338" y="0" type="curve" smooth="yes"/>
      <point x="430" y="4" type="line"/>
      <point x="539" y="0" type="line" smooth="yes"/>
      <point x="547" y="0"/>
      <point x="553" y="12"/>
      <point x="553" y="30" type="curve"/>
      <point x="467" y="52" type="line"/>
      <point x="467" y="322" type="line" smooth="yes"/>
      <point x="467" y="417"/>
      <point x="419" y="468"/>
      <point x="329" y="468" type="curve"/>
      <point x="284" y="454"/>
      <point x="220" y="421"/>
      <point x="182" y="393" type="curve"/>
      <point x="179" y="395" type="line"/>
      <point x="179" y="734" type="line" smooth="yes"/>
      <point x="179" y="745"/>
      <point x="173" y="756"/>
      <point x="163" y="762" type="curve"/>
      <point x="152" y="762" smooth="yes"/>
      <point x="20" y="743" smooth="yes"/>
      <point x="20" y="741" type="curve" smooth="yes"/>
      <point x="20" y="719" smooth="yes"/>
      <point x="26" y="704" smooth="yes"/>
      <point x="34" y="704" type="curve" smooth="yes"/>
      <point x="108" y="704" type="line"/>
      <point x="108" y="52" type="line"/>
      <point x="22" y="30" type="line"/>
      <point x="22" y="12" smooth="yes"/>
      <point x="27" y="0" smooth="yes"/>
    </contour>
  </outline>
</glyph>
<glyph name="i" format="1">
  <advance width="303"/>
  <unicode hex="0069"/>
  <outline>
    <contour>
      <point x="197" y="52" type="line" name="hr00"/>
      <point x="197" y="440" type="line" smooth="yes"/>
      <point x="197" y="455"/>
      <point x="188" y="464"/>
      <point x="181" y="468" type="curve"/>
      <point x="165" y="468" smooth="yes"/>
      <point x="41" y="448" smooth="yes"/>
      <point x="41" y="447" type="curve" smooth="yes"/>
      <point x="41" y="440" smooth="yes"/>
      <point x="41" y="410" smooth="yes"/>
      <point x="55" y="410" type="curve" smooth="yes"/>
      <point x="126" y="410" type="line"/>
      <point x="126" y="52" type="line"/>
      <point x="40" y="30" type="line"/>
      <point x="40" y="24" smooth="yes"/>
      <point x="40" y="-1" smooth="yes"/>
      <point x="54" y="0" type="curve" smooth="yes"/>
      <point x="162" y="4" type="line"/>
      <point x="269" y="0" type="line" smooth="yes"/>
      <point x="283" y="-1"/>
      <point x="283" y="24"/>
      <point x="283" y="30" type="curve"/>
    </contour>
    <contour>
      <point x="171" y="662" type="curve" smooth="yes"/>
      <point x="153" y="662"/>
      <point x="123" y="655"/>
      <point x="123" y="655" type="curve"/>
      <point x="123" y="655" smooth="yes"/>
      <point x="115" y="627" smooth="yes"/>
      <point x="115" y="599" type="curve" smooth="yes"/>
      <point x="115" y="574" smooth="yes"/>
      <point x="122" y="547" smooth="yes"/>
      <point x="149" y="547" type="curve" smooth="yes"/>
      <point x="168" y="547"/>
      <point x="197" y="556"/>
      <point x="197" y="556" type="curve"/>
      <point x="197" y="556" smooth="yes"/>
      <point x="204" y="583" smooth="yes"/>
      <point x="204" y="609" type="curve" smooth="yes"/>
      <point x="204" y="636" smooth="yes"/>
      <point x="195" y="662" smooth="yes"/>
    </contour>
  </outline>
</glyph>
<glyph name="j" format="1">
  <advance width="258"/>
  <unicode hex="006A"/>
  <outline>
    <contour>
      <point x="172" y="440" type="curve" smooth="yes" name="hr00"/>
      <point x="172" y="455"/>
      <point x="163" y="464"/>
      <point x="156" y="468" type="curve"/>
      <point x="140" y="468" smooth="yes"/>
      <point x="16" y="448" smooth="yes"/>
      <point x="16" y="447" type="curve" smooth="yes"/>
      <point x="16" y="440" smooth="yes"/>
      <point x="16" y="410" smooth="yes"/>
      <point x="30" y="410" type="curve" smooth="yes"/>
      <point x="100" y="410" type="line"/>
      <point x="100" y="69" type="line" smooth="yes"/>
      <point x="100" y="-40"/>
      <point x="78" y="-140"/>
      <point x="14" y="-243" type="curve"/>
      <point x="41" y="-262" type="line"/>
      <point x="134" y="-142" smooth="yes"/>
      <point x="171" y="-17" smooth="yes"/>
      <point x="171" y="72" type="curve" smooth="yes"/>
      <point x="171" y="195" smooth="yes"/>
      <point x="172" y="317" smooth="yes"/>
    </contour>
    <contour>
      <point x="146" y="662" type="curve" smooth="yes"/>
      <point x="128" y="662"/>
      <point x="98" y="655"/>
      <point x="98" y="655" type="curve"/>
      <point x="98" y="655" smooth="yes"/>
      <point x="90" y="627" smooth="yes"/>
      <point x="90" y="599" type="curve" smooth="yes"/>
      <point x="90" y="574" smooth="yes"/>
      <point x="97" y="547" smooth="yes"/>
      <point x="124" y="547" type="curve" smooth="yes"/>
      <point x="143" y="547"/>
      <point x="172" y="556"/>
      <point x="172" y="556" type="curve"/>
      <point x="172" y="556" smooth="yes"/>
      <point x="179" y="583" smooth="yes"/>
      <point x="179" y="609" type="curve" smooth="yes"/>
      <point x="179" y="636" smooth="yes"/>
      <point x="170" y="662" smooth="yes"/>
    </contour>
  </outline>
</glyph>
<glyph name="k" format="1">
  <advance width="491"/>
  <unicode hex="006B"/>
  <outline>
    <contour>
      <point x="143" y="4" type="line" name="hr00"/>
      <point x="235" y="0" type="line" smooth="yes"/>
      <point x="248" y="-1"/>
      <point x="249" y="23"/>
      <point x="249" y="30" type="curve"/>
      <point x="177" y="52" type="line"/>
      <point x="177" y="237" type="line"/>
      <point x="212" y="241" type="line"/>
      <point x="376" y="0" type="line"/>
      <point x="491" y="0" type="line" smooth="yes"/>
      <point x="504" y="0"/>
      <point x="505" y="23"/>
      <point x="505" y="30" type="curve"/>
      <point x="422" y="52" type="line"/>
      <point x="275" y="265" type="line"/>
      <point x="397" y="404" type="line"/>
      <point x="464" y="426" type="line"/>
      <point x="464" y="433" smooth="yes"/>
      <point x="462" y="456" smooth="yes"/>
      <point x="450" y="456" type="curve" smooth="yes"/>
      <point x="350" y="452" type="line"/>
      <point x="282" y="456" type="line" smooth="yes"/>
      <point x="268" y="457"/>
      <point x="268" y="431"/>
      <point x="268" y="426" type="curve"/>
      <point x="330" y="406" type="line"/>
      <point x="233" y="281" type="line"/>
      <point x="177" y="281" type="line"/>
      <point x="177" y="734" type="line" smooth="yes"/>
      <point x="177" y="749"/>
      <point x="168" y="758"/>
      <point x="161" y="762" type="curve"/>
      <point x="145" y="762" smooth="yes"/>
      <point x="21" y="742" smooth="yes"/>
      <point x="21" y="741" type="curve" smooth="yes"/>
      <point x="21" y="734" smooth="yes"/>
      <point x="21" y="704" smooth="yes"/>
      <point x="35" y="704" type="curve" smooth="yes"/>
      <point x="106" y="704" type="line"/>
      <point x="106" y="52" type="line"/>
      <point x="20" y="30" type="line"/>
      <point x="20" y="24" smooth="yes"/>
      <point x="20" y="-1" smooth="yes"/>
      <point x="34" y="0" type="curve" smooth="yes"/>
    </contour>
  </outline>
</glyph>
<glyph name="l" format="1">
  <advance width="283"/>
  <unicode hex="006C"/>
  <outline>
    <contour>
      <point x="249" y="0" type="line" smooth="yes" name="hr00"/>
      <point x="263" y="0"/>
      <point x="263" y="24"/>
      <point x="263" y="30" type="curve"/>
      <point x="177" y="52" type="line"/>
      <point x="177" y="734" type="line"/>
      <point x="177" y="749"/>
      <point x="168" y="758"/>
      <point x="161" y="762" type="curve"/>
      <point x="145" y="762" smooth="yes"/>
      <point x="21" y="742" smooth="yes"/>
      <point x="21" y="741" type="curve" smooth="yes"/>
      <point x="21" y="734" smooth="yes"/>
      <point x="21" y="704" smooth="yes"/>
      <point x="35" y="704" type="curve" smooth="yes"/>
      <point x="106" y="704" type="line"/>
      <point x="106" y="52" type="line"/>
      <point x="20" y="30" type="line"/>
      <point x="20" y="24" smooth="yes"/>
      <point x="20" y="0" smooth="yes"/>
      <point x="34" y="0" type="curve" smooth="yes"/>
      <point x="142" y="4" type="line"/>
    </contour>
  </outline>
</glyph>
<glyph name="m" format="1">
  <advance width="859"/>
  <unicode hex="006D"/>
  <outline>
    <contour>
      <point x="473" y="52" type="line" name="hr00"/>
      <point x="473" y="322" type="line" smooth="yes"/>
      <point x="473" y="406"/>
      <point x="437" y="468"/>
      <point x="342" y="468" type="curve"/>
      <point x="264" y="443"/>
      <point x="199" y="393"/>
      <point x="199" y="393" type="curve"/>
      <point x="187" y="446" smooth="yes"/>
      <point x="180" y="456" smooth="yes"/>
      <point x="168" y="456" type="curve" smooth="yes"/>
      <point x="151" y="456" smooth="yes"/>
      <point x="40" y="436" smooth="yes"/>
      <point x="40" y="435" type="curve" smooth="yes"/>
      <point x="40" y="428" smooth="yes"/>
      <point x="40" y="398" smooth="yes"/>
      <point x="54" y="398" type="curve" smooth="yes"/>
      <point x="128" y="398" type="line"/>
      <point x="128" y="52" type="line"/>
      <point x="40" y="30" type="line"/>
      <point x="40" y="24" smooth="yes"/>
      <point x="40" y="0" smooth="yes"/>
      <point x="54" y="0" type="curve" smooth="yes"/>
      <point x="166" y="4" type="line"/>
      <point x="259" y="0" type="line" smooth="yes"/>
      <point x="272" y="0"/>
      <point x="273" y="23"/>
      <point x="273" y="30" type="curve"/>
      <point x="199" y="52" type="line"/>
      <point x="199" y="294" type="line" smooth="yes"/>
      <point x="199" y="317"/>
      <point x="203" y="342"/>
      <point x="219" y="371" type="curve"/>
      <point x="260" y="400" smooth="yes"/>
      <point x="298" y="415" smooth="yes"/>
      <point x="331" y="415" type="curve" smooth="yes"/>
      <point x="373" y="415" smooth="yes"/>
      <point x="401" y="385" smooth="yes"/>
      <point x="401" y="319" type="curve" smooth="yes"/>
      <point x="401" y="52" type="line"/>
      <point x="327" y="30" type="line"/>
      <point x="327" y="23" smooth="yes"/>
      <point x="329" y="0" smooth="yes"/>
      <point x="342" y="0" type="curve" smooth="yes"/>
      <point x="436" y="4" type="line"/>
      <point x="532" y="0" type="line" smooth="yes"/>
      <point x="546" y="0"/>
      <point x="546" y="24"/>
      <point x="546" y="30" type="curve"/>
    </contour>
    <contour>
      <point x="456" y="380" type="curve"/>
      <point x="473" y="294" type="line"/>
      <point x="473" y="317"/>
      <point x="477" y="342"/>
      <point x="492" y="371" type="curve"/>
      <point x="533" y="400" smooth="yes"/>
      <point x="571" y="415" smooth="yes"/>
      <point x="604" y="415" type="curve" smooth="yes"/>
      <point x="646" y="415" smooth="yes"/>
      <point x="675" y="385" smooth="yes"/>
      <point x="675" y="319" type="curve" smooth="yes"/>
      <point x="675" y="52" type="line"/>
      <point x="601" y="30" type="line"/>
      <point x="601" y="23" smooth="yes"/>
      <point x="602" y="0" smooth="yes"/>
      <point x="615" y="0" type="curve" smooth="yes"/>
      <point x="709" y="4" type="line"/>
      <point x="820" y="0" type="line" smooth="yes"/>
      <point x="834" y="0"/>
      <point x="834" y="24"/>
      <point x="834" y="30" type="curve"/>
      <point x="746" y="52" type="line"/>
      <point x="746" y="322" type="line" smooth="yes"/>
      <point x="746" y="406"/>
      <point x="710" y="468"/>
      <point x="615" y="468" type="curve"/>
      <point x="529" y="439"/>
      <point x="456" y="380"/>
    </contour>
  </outline>
</glyph>
<glyph name="n" format="1">
  <advance width="596"/>
  <unicode hex="006E"/>
  <outline>
    <contour>
      <point x="485" y="52" type="line" name="hr00"/>
      <point x="485" y="322" type="line" smooth="yes"/>
      <point x="485" y="406"/>
      <point x="447" y="468"/>
      <point x="347" y="468" type="curve"/>
      <point x="266" y="443"/>
      <point x="197" y="393"/>
      <point x="197" y="393" type="curve"/>
      <point x="185" y="446" smooth="yes"/>
      <point x="178" y="456" smooth="yes"/>
      <point x="166" y="456" type="curve" smooth="yes"/>
      <point x="150" y="456" smooth="yes"/>
      <point x="40" y="436" smooth="yes"/>
      <point x="40" y="435" type="curve" smooth="yes"/>
      <point x="40" y="428" smooth="yes"/>
      <point x="40" y="398" smooth="yes"/>
      <point x="54" y="398" type="curve" smooth="yes"/>
      <point x="126" y="398" type="line"/>
      <point x="126" y="52" type="line"/>
      <point x="40" y="30" type="line"/>
      <point x="40" y="24" smooth="yes"/>
      <point x="40" y="0" smooth="yes"/>
      <point x="54" y="0" type="curve" smooth="yes"/>
      <point x="163" y="4" type="line"/>
      <point x="255" y="0" type="line"/>
      <point x="268" y="0"/>
      <point x="269" y="23"/>
      <point x="269" y="30" type="curve"/>
      <point x="197" y="52" type="line"/>
      <point x="197" y="294" type="line"/>
      <point x="197" y="317"/>
      <point x="201" y="342"/>
      <point x="216" y="371" type="curve"/>
      <point x="260" y="400" smooth="yes"/>
      <point x="302" y="415" smooth="yes"/>
      <point x="337" y="415" type="curve" smooth="yes"/>
      <point x="383" y="415" smooth="yes"/>
      <point x="414" y="385" smooth="yes"/>
      <point x="414" y="319" type="curve" smooth="yes"/>
      <point x="414" y="52" type="line"/>
      <point x="342" y="30" type="line"/>
      <point x="342" y="23" smooth="yes"/>
      <point x="343" y="0" smooth="yes"/>
      <point x="356" y="0" type="curve" smooth="yes"/>
      <point x="448" y="4" type="line"/>
      <point x="557" y="0" type="line"/>
      <point x="571" y="0"/>
      <point x="571" y="24"/>
      <point x="571" y="30" type="curve"/>
    </contour>
  </outline>
</glyph>
<glyph name="o" format="1">
  <advance width="522"/>
  <unicode hex="006F"/>
  <outline>
    <contour>
      <point x="482" y="236" type="curve" smooth="yes" name="hr00"/>
      <point x="482" y="391" smooth="yes"/>
      <point x="384" y="468" smooth="yes"/>
      <point x="265" y="468" type="curve" smooth="yes"/>
      <point x="141" y="468" smooth="yes"/>
      <point x="40" y="385" smooth="yes"/>
      <point x="40" y="230" type="curve" smooth="yes"/>
      <point x="40" y="68" smooth="yes"/>
      <point x="132" y="-12" smooth="yes"/>
      <point x="254" y="-12" type="curve" smooth="yes"/>
      <point x="386" y="-12" smooth="yes"/>
      <point x="482" y="69" smooth="yes"/>
    </contour>
    <contour>
      <point x="118" y="231" type="curve" smooth="yes"/>
      <point x="118" y="311"/>
      <point x="140" y="379"/>
      <point x="177" y="409" type="curve"/>
      <point x="198" y="418" smooth="yes"/>
      <point x="232" y="424" smooth="yes"/>
      <point x="261" y="424" type="curve" smooth="yes"/>
      <point x="342" y="424" smooth="yes"/>
      <point x="404" y="360" smooth="yes"/>
      <point x="404" y="231" type="curve" smooth="yes"/>
      <point x="404" y="97" smooth="yes"/>
      <point x="342" y="32" smooth="yes"/>
      <point x="261" y="32" type="curve" smooth="yes"/>
      <point x="180" y="32" smooth="yes"/>
      <point x="118" y="97" smooth="yes"/>
    </contour>
  </outline>
</glyph>
<glyph name="p" format="1">
  <advance width="562"/>
  <unicode hex="0070"/>
  <outline>
    <contour>
      <point x="224" y="44" type="curve" name="hr00"/>
      <point x="247" y="36" smooth="yes"/>
      <point x="267" y="31" smooth="yes"/>
      <point x="289" y="31" type="curve" smooth="yes"/>
      <point x="381" y="31" smooth="yes"/>
      <point x="444" y="87" smooth="yes"/>
      <point x="444" y="226" type="curve" smooth="yes"/>
      <point x="444" y="342" smooth="yes"/>
      <point x="389" y="409" smooth="yes"/>
      <point x="309" y="409" type="curve" smooth="yes"/>
      <point x="276" y="409"/>
      <point x="237" y="397"/>
      <point x="196" y="371" type="curve"/>
      <point x="180" y="335" smooth="yes"/>
      <point x="177" y="311" smooth="yes"/>
      <point x="177" y="256" type="curve" smooth="yes"/>
      <point x="177" y="-198" type="line"/>
      <point x="289" y="-220" type="line"/>
      <point x="289" y="-228"/>
      <point x="288" y="-251"/>
      <point x="275" y="-250" type="curve"/>
      <point x="143" y="-246" type="line"/>
      <point x="34" y="-250" type="line" smooth="yes"/>
      <point x="20" y="-251"/>
      <point x="20" y="-227"/>
      <point x="20" y="-220" type="curve"/>
      <point x="106" y="-198" type="line"/>
      <point x="106" y="398" type="line"/>
      <point x="35" y="398" type="line" smooth="yes"/>
      <point x="21" y="398" smooth="yes"/>
      <point x="21" y="428" smooth="yes"/>
      <point x="21" y="435" type="curve" smooth="yes"/>
      <point x="21" y="436" smooth="yes"/>
      <point x="128" y="456" smooth="yes"/>
      <point x="144" y="456" type="curve" smooth="yes"/>
      <point x="155" y="456"/>
      <point x="162" y="444"/>
      <point x="173" y="397" type="curve"/>
      <point x="174" y="396"/>
      <point x="176" y="394"/>
      <point x="177" y="393" type="curve"/>
      <point x="177" y="393"/>
      <point x="239" y="441"/>
      <point x="312" y="468" type="curve"/>
      <point x="428" y="468" smooth="yes"/>
      <point x="522" y="387" smooth="yes"/>
      <point x="522" y="228" type="curve" smooth="yes"/>
      <point x="522" y="58" smooth="yes"/>
      <point x="425" y="-12" smooth="yes"/>
      <point x="306" y="-12" type="curve" smooth="yes"/>
      <point x="276" y="-12"/>
      <point x="243" y="-7"/>
      <point x="209" y="11" type="curve"/>
      <point x="212" y="24"/>
      <point x="215" y="34"/>
    </contour>
  </outline>
</glyph>
<glyph name="q" format="1">
  <advance width="541"/>
  <unicode hex="0071"/>
  <outline>
    <contour>
      <point x="417" y="-246" type="curve"/>
      <point x="512" y="-250" smooth="yes"/>
      <point x="513" y="-250" smooth="yes"/>
      <point x="513" y="-250" type="curve" smooth="yes"/>
      <point x="525" y="-250"/>
      <point x="526" y="-227"/>
      <point x="526" y="-220" type="curve"/>
      <point x="454" y="-198" type="line"/>
      <point x="454" y="468" type="line"/>
      <point x="418" y="468" type="line"/>
      <point x="395" y="427" type="line"/>
      <point x="348" y="449" smooth="yes"/>
      <point x="296" y="462" smooth="yes"/>
      <point x="248" y="462" type="curve" smooth="yes" name="hr01"/>
      <point x="136" y="462" smooth="yes"/>
      <point x="40" y="394" smooth="yes"/>
      <point x="40" y="228" type="curve" smooth="yes"/>
      <point x="40" y="69"/>
      <point x="134" y="-12"/>
      <point x="250" y="-12" type="curve"/>
      <point x="304" y="7"/>
      <point x="359" y="36"/>
      <point x="383" y="50" type="curve"/>
      <point x="383" y="-198" type="line"/>
      <point x="271" y="-220" type="line"/>
      <point x="271" y="-227" smooth="yes"/>
      <point x="272" y="-250" smooth="yes"/>
      <point x="284" y="-250" type="curve" smooth="yes"/>
      <point x="284" y="-250"/>
      <point x="285" y="-250"/>
    </contour>
    <contour>
      <point x="118" y="230" type="curve" smooth="yes"/>
      <point x="118" y="359" smooth="yes"/>
      <point x="169" y="417" smooth="yes"/>
      <point x="262" y="417" type="curve" smooth="yes"/>
      <point x="296" y="417"/>
      <point x="336" y="409"/>
      <point x="383" y="394" type="curve"/>
      <point x="383" y="92" type="line"/>
      <point x="338" y="64" smooth="yes"/>
      <point x="286" y="48" smooth="yes"/>
      <point x="251" y="48" type="curve" smooth="yes"/>
      <point x="171" y="48" smooth="yes"/>
      <point x="118" y="114" smooth="yes"/>
    </contour>
  </outline>
</glyph>
<glyph name="r" format="1">
  <advance width="366"/>
  <unicode hex="0072"/>
  <outline>
    <contour>
      <point x="195" y="399" type="line" name="hr00"/>
      <point x="192" y="419" smooth="yes"/>
      <point x="185" y="456" smooth="yes"/>
      <point x="166" y="456" type="curve" smooth="yes"/>
      <point x="150" y="456" smooth="yes"/>
      <point x="40" y="436" smooth="yes"/>
      <point x="40" y="435" type="curve" smooth="yes"/>
      <point x="40" y="428" smooth="yes"/>
      <point x="40" y="398" smooth="yes"/>
      <point x="54" y="398" type="curve" smooth="yes"/>
      <point x="126" y="398" type="line"/>
      <point x="126" y="52" type="line"/>
      <point x="40" y="30" type="line"/>
      <point x="40" y="24" smooth="yes"/>
      <point x="40" y="-1" smooth="yes"/>
      <point x="54" y="0" type="curve" smooth="yes"/>
      <point x="163" y="4" type="line"/>
      <point x="295" y="0" type="line"/>
      <point x="308" y="-1"/>
      <point x="309" y="23"/>
      <point x="309" y="30" type="curve"/>
      <point x="197" y="52" type="line"/>
      <point x="197" y="243" type="line" smooth="yes"/>
      <point x="197" y="322"/>
      <point x="203" y="344"/>
      <point x="216" y="374" type="curve"/>
      <point x="313" y="380" smooth="yes"/>
      <point x="356" y="392" smooth="yes"/>
      <point x="356" y="408" type="curve" smooth="yes"/>
      <point x="356" y="443"/>
      <point x="333" y="469"/>
      <point x="333" y="469" type="curve"/>
      <point x="270" y="454"/>
      <point x="217" y="412"/>
      <point x="200" y="397" type="curve"/>
    </contour>
  </outline>
</glyph>
<glyph name="s" format="1">
  <advance width="420"/>
  <unicode hex="0073"/>
  <outline>
    <contour>
      <point x="296" y="406" type="curve" name="hr00"/>
      <point x="296" y="340" type="line" smooth="yes"/>
      <point x="296" y="326" smooth="yes"/>
      <point x="326" y="326" smooth="yes"/>
      <point x="333" y="326" type="curve" smooth="yes"/>
      <point x="334" y="326"/>
      <point x="354" y="428"/>
      <point x="354" y="444" type="curve"/>
      <point x="293" y="467" smooth="yes"/>
      <point x="226" y="468" smooth="yes"/>
      <point x="226" y="468" type="curve" smooth="yes"/>
      <point x="120" y="468" smooth="yes"/>
      <point x="66" y="410" smooth="yes"/>
      <point x="66" y="346" type="curve" smooth="yes"/>
      <point x="66" y="298" smooth="yes"/>
      <point x="90" y="260" smooth="yes"/>
      <point x="137" y="233" type="curve" smooth="yes"/>
      <point x="253" y="166" type="line" smooth="yes"/>
      <point x="291" y="144" smooth="yes"/>
      <point x="306" y="120" smooth="yes"/>
      <point x="306" y="96" type="curve" smooth="yes"/>
      <point x="306" y="48" smooth="yes"/>
      <point x="261" y="30" smooth="yes"/>
      <point x="211" y="30" type="curve" smooth="yes"/>
      <point x="173" y="30"/>
      <point x="133" y="41"/>
      <point x="108" y="59" type="curve"/>
      <point x="108" y="131" type="line" smooth="yes"/>
      <point x="108" y="145" smooth="yes"/>
      <point x="78" y="145" smooth="yes"/>
      <point x="71" y="145" type="curve" smooth="yes"/>
      <point x="70" y="145"/>
      <point x="50" y="30"/>
      <point x="50" y="14" type="curve"/>
      <point x="103" y="-4" smooth="yes"/>
      <point x="159" y="-12" smooth="yes"/>
      <point x="207" y="-12" type="curve" smooth="yes"/>
      <point x="305" y="-12" smooth="yes"/>
      <point x="372" y="29" smooth="yes"/>
      <point x="372" y="108" type="curve" smooth="yes"/>
      <point x="372" y="157" smooth="yes"/>
      <point x="345" y="194" smooth="yes"/>
      <point x="287" y="228" type="curve" smooth="yes"/>
      <point x="162" y="300" type="line" smooth="yes"/>
      <point x="136" y="315" smooth="yes"/>
      <point x="125" y="333" smooth="yes"/>
      <point x="125" y="357" type="curve" smooth="yes"/>
      <point x="125" y="365"/>
      <point x="126" y="381"/>
      <point x="129" y="390" type="curve"/>
      <point x="155" y="415" smooth="yes"/>
      <point x="189" y="424" smooth="yes"/>
      <point x="220" y="424" type="curve" smooth="yes"/>
      <point x="250" y="424"/>
      <point x="278" y="416"/>
    </contour>
  </outline>
</glyph>
<glyph name="t" format="1">
  <advance width="308"/>
  <unicode hex="0074"/>
  <outline>
    <contour>
      <point x="288" y="36" type="curve" name="hr00"/>
      <point x="285" y="50"/>
      <point x="280" y="58"/>
      <point x="271" y="66" type="curve"/>
      <point x="248" y="52" smooth="yes"/>
      <point x="219" y="38" smooth="yes"/>
      <point x="196" y="38" type="curve" smooth="yes"/>
      <point x="174" y="38" smooth="yes"/>
      <point x="157" y="51" smooth="yes"/>
      <point x="157" y="89" type="curve" smooth="yes"/>
      <point x="157" y="408" type="line"/>
      <point x="261" y="408" type="line" smooth="yes"/>
      <point x="275" y="408"/>
      <point x="275" y="449"/>
      <point x="275" y="456" type="curve"/>
      <point x="157" y="456" type="line"/>
      <point x="157" y="585" type="line"/>
      <point x="119" y="573" type="line"/>
      <point x="93" y="461" type="line"/>
      <point x="10" y="447" type="line"/>
      <point x="10" y="440" smooth="yes"/>
      <point x="10" y="408" smooth="yes"/>
      <point x="24" y="408" type="curve" smooth="yes"/>
      <point x="86" y="408" type="line"/>
      <point x="86" y="115" type="line" smooth="yes"/>
      <point x="86" y="15" smooth="yes"/>
      <point x="110" y="-12" smooth="yes"/>
      <point x="167" y="-12" type="curve" smooth="yes"/>
      <point x="205" y="-12"/>
      <point x="253" y="7"/>
    </contour>
  </outline>
</glyph>
<glyph name="u" format="1">
  <advance width="563"/>
  <unicode hex="0075"/>
  <outline>
    <contour>
      <point x="100" y="410" type="line" name="hr00"/>
      <point x="100" y="137" type="line" smooth="yes"/>
      <point x="100" y="51" smooth="yes"/>
      <point x="135" y="-12" smooth="yes"/>
      <point x="238" y="-12" type="curve" smooth="yes"/>
      <point x="248" y="-12"/>
      <point x="315" y="5"/>
      <point x="394" y="52" type="curve"/>
      <point x="402" y="6" smooth="yes"/>
      <point x="436" y="-12" smooth="yes"/>
      <point x="474" y="-12" type="curve" smooth="yes"/>
      <point x="498" y="-12"/>
      <point x="524" y="-4"/>
      <point x="545" y="9" type="curve"/>
      <point x="545" y="16"/>
      <point x="543" y="27"/>
      <point x="536" y="34" type="curve"/>
      <point x="524" y="32" smooth="yes"/>
      <point x="514" y="31" smooth="yes"/>
      <point x="506" y="31" type="curve" smooth="yes"/>
      <point x="474" y="31" smooth="yes"/>
      <point x="463" y="43" smooth="yes"/>
      <point x="463" y="67" type="curve" smooth="yes"/>
      <point x="463" y="440" type="line"/>
      <point x="463" y="455"/>
      <point x="454" y="464"/>
      <point x="447" y="468" type="curve"/>
      <point x="431" y="468" smooth="yes"/>
      <point x="307" y="448" smooth="yes"/>
      <point x="307" y="447" type="curve" smooth="yes"/>
      <point x="307" y="440" smooth="yes"/>
      <point x="307" y="410" smooth="yes"/>
      <point x="321" y="410" type="curve" smooth="yes"/>
      <point x="392" y="410" type="line"/>
      <point x="392" y="97" type="line"/>
      <point x="348" y="66" smooth="yes"/>
      <point x="295" y="41" smooth="yes"/>
      <point x="249" y="41" type="curve" smooth="yes"/>
      <point x="215" y="41" smooth="yes"/>
      <point x="171" y="60" smooth="yes"/>
      <point x="171" y="131" type="curve" smooth="yes"/>
      <point x="171" y="440" type="line"/>
      <point x="171" y="455"/>
      <point x="162" y="464"/>
      <point x="155" y="468" type="curve"/>
      <point x="139" y="468" smooth="yes"/>
      <point x="15" y="448" smooth="yes"/>
      <point x="15" y="447" type="curve" smooth="yes"/>
      <point x="15" y="440" smooth="yes"/>
      <point x="15" y="410" smooth="yes"/>
      <point x="29" y="410" type="curve" smooth="yes"/>
    </contour>
  </outline>
</glyph>
<glyph name="v" format="1">
  <advance width="438"/>
  <unicode hex="0076"/>
  <outline>
    <contour>
      <point x="240" y="0" type="line" name="hr00"/>
      <point x="381" y="404" type="line"/>
      <point x="428" y="426" type="line"/>
      <point x="428" y="433"/>
      <point x="426" y="456"/>
      <point x="414" y="456" type="curve"/>
      <point x="352" y="452" type="line"/>
      <point x="284" y="456" type="line"/>
      <point x="270" y="456"/>
      <point x="270" y="432"/>
      <point x="270" y="426" type="curve"/>
      <point x="332" y="406" type="line"/>
      <point x="222" y="83" type="line"/>
      <point x="107" y="406" type="line"/>
      <point x="169" y="426" type="line"/>
      <point x="169" y="432" smooth="yes"/>
      <point x="167" y="456" smooth="yes"/>
      <point x="155" y="456" type="curve" smooth="yes"/>
      <point x="82" y="452" type="line"/>
      <point x="4" y="456" type="line" smooth="yes"/>
      <point x="-7" y="456"/>
      <point x="-10" y="433"/>
      <point x="-10" y="426" type="curve"/>
      <point x="37" y="404" type="line"/>
      <point x="182" y="0" type="line"/>
    </contour>
  </outline>
</glyph>
<glyph name="w" format="1">
  <advance width="640"/>
  <unicode hex="0077"/>
  <outline>
    <contour>
      <point x="220" y="0" type="line" name="hr00"/>
      <point x="310" y="305" type="line"/>
      <point x="405" y="0" type="line"/>
      <point x="462" y="0" type="line"/>
      <point x="583" y="404" type="line"/>
      <point x="630" y="426" type="line"/>
      <point x="630" y="433"/>
      <point x="628" y="456"/>
      <point x="616" y="456" type="curve"/>
      <point x="554" y="452" type="line"/>
      <point x="486" y="456" type="line"/>
      <point x="472" y="456"/>
      <point x="472" y="432"/>
      <point x="472" y="426" type="curve"/>
      <point x="534" y="406" type="line"/>
      <point x="443" y="94" type="line"/>
      <point x="334" y="456" type="line"/>
      <point x="306" y="456" type="line"/>
      <point x="201" y="94" type="line"/>
      <point x="107" y="406" type="line"/>
      <point x="169" y="426" type="line"/>
      <point x="169" y="432" smooth="yes"/>
      <point x="167" y="456" smooth="yes"/>
      <point x="155" y="456" type="curve" smooth="yes"/>
      <point x="82" y="452" type="line"/>
      <point x="4" y="456" type="line" smooth="yes"/>
      <point x="-7" y="456"/>
      <point x="-10" y="433"/>
      <point x="-10" y="426" type="curve"/>
      <point x="37" y="404" type="line"/>
      <point x="162" y="0" type="line"/>
    </contour>
  </outline>
</glyph>
<glyph name="x" format="1">
  <advance width="506"/>
  <unicode hex="0078"/>
  <outline>
    <contour>
      <point x="171" y="406" type="line" name="hr00"/>
      <point x="233" y="426" type="line"/>
      <point x="233" y="432" smooth="yes"/>
      <point x="232" y="456" smooth="yes"/>
      <point x="219" y="456" type="curve" smooth="yes"/>
      <point x="125" y="452" type="line"/>
      <point x="38" y="456" type="line" smooth="yes"/>
      <point x="26" y="456"/>
      <point x="24" y="433"/>
      <point x="24" y="426" type="curve"/>
      <point x="91" y="404" type="line"/>
      <point x="216" y="222" type="line"/>
      <point x="87" y="52" type="line"/>
      <point x="15" y="30" type="line"/>
      <point x="15" y="23"/>
      <point x="16" y="0"/>
      <point x="29" y="0" type="curve"/>
      <point x="95" y="4" type="line"/>
      <point x="189" y="0" type="line"/>
      <point x="202" y="0"/>
      <point x="203" y="24"/>
      <point x="203" y="30" type="curve"/>
      <point x="141" y="50" type="line"/>
      <point x="242" y="184" type="line"/>
      <point x="334" y="50" type="line"/>
      <point x="272" y="30" type="line"/>
      <point x="272" y="24" smooth="yes"/>
      <point x="273" y="0" smooth="yes"/>
      <point x="286" y="0" type="curve" smooth="yes"/>
      <point x="380" y="4" type="line"/>
      <point x="472" y="0" type="line"/>
      <point x="485" y="0"/>
      <point x="486" y="23"/>
      <point x="486" y="30" type="curve"/>
      <point x="414" y="52" type="line"/>
      <point x="287" y="236" type="line"/>
      <point x="414" y="404" type="line"/>
      <point x="481" y="426" type="line"/>
      <point x="481" y="433"/>
      <point x="479" y="456"/>
      <point x="467" y="456" type="curve"/>
      <point x="380" y="452" type="line"/>
      <point x="312" y="456" type="line"/>
      <point x="298" y="456"/>
      <point x="298" y="432"/>
      <point x="298" y="426" type="curve"/>
      <point x="360" y="406" type="line"/>
      <point x="261" y="275" type="line"/>
    </contour>
  </outline>
</glyph>
<glyph name="y" format="1">
  <advance width="441"/>
  <unicode hex="0079"/>
  <outline>
    <contour>
      <point x="384" y="404" type="line" name="hr00"/>
      <point x="431" y="426" type="line"/>
      <point x="431" y="433" smooth="yes"/>
      <point x="429" y="456" smooth="yes"/>
      <point x="417" y="456" type="curve" smooth="yes"/>
      <point x="355" y="452" type="line"/>
      <point x="286" y="456" type="line" smooth="yes"/>
      <point x="273" y="456"/>
      <point x="273" y="431"/>
      <point x="273" y="426" type="curve"/>
      <point x="335" y="406" type="line"/>
      <point x="226" y="100" type="line"/>
      <point x="107" y="406" type="line"/>
      <point x="169" y="426" type="line"/>
      <point x="169" y="432" smooth="yes"/>
      <point x="167" y="456" smooth="yes"/>
      <point x="155" y="456" type="curve" smooth="yes"/>
      <point x="82" y="452" type="line"/>
      <point x="4" y="456" type="line" smooth="yes"/>
      <point x="-7" y="456"/>
      <point x="-10" y="433"/>
      <point x="-10" y="426" type="curve"/>
      <point x="37" y="404" type="line"/>
      <point x="191" y="7" type="line"/>
      <point x="148" y="-64"/>
      <point x="43" y="-241"/>
      <point x="42" y="-241" type="curve"/>
      <point x="67" y="-255" smooth="yes"/>
      <point x="85" y="-262" smooth="yes"/>
      <point x="99" y="-262" type="curve" smooth="yes"/>
      <point x="113" y="-262" smooth="yes"/>
      <point x="121" y="-255" smooth="yes"/>
      <point x="126" y="-243" type="curve" smooth="yes"/>
      <point x="236" y="0" type="line"/>
    </contour>
  </outline>
</glyph>
<glyph name="z" format="1">
  <advance width="469"/>
  <unicode hex="007A"/>
  <outline>
    <contour>
      <point x="404" y="-6" type="line" smooth="yes"/>
      <point x="419" y="-6"/>
      <point x="427" y="-5"/>
      <point x="428" y="6" type="curve"/>
      <point x="428" y="22" smooth="yes"/>
      <point x="408" y="137" smooth="yes"/>
      <point x="407" y="137" type="curve" smooth="yes"/>
      <point x="400" y="137" smooth="yes"/>
      <point x="370" y="137" smooth="yes"/>
      <point x="370" y="123" type="curve" smooth="yes"/>
      <point x="370" y="52" type="line"/>
      <point x="138" y="42" type="line"/>
      <point x="434" y="456" type="line"/>
      <point x="412" y="471" type="line"/>
      <point x="371" y="450" type="line"/>
      <point x="129" y="459" smooth="yes"/>
      <point x="89" y="459" smooth="yes"/>
      <point x="85" y="459" type="curve" smooth="yes" name="hr01"/>
      <point x="70" y="459"/>
      <point x="62" y="458"/>
      <point x="61" y="447" type="curve"/>
      <point x="61" y="431" smooth="yes"/>
      <point x="81" y="316" smooth="yes"/>
      <point x="82" y="316" type="curve" smooth="yes"/>
      <point x="89" y="316" smooth="yes"/>
      <point x="119" y="316" smooth="yes"/>
      <point x="119" y="330" type="curve" smooth="yes"/>
      <point x="119" y="409" type="line"/>
      <point x="322" y="409" type="line"/>
      <point x="30" y="1" type="line"/>
      <point x="48" y="-12" type="line" name="hr02"/>
      <point x="74" y="0" type="line"/>
    </contour>
  </outline>
</glyph>
<glyph name="braceright" format="1">
  <advance width="272"/>
  <unicode hex="007D"/>
  <outline>
    <contour>
      <point x="128" y="245" type="line"/>
      <point x="98" y="240" smooth="yes"/>
      <point x="71" y="226" smooth="yes"/>
      <point x="71" y="192" type="curve" smooth="yes"/>
      <point x="71" y="134"/>
      <point x="106" y="54"/>
      <point x="106" y="-182" type="curve" name="hr01"/>
      <point x="86" y="-182" smooth="yes"/>
      <point x="-12" y="-198" smooth="yes"/>
      <point x="-12" y="-199" type="curve" smooth="yes"/>
      <point x="-12" y="-207" smooth="yes"/>
      <point x="-12" y="-233" smooth="yes"/>
      <point x="5" y="-233" type="curve" smooth="yes"/>
      <point x="160" y="-233" type="line"/>
      <point x="166" y="-174" smooth="yes"/>
      <point x="174" y="-119" smooth="yes"/>
      <point x="174" y="-65" type="curve" smooth="yes"/>
      <point x="174" y="25"/>
      <point x="164" y="111"/>
      <point x="130" y="208" type="curve"/>
      <point x="230" y="235" type="line"/>
      <point x="230" y="262" type="line"/>
      <point x="130" y="289" type="line"/>
      <point x="164" y="386" smooth="yes"/>
      <point x="174" y="473" smooth="yes"/>
      <point x="174" y="563" type="curve" smooth="yes"/>
      <point x="174" y="617"/>
      <point x="168" y="672"/>
      <point x="160" y="731" type="curve"/>
      <point x="5" y="731" type="line" smooth="yes"/>
      <point x="-12" y="731" smooth="yes"/>
      <point x="-12" y="705" smooth="yes"/>
      <point x="-12" y="697" type="curve" smooth="yes"/>
      <point x="-12" y="696"/>
      <point x="86" y="680"/>
      <point x="106" y="680" type="curve"/>
      <point x="106" y="444" smooth="yes"/>
      <point x="71" y="363" smooth="yes"/>
      <point x="71" y="305" type="curve" smooth="yes" name="hr02"/>
      <point x="71" y="272"/>
      <point x="98" y="258"/>
      <point x="128" y="253" type="curve"/>
    </contour>
  </outline>
</glyph>
<glyph name="exclamdown" format="1">
  <advance width="257"/>
  <unicode hex="00A1"/>
  <outline>
    <contour>
      <point x="134" y="-239" type="line" name="hr00"/>
      <point x="180" y="23" type="line"/>
      <point x="153" y="284" type="line"/>
      <point x="120" y="284" type="line"/>
      <point x="78" y="-239" type="line"/>
    </contour>
    <contour>
      <point x="119" y="361" type="curve" smooth="yes"/>
      <point x="140" y="361"/>
      <point x="176" y="367"/>
      <point x="176" y="367" type="curve"/>
      <point x="176" y="367" smooth="yes"/>
      <point x="184" y="394" smooth="yes"/>
      <point x="184" y="419" type="curve" smooth="yes"/>
      <point x="184" y="444" smooth="yes"/>
      <point x="177" y="468" smooth="yes"/>
      <point x="147" y="468" type="curve" smooth="yes"/>
      <point x="125" y="468"/>
      <point x="90" y="460"/>
      <point x="90" y="460" type="curve"/>
      <point x="90" y="460" smooth="yes"/>
      <point x="83" y="434" smooth="yes"/>
      <point x="83" y="411" type="curve" smooth="yes"/>
      <point x="83" y="384" smooth="yes"/>
      <point x="92" y="361" smooth="yes"/>
    </contour>
  </outline>
</glyph>
<glyph name="cent" format="1">
  <advance width="510"/>
  <unicode hex="00A2"/>
  <outline>
    <contour>
      <point x="283" y="-35" type="line" name="hr00"/>
      <point x="288" y="38" type="line"/>
      <point x="334" y="38"/>
      <point x="384" y="45"/>
      <point x="438" y="81" type="curve"/>
      <point x="435" y="95"/>
      <point x="430" y="103"/>
      <point x="421" y="111" type="curve"/>
      <point x="381" y="92" smooth="yes"/>
      <point x="352" y="86" smooth="yes"/>
      <point x="318" y="86" type="curve" smooth="yes"/>
      <point x="309" y="86"/>
      <point x="300" y="86"/>
      <point x="291" y="88" type="curve"/>
      <point x="318" y="464" type="line"/>
      <point x="334" y="463"/>
      <point x="352" y="460"/>
      <point x="372" y="456" type="curve"/>
      <point x="368" y="383" type="line"/>
      <point x="368" y="371" smooth="yes"/>
      <point x="401" y="367" smooth="yes"/>
      <point x="408" y="367" type="curve" smooth="yes"/>
      <point x="409" y="367"/>
      <point x="435" y="479"/>
      <point x="437" y="493" type="curve"/>
      <point x="398" y="510"/>
      <point x="360" y="517"/>
      <point x="322" y="518" type="curve"/>
      <point x="326" y="574" type="line"/>
      <point x="286" y="574" type="line"/>
      <point x="282" y="516" type="line"/>
      <point x="173" y="502" smooth="yes"/>
      <point x="90" y="421" smooth="yes"/>
      <point x="90" y="280" type="curve" smooth="yes"/>
      <point x="90" y="143"/>
      <point x="155" y="64"/>
      <point x="248" y="44" type="curve"/>
      <point x="243" y="-35" type="line"/>
    </contour>
    <contour>
      <point x="168" y="281" type="curve" smooth="yes"/>
      <point x="168" y="389"/>
      <point x="202" y="450"/>
      <point x="278" y="462" type="curve"/>
      <point x="252" y="101" type="line"/>
      <point x="199" y="128" smooth="yes"/>
      <point x="168" y="190" smooth="yes"/>
    </contour>
  </outline>
</glyph>
<glyph name="sterling" format="1">
  <advance width="510"/>
  <unicode hex="00A3"/>
  <outline>
    <contour>
      <point x="62" y="263" type="line"/>
      <point x="129" y="263" type="line"/>
      <point x="132" y="247" smooth="yes"/>
      <point x="134" y="232" smooth="yes"/>
      <point x="134" y="216" type="curve" smooth="yes"/>
      <point x="134" y="163"/>
      <point x="114" y="105"/>
      <point x="45" y="32" type="curve"/>
      <point x="68" y="0" type="line"/>
      <point x="434" y="0" type="line" smooth="yes"/>
      <point x="451" y="0"/>
      <point x="456" y="5"/>
      <point x="458" y="14" type="curve"/>
      <point x="458" y="31" smooth="yes"/>
      <point x="436" y="163" smooth="yes"/>
      <point x="435" y="163" type="curve" smooth="yes"/>
      <point x="427" y="163" smooth="yes"/>
      <point x="394" y="163" smooth="yes"/>
      <point x="394" y="147" type="curve" smooth="yes"/>
      <point x="394" y="62" type="line"/>
      <point x="117" y="37" type="line"/>
      <point x="117" y="38" smooth="yes"/>
      <point x="116" y="40" smooth="yes"/>
      <point x="116" y="41" type="curve" smooth="yes"/>
      <point x="182" y="135" smooth="yes"/>
      <point x="198" y="192" smooth="yes"/>
      <point x="198" y="244" type="curve" smooth="yes"/>
      <point x="198" y="250"/>
      <point x="197" y="257"/>
      <point x="197" y="263" type="curve"/>
      <point x="348" y="263" type="line"/>
      <point x="348" y="300" type="line"/>
      <point x="192" y="300" type="line"/>
      <point x="186" y="333" smooth="yes"/>
      <point x="177" y="368" smooth="yes"/>
      <point x="177" y="415" type="curve" smooth="yes" name="hr01"/>
      <point x="177" y="466" smooth="yes"/>
      <point x="194" y="513" smooth="yes"/>
      <point x="261" y="513" type="curve" smooth="yes"/>
      <point x="294" y="513"/>
      <point x="328" y="503"/>
      <point x="354" y="487" type="curve"/>
      <point x="350" y="414" type="line"/>
      <point x="350" y="402" smooth="yes"/>
      <point x="383" y="398" smooth="yes"/>
      <point x="390" y="398" type="curve" smooth="yes"/>
      <point x="391" y="398"/>
      <point x="417" y="510"/>
      <point x="419" y="524" type="curve"/>
      <point x="385" y="542" smooth="yes"/>
      <point x="339" y="556" smooth="yes"/>
      <point x="292" y="561" type="curve" smooth="yes"/>
      <point x="280" y="562" smooth="yes"/>
      <point x="269" y="563" smooth="yes"/>
      <point x="257" y="563" type="curve" smooth="yes"/>
      <point x="168" y="563" smooth="yes"/>
      <point x="104" y="520" smooth="yes"/>
      <point x="104" y="414" type="curve" smooth="yes"/>
      <point x="104" y="373"/>
      <point x="113" y="336"/>
      <point x="122" y="300" type="curve"/>
      <point x="62" y="300" type="line"/>
    </contour>
  </outline>
</glyph>
<glyph name="currency" format="1">
  <advance width="552"/>
  <unicode hex="00A4"/>
  <outline>
    <contour>
      <point x="129" y="281" type="curve" smooth="yes" name="hr00"/>
      <point x="129" y="200" smooth="yes"/>
      <point x="195" y="134" smooth="yes"/>
      <point x="276" y="134" type="curve" smooth="yes"/>
      <point x="357" y="134" smooth="yes"/>
      <point x="422" y="200" smooth="yes"/>
      <point x="422" y="281" type="curve" smooth="yes"/>
      <point x="422" y="362" smooth="yes"/>
      <point x="357" y="427" smooth="yes"/>
      <point x="276" y="427" type="curve" smooth="yes"/>
      <point x="195" y="427" smooth="yes"/>
      <point x="129" y="362" smooth="yes"/>
    </contour>
    <contour>
      <point x="191" y="281" type="curve"/>
      <point x="191" y="328" smooth="yes"/>
      <point x="229" y="365" smooth="yes"/>
      <point x="276" y="365" type="curve" smooth="yes"/>
      <point x="323" y="365" smooth="yes"/>
      <point x="360" y="328" smooth="yes"/>
      <point x="360" y="281" type="curve" smooth="yes"/>
      <point x="360" y="234" smooth="yes"/>
      <point x="323" y="196" smooth="yes"/>
      <point x="276" y="196" type="curve" smooth="yes"/>
      <point x="229" y="196" smooth="yes"/>
      <point x="191" y="234" smooth="yes"/>
    </contour>
    <contour>
      <point x="183" y="335" type="line"/>
      <point x="220" y="372" type="line"/>
      <point x="117" y="476" type="line"/>
      <point x="79" y="438" type="line"/>
    </contour>
    <contour>
      <point x="362" y="230" type="line"/>
      <point x="325" y="193" type="line"/>
      <point x="428" y="89" type="line"/>
      <point x="466" y="127" type="line"/>
    </contour>
    <contour>
      <point x="220" y="193" type="line"/>
      <point x="183" y="230" type="line"/>
      <point x="79" y="127" type="line"/>
      <point x="117" y="89" type="line"/>
    </contour>
    <contour>
      <point x="325" y="372" type="line"/>
      <point x="362" y="335" type="line"/>
      <point x="473" y="445" type="line"/>
      <point x="435" y="483" type="line"/>
    </contour>
  </outline>
</glyph>
<glyph name="yen" format="1">
  <advance width="510"/>
  <unicode hex="00A5"/>
  <outline>
    <contour>
      <point x="416" y="216" type="line" name="hr00"/>
      <point x="295" y="216" type="line"/>
      <point x="295" y="223" type="line"/>
      <point x="315" y="263" type="line"/>
      <point x="416" y="263" type="line"/>
      <point x="416" y="300" type="line"/>
      <point x="334" y="300" type="line"/>
      <point x="437" y="499" type="line"/>
      <point x="484" y="521" type="line"/>
      <point x="484" y="528" smooth="yes"/>
      <point x="482" y="551" smooth="yes"/>
      <point x="470" y="551" type="curve" smooth="yes"/>
      <point x="449" y="550" smooth="yes"/>
      <point x="429" y="547" smooth="yes"/>
      <point x="408" y="547" type="curve" smooth="yes"/>
      <point x="385" y="547" smooth="yes"/>
      <point x="363" y="551" smooth="yes"/>
      <point x="340" y="551" type="curve" smooth="yes"/>
      <point x="326" y="551"/>
      <point x="326" y="527"/>
      <point x="326" y="521" type="curve"/>
      <point x="388" y="501" type="line"/>
      <point x="268" y="262" type="line"/>
      <point x="146" y="501" type="line"/>
      <point x="205" y="521" type="line"/>
      <point x="205" y="527"/>
      <point x="203" y="551"/>
      <point x="191" y="551" type="curve"/>
      <point x="167" y="549" smooth="yes"/>
      <point x="142" y="547" smooth="yes"/>
      <point x="118" y="547" type="curve" smooth="yes"/>
      <point x="92" y="547" smooth="yes"/>
      <point x="66" y="551" smooth="yes"/>
      <point x="40" y="551" type="curve" smooth="yes"/>
      <point x="29" y="551"/>
      <point x="26" y="528"/>
      <point x="26" y="521" type="curve"/>
      <point x="73" y="499" type="line"/>
      <point x="176" y="300" type="line"/>
      <point x="100" y="300" type="line"/>
      <point x="100" y="263" type="line"/>
      <point x="195" y="263" type="line"/>
      <point x="217" y="222" type="line"/>
      <point x="217" y="216" type="line"/>
      <point x="100" y="216" type="line"/>
      <point x="100" y="179" type="line"/>
      <point x="217" y="179" type="line"/>
      <point x="217" y="52" type="line"/>
      <point x="112" y="30" type="line"/>
      <point x="112" y="23" smooth="yes"/>
      <point x="112" y="0" smooth="yes"/>
      <point x="127" y="0" type="curve" smooth="yes"/>
      <point x="127" y="0"/>
      <point x="165" y="0"/>
      <point x="259" y="4" type="curve"/>
      <point x="352" y="0"/>
      <point x="385" y="0"/>
      <point x="385" y="0" type="curve"/>
      <point x="400" y="0"/>
      <point x="400" y="23"/>
      <point x="400" y="30" type="curve"/>
      <point x="295" y="52" type="line"/>
      <point x="295" y="179" type="line"/>
      <point x="416" y="179" type="line"/>
    </contour>
  </outline>
</glyph>
<glyph name="dieresis" format="1">
  <advance width="374"/>
  <unicode hex="00A8"/>
  <outline>
    <contour>
      <point x="117" y="656" type="curve" smooth="yes" name="hr00"/>
      <point x="100" y="656"/>
      <point x="71" y="650"/>
      <point x="71" y="650" type="curve"/>
      <point x="71" y="650" smooth="yes"/>
      <point x="64" y="623" smooth="yes"/>
      <point x="64" y="597" type="curve" smooth="yes"/>
      <point x="64" y="572" smooth="yes"/>
      <point x="70" y="547" smooth="yes"/>
      <point x="95" y="547" type="curve" smooth="yes"/>
      <point x="113" y="547"/>
      <point x="141" y="555"/>
      <point x="141" y="555" type="curve"/>
      <point x="141" y="555" smooth="yes"/>
      <point x="147" y="581" smooth="yes"/>
      <point x="147" y="606" type="curve" smooth="yes"/>
      <point x="147" y="632" smooth="yes"/>
      <point x="139" y="656" smooth="yes"/>
    </contour>
    <contour>
      <point x="285" y="656" type="curve" smooth="yes"/>
      <point x="268" y="656"/>
      <point x="239" y="650"/>
      <point x="239" y="650" type="curve"/>
      <point x="239" y="650" smooth="yes"/>
      <point x="232" y="623" smooth="yes"/>
      <point x="232" y="597" type="curve" smooth="yes"/>
      <point x="232" y="572" smooth="yes"/>
      <point x="238" y="547" smooth="yes"/>
      <point x="263" y="547" type="curve" smooth="yes"/>
      <point x="281" y="547"/>
      <point x="309" y="555"/>
      <point x="309" y="555" type="curve"/>
      <point x="309" y="555" smooth="yes"/>
      <point x="315" y="581" smooth="yes"/>
      <point x="315" y="606" type="curve" smooth="yes"/>
      <point x="315" y="632" smooth="yes"/>
      <point x="307" y="656" smooth="yes"/>
    </contour>
  </outline>
</glyph>
<glyph name="ordfeminine" format="1">
  <advance width="283"/>
  <unicode hex="00AA"/>
  <outline>
    <contour>
      <point x="174" y="459" type="line" name="hr00"/>
      <point x="151" y="443" smooth="yes"/>
      <point x="125" y="433" smooth="yes"/>
      <point x="102" y="433" type="curve" smooth="yes"/>
      <point x="80" y="433" smooth="yes"/>
      <point x="73" y="454" smooth="yes"/>
      <point x="73" y="475" type="curve" smooth="yes"/>
      <point x="73" y="482"/>
      <point x="74" y="490"/>
      <point x="76" y="497" type="curve"/>
      <point x="94" y="512"/>
      <point x="131" y="526"/>
      <point x="174" y="533" type="curve"/>
    </contour>
    <contour>
      <point x="174" y="560" type="line"/>
      <point x="60" y="556" smooth="yes"/>
      <point x="16" y="508" smooth="yes"/>
      <point x="16" y="464" type="curve" smooth="yes"/>
      <point x="16" y="428" smooth="yes"/>
      <point x="40" y="393" smooth="yes"/>
      <point x="83" y="393" type="curve" smooth="yes"/>
      <point x="96" y="393"/>
      <point x="134" y="406"/>
      <point x="177" y="427" type="curve"/>
      <point x="185" y="404" smooth="yes"/>
      <point x="206" y="393" smooth="yes"/>
      <point x="228" y="393" type="curve" smooth="yes"/>
      <point x="243" y="393"/>
      <point x="262" y="399"/>
      <point x="276" y="407" type="curve"/>
      <point x="276" y="414"/>
      <point x="273" y="423"/>
      <point x="268" y="428" type="curve"/>
      <point x="254" y="427" smooth="yes"/>
      <point x="250" y="427" smooth="yes"/>
      <point x="247" y="427" type="curve" smooth="yes"/>
      <point x="232" y="427" smooth="yes"/>
      <point x="227" y="432" smooth="yes"/>
      <point x="227" y="443" type="curve" smooth="yes"/>
      <point x="227" y="594" type="line" smooth="yes"/>
      <point x="227" y="646"/>
      <point x="199" y="684"/>
      <point x="131" y="684" type="curve"/>
      <point x="72" y="672"/>
      <point x="23" y="646"/>
      <point x="23" y="646" type="curve"/>
      <point x="25" y="634" smooth="yes"/>
      <point x="36" y="605" smooth="yes"/>
      <point x="53" y="605" type="curve" smooth="yes"/>
      <point x="72" y="605"/>
      <point x="95" y="630"/>
      <point x="117" y="654" type="curve"/>
      <point x="153" y="653" smooth="yes"/>
      <point x="174" y="626" smooth="yes"/>
      <point x="174" y="592" type="curve" smooth="yes"/>
    </contour>
    <contour>
      <point x="256" y="349" type="line"/>
      <point x="12" y="349" type="line"/>
      <point x="16" y="306" type="line"/>
      <point x="40" y="302" smooth="yes"/>
      <point x="76" y="298" smooth="yes"/>
      <point x="113" y="298" type="curve" smooth="yes"/>
      <point x="169" y="298"/>
      <point x="228" y="304"/>
      <point x="262" y="321" type="curve"/>
    </contour>
  </outline>
</glyph>
<glyph name="guillemotleft" format="1">
  <advance width="460"/>
  <unicode hex="00AB"/>
  <outline>
    <contour>
      <point x="30" y="213" type="line" name="hr00"/>
      <point x="218" y="10" type="line"/>
      <point x="247" y="34" type="line"/>
      <point x="117" y="227" type="line"/>
      <point x="247" y="420" type="line"/>
      <point x="218" y="444" type="line"/>
      <point x="30" y="241" type="line"/>
    </contour>
    <contour>
      <point x="193" y="213" type="line"/>
      <point x="381" y="10" type="line"/>
      <point x="410" y="34" type="line"/>
      <point x="280" y="227" type="line"/>
      <point x="410" y="420" type="line"/>
      <point x="381" y="444" type="line"/>
      <point x="193" y="241" type="line"/>
    </contour>
  </outline>
</glyph>
<glyph name="logicalnot" format="1">
  <advance width="510"/>
  <unicode hex="00AC"/>
  <outline>
    <contour>
      <point x="437" y="137" type="line" name="hr00"/>
      <point x="437" y="306" type="line"/>
      <point x="383" y="306" type="line"/>
      <point x="383" y="137" type="line"/>
    </contour>
    <component  base="minus"/>
  </outline>
</glyph>
<glyph name="registered" format="1">
  <advance width="626"/>
  <unicode hex="00AE"/>
  <outline>
    <contour>
      <point x="226" y="645" type="line" name="hr00"/>
      <point x="226" y="364" type="line"/>
      <point x="185" y="353" type="line"/>
      <point x="185" y="347" smooth="yes"/>
      <point x="185" y="328" smooth="yes"/>
      <point x="198" y="328" type="curve" smooth="yes"/>
      <point x="198" y="328"/>
      <point x="210" y="328"/>
      <point x="249" y="330" type="curve"/>
      <point x="294" y="328"/>
      <point x="310" y="328"/>
      <point x="310" y="328" type="curve"/>
      <point x="324" y="328"/>
      <point x="324" y="347"/>
      <point x="324" y="353" type="curve"/>
      <point x="275" y="364" type="line"/>
      <point x="279" y="475" type="line"/>
      <point x="291" y="477"/>
      <point x="304" y="479"/>
      <point x="316" y="481" type="curve"/>
      <point x="320" y="477" smooth="yes"/>
      <point x="324" y="471" smooth="yes"/>
      <point x="329" y="463" type="curve" smooth="yes"/>
      <point x="401" y="328" type="line"/>
      <point x="463" y="328" type="line" smooth="yes"/>
      <point x="477" y="328"/>
      <point x="477" y="347"/>
      <point x="477" y="353" type="curve"/>
      <point x="442" y="361" type="line"/>
      <point x="381" y="471" type="line"/>
      <point x="374" y="481"/>
      <point x="369" y="489"/>
      <point x="363" y="494" type="curve"/>
      <point x="404" y="513" smooth="yes"/>
      <point x="428" y="549" smooth="yes"/>
      <point x="428" y="581" type="curve" smooth="yes"/>
      <point x="428" y="634"/>
      <point x="391" y="681"/>
      <point x="323" y="681" type="curve"/>
      <point x="247" y="678" type="line"/>
      <point x="198" y="681" type="line" smooth="yes"/>
      <point x="185" y="682"/>
      <point x="185" y="659"/>
      <point x="185" y="655" type="curve"/>
    </contour>
    <contour>
      <point x="313" y="649" type="curve"/>
      <point x="359" y="648" smooth="yes"/>
      <point x="380" y="614" smooth="yes"/>
      <point x="380" y="582" type="curve" smooth="yes"/>
      <point x="380" y="537"/>
      <point x="350" y="512"/>
      <point x="280" y="512" type="curve"/>
      <point x="275" y="645" type="line"/>
      <point x="288" y="646"/>
      <point x="300" y="648"/>
    </contour>
    <contour>
      <point x="67" y="500" type="curve" smooth="yes"/>
      <point x="67" y="637" smooth="yes"/>
      <point x="176" y="746" smooth="yes"/>
      <point x="313" y="746" type="curve" smooth="yes"/>
      <point x="450" y="746" smooth="yes"/>
      <point x="559" y="637" smooth="yes"/>
      <point x="559" y="500" type="curve" smooth="yes"/>
      <point x="559" y="363" smooth="yes"/>
      <point x="450" y="254" smooth="yes"/>
      <point x="313" y="254" type="curve" smooth="yes"/>
      <point x="176" y="254" smooth="yes"/>
      <point x="67" y="363" smooth="yes"/>
    </contour>
    <contour>
      <point x="30" y="500" type="curve" smooth="yes"/>
      <point x="30" y="343" smooth="yes"/>
      <point x="156" y="217" smooth="yes"/>
      <point x="313" y="217" type="curve" smooth="yes"/>
      <point x="470" y="217" smooth="yes"/>
      <point x="596" y="343" smooth="yes"/>
      <point x="596" y="500" type="curve" smooth="yes"/>
      <point x="596" y="657" smooth="yes"/>
      <point x="470" y="783" smooth="yes"/>
      <point x="313" y="783" type="curve" smooth="yes"/>
      <point x="156" y="783" smooth="yes"/>
      <point x="30" y="657" smooth="yes"/>
    </contour>
  </outline>
</glyph>
<glyph name="macron" format="1">
  <advance width="421"/>
  <unicode hex="00AF"/>
  <outline>
    <contour>
      <point x="70" y="570" type="line" name="hr00"/>
      <point x="351" y="570" type="line"/>
      <point x="351" y="633" type="line"/>
      <point x="70" y="633" type="line"/>
    </contour>
  </outline>
</glyph>
<glyph name="degree" format="1">
  <advance width="318"/>
  <unicode hex="00B0"/>
  <outline>
    <contour>
      <point x="20" y="578" type="curve" smooth="yes" name="hr00"/>
      <point x="20" y="501" smooth="yes"/>
      <point x="82" y="439" smooth="yes"/>
      <point x="159" y="439" type="curve" smooth="yes"/>
      <point x="236" y="439" smooth="yes"/>
      <point x="298" y="501" smooth="yes"/>
      <point x="298" y="578" type="curve" smooth="yes"/>
      <point x="298" y="655" smooth="yes"/>
      <point x="236" y="717" smooth="yes"/>
      <point x="159" y="717" type="curve" smooth="yes"/>
      <point x="82" y="717" smooth="yes"/>
      <point x="20" y="655" smooth="yes"/>
    </contour>
    <contour>
      <point x="66" y="578" type="curve" smooth="yes"/>
      <point x="66" y="630" smooth="yes"/>
      <point x="107" y="670" smooth="yes"/>
      <point x="159" y="670" type="curve" smooth="yes"/>
      <point x="211" y="670" smooth="yes"/>
      <point x="251" y="630" smooth="yes"/>
      <point x="251" y="578" type="curve" smooth="yes"/>
      <point x="251" y="526" smooth="yes"/>
      <point x="211" y="485" smooth="yes"/>
      <point x="159" y="485" type="curve" smooth="yes"/>
      <point x="107" y="485" smooth="yes"/>
      <point x="66" y="526" smooth="yes"/>
    </contour>
  </outline>
</glyph>
<glyph name="twosuperior" format="1">
  <advance width="410"/>
  <unicode hex="00B2"/>
  <outline>
    <contour>
      <point x="338" y="500" type="curve" smooth="yes" name="hr00"/>
      <point x="338" y="585" smooth="yes"/>
      <point x="261" y="616" smooth="yes"/>
      <point x="189" y="616" type="curve" smooth="yes"/>
      <point x="143" y="616"/>
      <point x="93" y="605"/>
      <point x="59" y="588" type="curve"/>
      <point x="61" y="571"/>
      <point x="79" y="500"/>
      <point x="79" y="500" type="curve"/>
      <point x="86" y="500" smooth="yes"/>
      <point x="117" y="505" smooth="yes"/>
      <point x="117" y="515" type="curve" smooth="yes"/>
      <point x="115" y="558" type="line"/>
      <point x="137" y="568" smooth="yes"/>
      <point x="163" y="573" smooth="yes"/>
      <point x="188" y="573" type="curve" smooth="yes"/>
      <point x="231" y="573" smooth="yes"/>
      <point x="271" y="553" smooth="yes"/>
      <point x="271" y="500" type="curve" smooth="yes"/>
      <point x="271" y="431" smooth="yes"/>
      <point x="218" y="379" smooth="yes"/>
      <point x="174" y="340" type="curve" smooth="yes"/>
      <point x="32" y="212" type="line"/>
      <point x="52" y="185" type="line"/>
      <point x="338" y="185" type="line" smooth="yes"/>
      <point x="355" y="185" smooth="yes"/>
      <point x="358" y="190" smooth="yes"/>
      <point x="359" y="199" type="curve" smooth="yes"/>
      <point x="359" y="210" smooth="yes"/>
      <point x="339" y="297" smooth="yes"/>
      <point x="338" y="297" type="curve" smooth="yes"/>
      <point x="332" y="297" smooth="yes"/>
      <point x="306" y="297" smooth="yes"/>
      <point x="306" y="280" type="curve" smooth="yes"/>
      <point x="306" y="238" type="line"/>
      <point x="114" y="222" type="line"/>
      <point x="112" y="227" type="line"/>
      <point x="186" y="284" type="line" smooth="yes"/>
      <point x="263" y="343" smooth="yes"/>
      <point x="338" y="412" smooth="yes"/>
    </contour>
  </outline>
</glyph>
<glyph name="threesuperior" format="1">
  <advance width="410"/>
  <unicode hex="00B3"/>
  <outline>
    <contour>
      <point x="143" y="384" type="line"/>
      <point x="234" y="383" smooth="yes"/>
      <point x="284" y="345" smooth="yes"/>
      <point x="284" y="299" type="curve" smooth="yes"/>
      <point x="284" y="246" smooth="yes"/>
      <point x="238" y="220" smooth="yes"/>
      <point x="193" y="220" type="curve" smooth="yes"/>
      <point x="163" y="220"/>
      <point x="134" y="225"/>
      <point x="112" y="235" type="curve"/>
      <point x="114" y="278" type="line" smooth="yes"/>
      <point x="114" y="290" smooth="yes"/>
      <point x="88" y="293" smooth="yes"/>
      <point x="83" y="293" type="curve" smooth="yes"/>
      <point x="80" y="293"/>
      <point x="58" y="215"/>
      <point x="57" y="205" type="curve"/>
      <point x="94" y="189" smooth="yes"/>
      <point x="148" y="177" smooth="yes"/>
      <point x="196" y="177" type="curve" smooth="yes"/>
      <point x="274" y="177" smooth="yes"/>
      <point x="349" y="224" smooth="yes"/>
      <point x="349" y="302" type="curve" smooth="yes"/>
      <point x="349" y="347"/>
      <point x="317" y="392"/>
      <point x="259" y="409" type="curve"/>
      <point x="299" y="431" smooth="yes"/>
      <point x="331" y="468" smooth="yes"/>
      <point x="331" y="512" type="curve" smooth="yes" name="hr01"/>
      <point x="331" y="588" smooth="yes"/>
      <point x="261" y="616" smooth="yes"/>
      <point x="196" y="616" type="curve" smooth="yes"/>
      <point x="154" y="616"/>
      <point x="108" y="605"/>
      <point x="73" y="588" type="curve"/>
      <point x="75" y="580"/>
      <point x="93" y="500"/>
      <point x="93" y="500" type="curve"/>
      <point x="100" y="500" smooth="yes"/>
      <point x="132" y="505" smooth="yes"/>
      <point x="132" y="515" type="curve" smooth="yes"/>
      <point x="130" y="559" type="line"/>
      <point x="147" y="567" smooth="yes"/>
      <point x="170" y="573" smooth="yes"/>
      <point x="193" y="573" type="curve" smooth="yes"/>
      <point x="240" y="573" smooth="yes"/>
      <point x="266" y="547" smooth="yes"/>
      <point x="266" y="511" type="curve" smooth="yes"/>
      <point x="266" y="466"/>
      <point x="226" y="428"/>
      <point x="137" y="418" type="curve"/>
    </contour>
  </outline>
</glyph>
<glyph name="mu" format="1">
  <advance width="509"/>
  <unicode hex="00B5"/>
  <outline>
    <contour>
      <point x="138" y="-199" type="line" name="hr00"/>
      <point x="128" y="15" type="line"/>
      <point x="153" y="-2" smooth="yes"/>
      <point x="186" y="-12" smooth="yes"/>
      <point x="230" y="-12" type="curve" smooth="yes"/>
      <point x="238" y="-12"/>
      <point x="297" y="5"/>
      <point x="367" y="52" type="curve"/>
      <point x="375" y="6"/>
      <point x="409" y="-12"/>
      <point x="447" y="-12" type="curve"/>
      <point x="459" y="19" type="line"/>
      <point x="441" y="29" smooth="yes"/>
      <point x="436" y="47" smooth="yes"/>
      <point x="436" y="67" type="curve" smooth="yes"/>
      <point x="436" y="440" type="line" smooth="yes"/>
      <point x="436" y="455"/>
      <point x="427" y="464"/>
      <point x="420" y="468" type="curve"/>
      <point x="404" y="468" smooth="yes"/>
      <point x="280" y="448" smooth="yes"/>
      <point x="280" y="447" type="curve" smooth="yes"/>
      <point x="280" y="440" smooth="yes"/>
      <point x="280" y="410" smooth="yes"/>
      <point x="294" y="410" type="curve" smooth="yes"/>
      <point x="365" y="410" type="line"/>
      <point x="365" y="97" type="line"/>
      <point x="322" y="66" smooth="yes"/>
      <point x="271" y="47" smooth="yes"/>
      <point x="230" y="47" type="curve" smooth="yes"/>
      <point x="182" y="47" smooth="yes"/>
      <point x="144" y="72" smooth="yes"/>
      <point x="144" y="144" type="curve" smooth="yes"/>
      <point x="144" y="440" type="line" smooth="yes"/>
      <point x="144" y="455"/>
      <point x="135" y="464"/>
      <point x="128" y="468" type="curve"/>
      <point x="112" y="468" smooth="yes"/>
      <point x="10" y="448" smooth="yes"/>
      <point x="10" y="447" type="curve" smooth="yes"/>
      <point x="10" y="440" smooth="yes"/>
      <point x="10" y="410" smooth="yes"/>
      <point x="24" y="410" type="curve" smooth="yes"/>
      <point x="73" y="410" type="line"/>
      <point x="73" y="-199" type="line"/>
    </contour>
  </outline>
</glyph>
<glyph name="paragraph" format="1">
  <advance width="591"/>
  <unicode hex="00B6"/>
  <outline>
    <contour>
      <point x="328" y="642" type="line" name="hr00"/>
      <point x="328" y="0" type="line"/>
      <point x="161" y="0" type="line" smooth="yes"/>
      <point x="146" y="0"/>
      <point x="146" y="23"/>
      <point x="146" y="30" type="curve"/>
      <point x="257" y="48" type="line"/>
      <point x="257" y="302" type="line"/>
      <point x="142" y="304" smooth="yes"/>
      <point x="50" y="363" smooth="yes"/>
      <point x="50" y="501" type="curve" smooth="yes"/>
      <point x="50" y="667" smooth="yes"/>
      <point x="205" y="712" smooth="yes"/>
      <point x="342" y="712" type="curve" smooth="yes"/>
      <point x="452" y="712" smooth="yes"/>
      <point x="551" y="683" smooth="yes"/>
      <point x="551" y="679" type="curve" smooth="yes"/>
      <point x="551" y="672" smooth="yes"/>
      <point x="551" y="642" smooth="yes"/>
      <point x="537" y="642" type="curve" smooth="yes"/>
      <point x="466" y="642" type="line"/>
      <point x="466" y="0" type="line"/>
      <point x="395" y="0" type="line"/>
      <point x="395" y="642" type="line"/>
    </contour>
  </outline>
</glyph>
<glyph name="onesuperior" format="1">
  <advance width="410"/>
  <unicode hex="00B9"/>
  <outline>
    <contour>
      <point x="251" y="236" type="line" name="hr00"/>
      <point x="251" y="590" type="line"/>
      <point x="251" y="604"/>
      <point x="243" y="613"/>
      <point x="235" y="616" type="curve"/>
      <point x="221" y="616" smooth="yes"/>
      <point x="59" y="576" smooth="yes"/>
      <point x="59" y="575" type="curve" smooth="yes"/>
      <point x="59" y="569"/>
      <point x="70" y="536"/>
      <point x="85" y="536" type="curve"/>
      <point x="188" y="562" type="line"/>
      <point x="188" y="236" type="line"/>
      <point x="69" y="216" type="line"/>
      <point x="69" y="210"/>
      <point x="69" y="185"/>
      <point x="86" y="185" type="curve"/>
      <point x="211" y="188" type="line"/>
      <point x="325" y="185" type="line"/>
      <point x="343" y="185"/>
      <point x="343" y="210"/>
      <point x="343" y="216" type="curve"/>
    </contour>
  </outline>
</glyph>
<glyph name="ordmasculine" format="1">
  <advance width="301"/>
  <unicode hex="00BA"/>
  <outline>
    <contour>
      <point x="285" y="543" type="curve" smooth="yes" name="hr00"/>
      <point x="285" y="638" smooth="yes"/>
      <point x="224" y="684" smooth="yes"/>
      <point x="152" y="684" type="curve" smooth="yes"/>
      <point x="76" y="684" smooth="yes"/>
      <point x="13" y="634" smooth="yes"/>
      <point x="13" y="540" type="curve" smooth="yes"/>
      <point x="13" y="441" smooth="yes"/>
      <point x="70" y="393" smooth="yes"/>
      <point x="145" y="393" type="curve" smooth="yes"/>
      <point x="227" y="393" smooth="yes"/>
      <point x="285" y="441" smooth="yes"/>
    </contour>
    <contour>
      <point x="71" y="541" type="curve" smooth="yes"/>
      <point x="71" y="587"/>
      <point x="83" y="625"/>
      <point x="103" y="642" type="curve"/>
      <point x="115" y="647" smooth="yes"/>
      <point x="134" y="650" smooth="yes"/>
      <point x="150" y="650" type="curve" smooth="yes"/>
      <point x="194" y="650" smooth="yes"/>
      <point x="227" y="613" smooth="yes"/>
      <point x="227" y="541" type="curve" smooth="yes"/>
      <point x="227" y="464" smooth="yes"/>
      <point x="194" y="427" smooth="yes"/>
      <point x="150" y="427" type="curve" smooth="yes"/>
      <point x="104" y="427" smooth="yes"/>
      <point x="71" y="464" smooth="yes"/>
    </contour>
    <contour>
      <point x="269" y="349" type="line"/>
      <point x="25" y="349" type="line"/>
      <point x="29" y="306" type="line"/>
      <point x="53" y="302" smooth="yes"/>
      <point x="89" y="298" smooth="yes"/>
      <point x="126" y="298" type="curve" smooth="yes"/>
      <point x="182" y="298"/>
      <point x="241" y="304"/>
      <point x="275" y="321" type="curve"/>
    </contour>
  </outline>
</glyph>
<glyph name="guillemotright" format="1">
  <advance width="460"/>
  <unicode hex="00BB"/>
  <outline>
    <contour>
      <point x="430" y="241" type="line" name="hr00"/>
      <point x="242" y="444" type="line"/>
      <point x="213" y="420" type="line"/>
      <point x="343" y="227" type="line"/>
      <point x="213" y="34" type="line"/>
      <point x="242" y="10" type="line"/>
      <point x="430" y="213" type="line"/>
    </contour>
    <contour>
      <point x="267" y="241" type="line"/>
      <point x="79" y="444" type="line"/>
      <point x="50" y="420" type="line"/>
      <point x="180" y="227" type="line"/>
      <point x="50" y="34" type="line"/>
      <point x="79" y="10" type="line"/>
      <point x="267" y="213" type="line"/>
    </contour>
  </outline>
</glyph>
<glyph name="onequarter" format="1">
  <advance width="990"/>
  <unicode hex="00BC"/>
  <outline>
    <contour>
      <point x="845" y="45" type="line" name="hr00"/>
      <point x="845" y="92" type="line"/>
      <point x="914" y="92" type="line"/>
      <point x="914" y="132" type="line"/>
      <point x="845" y="132" type="line"/>
      <point x="845" y="267" type="line"/>
      <point x="845" y="280"/>
      <point x="845" y="288"/>
      <point x="836" y="293" type="curve"/>
      <point x="822" y="293"/>
      <point x="785" y="286"/>
      <point x="785" y="286" type="curve"/>
      <point x="785" y="132" type="line"/>
      <point x="643" y="132" type="line"/>
      <point x="774" y="421" type="line"/>
      <point x="714" y="439" type="line"/>
      <point x="593" y="139" smooth="yes"/>
      <point x="583" y="111" smooth="yes"/>
      <point x="583" y="108" type="curve" smooth="yes"/>
      <point x="583" y="95"/>
      <point x="593" y="92"/>
      <point x="607" y="92" type="curve"/>
      <point x="785" y="92" type="line"/>
      <point x="785" y="45" type="line"/>
      <point x="712" y="31" type="line"/>
      <point x="712" y="25" smooth="yes"/>
      <point x="712" y="0" smooth="yes"/>
      <point x="729" y="0" type="curve" smooth="yes"/>
      <point x="814" y="3" type="line"/>
      <point x="888" y="0" type="line"/>
      <point x="905" y="1"/>
      <point x="905" y="25"/>
      <point x="905" y="31" type="curve"/>
    </contour>
    <contour>
      <point x="251" y="183" type="line"/>
      <point x="251" y="537" type="line"/>
      <point x="251" y="551"/>
      <point x="243" y="560"/>
      <point x="235" y="563" type="curve"/>
      <point x="221" y="563" smooth="yes"/>
      <point x="59" y="523" smooth="yes"/>
      <point x="59" y="522" type="curve" smooth="yes"/>
      <point x="59" y="516"/>
      <point x="70" y="483"/>
      <point x="85" y="483" type="curve"/>
      <point x="188" y="509" type="line"/>
      <point x="188" y="183" type="line"/>
      <point x="69" y="163" type="line"/>
      <point x="69" y="157"/>
      <point x="69" y="132"/>
      <point x="86" y="132" type="curve"/>
      <point x="211" y="135" type="line"/>
      <point x="325" y="132" type="line"/>
      <point x="343" y="132"/>
      <point x="343" y="157"/>
      <point x="343" y="163" type="curve"/>
    </contour>
    <component  base="fraction" xOffset="323"/>
  </outline>
</glyph>
<glyph name="onehalf" format="1">
  <advance width="990"/>
  <unicode hex="00BD"/>
  <outline>
    <contour>
      <point x="903" y="315" type="curve" smooth="yes" name="hr00"/>
      <point x="903" y="400" smooth="yes"/>
      <point x="826" y="431" smooth="yes"/>
      <point x="754" y="431" type="curve" smooth="yes"/>
      <point x="708" y="431"/>
      <point x="658" y="420"/>
      <point x="624" y="403" type="curve"/>
      <point x="626" y="386"/>
      <point x="644" y="315"/>
      <point x="644" y="315" type="curve"/>
      <point x="651" y="315" smooth="yes"/>
      <point x="682" y="320" smooth="yes"/>
      <point x="682" y="330" type="curve" smooth="yes"/>
      <point x="680" y="373" type="line"/>
      <point x="702" y="383" smooth="yes"/>
      <point x="728" y="388" smooth="yes"/>
      <point x="753" y="388" type="curve" smooth="yes"/>
      <point x="796" y="388" smooth="yes"/>
      <point x="836" y="368" smooth="yes"/>
      <point x="836" y="315" type="curve" smooth="yes"/>
      <point x="836" y="246" smooth="yes"/>
      <point x="783" y="194" smooth="yes"/>
      <point x="739" y="155" type="curve" smooth="yes"/>
      <point x="597" y="27" type="line"/>
      <point x="617" y="0" type="line"/>
      <point x="903" y="0" type="line" smooth="yes"/>
      <point x="920" y="0" smooth="yes"/>
      <point x="923" y="5" smooth="yes"/>
      <point x="924" y="14" type="curve" smooth="yes"/>
      <point x="924" y="25" smooth="yes"/>
      <point x="904" y="112" smooth="yes"/>
      <point x="903" y="112" type="curve" smooth="yes"/>
      <point x="897" y="112" smooth="yes"/>
      <point x="871" y="112" smooth="yes"/>
      <point x="871" y="95" type="curve" smooth="yes"/>
      <point x="871" y="53" type="line"/>
      <point x="679" y="37" type="line"/>
      <point x="677" y="42" type="line"/>
      <point x="751" y="99" type="line" smooth="yes"/>
      <point x="828" y="158" smooth="yes"/>
      <point x="903" y="227" smooth="yes"/>
    </contour>
    <contour>
      <point x="251" y="183" type="line"/>
      <point x="251" y="537" type="line"/>
      <point x="251" y="551"/>
      <point x="243" y="560"/>
      <point x="235" y="563" type="curve"/>
      <point x="221" y="563" smooth="yes"/>
      <point x="59" y="523" smooth="yes"/>
      <point x="59" y="522" type="curve" smooth="yes"/>
      <point x="59" y="516"/>
      <point x="70" y="483"/>
      <point x="85" y="483" type="curve"/>
      <point x="188" y="509" type="line"/>
      <point x="188" y="183" type="line"/>
      <point x="69" y="163" type="line"/>
      <point x="69" y="157"/>
      <point x="69" y="132"/>
      <point x="86" y="132" type="curve"/>
      <point x="211" y="135" type="line"/>
      <point x="325" y="132" type="line"/>
      <point x="343" y="132"/>
      <point x="343" y="157"/>
      <point x="343" y="163" type="curve"/>
    </contour>
    <component  base="fraction" xOffset="323"/>
  </outline>
</glyph>
<glyph name="threequarters" format="1">
  <advance width="990"/>
  <unicode hex="00BE"/>
  <outline>
    <contour>
      <point x="845" y="45" type="line"/>
      <point x="845" y="92" type="line"/>
      <point x="914" y="92" type="line"/>
      <point x="914" y="132" type="line"/>
      <point x="845" y="132" type="line"/>
      <point x="845" y="267" type="line"/>
      <point x="845" y="280"/>
      <point x="845" y="288"/>
      <point x="836" y="293" type="curve"/>
      <point x="822" y="293"/>
      <point x="785" y="286"/>
      <point x="785" y="286" type="curve"/>
      <point x="785" y="132" type="line"/>
      <point x="643" y="132" type="line"/>
      <point x="774" y="421" type="line"/>
      <point x="714" y="439" type="line"/>
      <point x="593" y="139" smooth="yes"/>
      <point x="583" y="111" smooth="yes"/>
      <point x="583" y="108" type="curve" smooth="yes"/>
      <point x="583" y="95"/>
      <point x="593" y="92"/>
      <point x="607" y="92" type="curve"/>
      <point x="785" y="92" type="line"/>
      <point x="785" y="45" type="line"/>
      <point x="712" y="31" type="line"/>
      <point x="712" y="25" smooth="yes"/>
      <point x="712" y="0" smooth="yes"/>
      <point x="729" y="0" type="curve" smooth="yes"/>
      <point x="814" y="3" type="line"/>
      <point x="888" y="0" type="line"/>
      <point x="905" y="1"/>
      <point x="905" y="25"/>
      <point x="905" y="31" type="curve"/>
    </contour>
    <contour>
      <point x="143" y="331" type="line"/>
      <point x="234" y="330" smooth="yes"/>
      <point x="284" y="292" smooth="yes"/>
      <point x="284" y="246" type="curve" smooth="yes"/>
      <point x="284" y="193" smooth="yes"/>
      <point x="238" y="167" smooth="yes"/>
      <point x="193" y="167" type="curve" smooth="yes" name="hr01"/>
      <point x="163" y="167"/>
      <point x="134" y="172"/>
      <point x="112" y="182" type="curve"/>
      <point x="114" y="225" type="line" smooth="yes"/>
      <point x="114" y="237" smooth="yes"/>
      <point x="88" y="240" smooth="yes"/>
      <point x="83" y="240" type="curve" smooth="yes"/>
      <point x="80" y="240"/>
      <point x="58" y="162"/>
      <point x="57" y="152" type="curve"/>
      <point x="94" y="136" smooth="yes"/>
      <point x="148" y="124" smooth="yes"/>
      <point x="196" y="124" type="curve" smooth="yes"/>
      <point x="274" y="124" smooth="yes"/>
      <point x="349" y="171" smooth="yes"/>
      <point x="349" y="249" type="curve" smooth="yes"/>
      <point x="349" y="294"/>
      <point x="317" y="339"/>
      <point x="259" y="356" type="curve"/>
      <point x="299" y="378" smooth="yes"/>
      <point x="331" y="415" smooth="yes"/>
      <point x="331" y="459" type="curve" smooth="yes" name="hr02"/>
      <point x="331" y="535" smooth="yes"/>
      <point x="261" y="563" smooth="yes"/>
      <point x="196" y="563" type="curve" smooth="yes"/>
      <point x="154" y="563"/>
      <point x="108" y="552"/>
      <point x="73" y="535" type="curve"/>
      <point x="75" y="527"/>
      <point x="93" y="447"/>
      <point x="93" y="447" type="curve"/>
      <point x="100" y="447" smooth="yes"/>
      <point x="132" y="452" smooth="yes"/>
      <point x="132" y="462" type="curve" smooth="yes"/>
      <point x="130" y="506" type="line"/>
      <point x="147" y="514" smooth="yes"/>
      <point x="170" y="520" smooth="yes"/>
      <point x="193" y="520" type="curve" smooth="yes"/>
      <point x="240" y="520" smooth="yes"/>
      <point x="266" y="494" smooth="yes"/>
      <point x="266" y="458" type="curve" smooth="yes"/>
      <point x="266" y="413"/>
      <point x="226" y="375"/>
      <point x="137" y="365" type="curve"/>
    </contour>
    <component  base="fraction" xOffset="323"/>
  </outline>
</glyph>
<glyph name="AE" format="1">
  <advance width="865"/>
  <unicode hex="00C6"/>
  <outline>
    <contour>
      <point x="320" y="655" type="line" name="hr00"/>
      <point x="62" y="52" type="line"/>
      <point x="-13" y="30" type="line"/>
      <point x="-13" y="23" smooth="yes"/>
      <point x="-13" y="0" smooth="yes"/>
      <point x="2" y="0" type="curve" smooth="yes"/>
      <point x="2" y="0"/>
      <point x="6" y="0"/>
      <point x="93" y="4" type="curve"/>
      <point x="201" y="0"/>
      <point x="204" y="0"/>
      <point x="204" y="0" type="curve"/>
      <point x="219" y="0"/>
      <point x="219" y="22"/>
      <point x="219" y="30" type="curve"/>
      <point x="124" y="52" type="line"/>
      <point x="192" y="217" type="line"/>
      <point x="443" y="229" type="line"/>
      <point x="481" y="52" type="line"/>
      <point x="391" y="30" type="line"/>
      <point x="391" y="22"/>
      <point x="391" y="0"/>
      <point x="406" y="0" type="curve"/>
      <point x="485" y="5" type="line" smooth="yes"/>
      <point x="498" y="6"/>
      <point x="512" y="7"/>
      <point x="525" y="8" type="curve"/>
      <point x="808" y="0" type="line" smooth="yes"/>
      <point x="833" y="-1" smooth="yes"/>
      <point x="841" y="0" smooth="yes"/>
      <point x="842" y="12" type="curve" smooth="yes"/>
      <point x="850" y="163" type="line"/>
      <point x="843" y="163"/>
      <point x="808" y="163"/>
      <point x="808" y="149" type="curve"/>
      <point x="782" y="55" type="line"/>
      <point x="561" y="55" type="line"/>
      <point x="502" y="325" type="line"/>
      <point x="772" y="339" type="line"/>
      <point x="772" y="382" type="line"/>
      <point x="490" y="382" type="line"/>
      <point x="432" y="646" type="line"/>
      <point x="530" y="647"/>
      <point x="627" y="648"/>
      <point x="725" y="649" type="curve"/>
      <point x="725" y="555" type="line" smooth="yes"/>
      <point x="725" y="541"/>
      <point x="760" y="541"/>
      <point x="768" y="541" type="curve"/>
      <point x="792" y="690" type="line"/>
      <point x="791" y="700" smooth="yes"/>
      <point x="778" y="700" smooth="yes"/>
      <point x="760" y="700" type="curve" smooth="yes"/>
      <point x="422" y="696" type="line" smooth="yes"/>
      <point x="408" y="696" smooth="yes"/>
      <point x="394" y="695" smooth="yes"/>
      <point x="380" y="696" type="curve" smooth="yes"/>
      <point x="277" y="700" type="line" smooth="yes"/>
      <point x="262" y="700"/>
      <point x="262" y="676"/>
      <point x="262" y="670" type="curve"/>
    </contour>
    <contour>
      <point x="359" y="622" type="line"/>
      <point x="434" y="273" type="line"/>
      <point x="215" y="273" type="line"/>
    </contour>
  </outline>
</glyph>
<glyph name="Eth" format="1">
  <advance width="748"/>
  <unicode hex="00D0"/>
  <outline>
    <contour>
      <point x="67" y="324" type="line"/>
      <point x="403" y="339" type="line"/>
      <point x="403" y="382" type="line"/>
      <point x="67" y="382" type="line"/>
    </contour>
    <contour>
      <point x="67" y="324" type="line"/>
      <point x="403" y="339" type="line"/>
      <point x="403" y="382" type="line"/>
      <point x="67" y="382" type="line"/>
    </contour>
    <component  base="D"/>
    <component  base="ethbar" xOffset="19"/>
  </outline>
</glyph>
<glyph name="Oslash" format="1">
  <advance width="727"/>
  <unicode hex="00D8"/>
  <outline>
    <contour>
      <point x="170" y="-50" type="line"/>
      <point x="224" y="-50" type="line"/>
      <point x="557" y="750" type="line"/>
      <point x="503" y="750" type="line"/>
    </contour>
    <component  base="O" xOffset="-10"/>
    <component  base="slash" xOffset="200"/>
  </outline>
</glyph>
<glyph name="Thorn" format="1">
  <advance width="562"/>
  <unicode hex="00DE"/>
  <outline>
    <contour>
      <point x="136" y="648" type="line" name="hr00"/>
      <point x="131" y="350" type="line"/>
      <point x="136" y="52" type="line"/>
      <point x="50" y="30" type="line"/>
      <point x="50" y="23" smooth="yes"/>
      <point x="50" y="0" smooth="yes"/>
      <point x="65" y="0" type="curve" smooth="yes"/>
      <point x="65" y="0"/>
      <point x="83" y="0"/>
      <point x="177" y="4" type="curve"/>
      <point x="270" y="0"/>
      <point x="280" y="0"/>
      <point x="280" y="0" type="curve"/>
      <point x="295" y="0"/>
      <point x="295" y="23"/>
      <point x="295" y="30" type="curve"/>
      <point x="209" y="52" type="line"/>
      <point x="211" y="157" type="line"/>
      <point x="281" y="161" type="line" smooth="yes"/>
      <point x="451" y="171" smooth="yes"/>
      <point x="532" y="269" smooth="yes"/>
      <point x="532" y="373" type="curve" smooth="yes"/>
      <point x="532" y="486"/>
      <point x="455" y="576"/>
      <point x="325" y="576" type="curve"/>
      <point x="210" y="573" type="line"/>
      <point x="210" y="598"/>
      <point x="209" y="623"/>
      <point x="209" y="648" type="curve"/>
      <point x="295" y="670" type="line"/>
      <point x="295" y="677" smooth="yes"/>
      <point x="295" y="700" smooth="yes"/>
      <point x="280" y="700" type="curve" smooth="yes"/>
      <point x="280" y="700"/>
      <point x="270" y="700"/>
      <point x="177" y="696" type="curve"/>
      <point x="83" y="700"/>
      <point x="65" y="700"/>
      <point x="65" y="700" type="curve"/>
      <point x="50" y="700"/>
      <point x="50" y="677"/>
      <point x="50" y="670" type="curve"/>
    </contour>
    <contour>
      <point x="307" y="534" type="line"/>
      <point x="413" y="534" smooth="yes"/>
      <point x="460" y="454" smooth="yes"/>
      <point x="460" y="374" type="curve" smooth="yes"/>
      <point x="460" y="292" smooth="yes"/>
      <point x="410" y="203" smooth="yes"/>
      <point x="289" y="203" type="curve" smooth="yes"/>
      <point x="276" y="203" smooth="yes"/>
      <point x="263" y="204" smooth="yes"/>
      <point x="250" y="205" type="curve" smooth="yes"/>
      <point x="212" y="208" type="line"/>
      <point x="214" y="350" type="line"/>
      <point x="211" y="524" type="line"/>
    </contour>
  </outline>
</glyph>
<glyph name="germandbls" format="1">
  <advance width="606"/>
  <unicode hex="00DF"/>
  <outline>
    <contour>
      <point x="41" y="448" type="line"/>
      <point x="41" y="441" smooth="yes"/>
      <point x="41" y="409" smooth="yes"/>
      <point x="55" y="409" type="curve" smooth="yes"/>
      <point x="116" y="409" type="line"/>
      <point x="116" y="52" type="line"/>
      <point x="30" y="30" type="line"/>
      <point x="30" y="24" smooth="yes"/>
      <point x="30" y="0" smooth="yes"/>
      <point x="44" y="0" type="curve" smooth="yes"/>
      <point x="187" y="5" type="line"/>
      <point x="187" y="456" type="line" smooth="yes"/>
      <point x="187" y="504" smooth="yes"/>
      <point x="180" y="566" smooth="yes"/>
      <point x="180" y="618" type="curve" smooth="yes"/>
      <point x="180" y="672"/>
      <point x="219" y="717"/>
      <point x="253" y="722" type="curve"/>
      <point x="333" y="722" smooth="yes"/>
      <point x="407" y="683" smooth="yes"/>
      <point x="407" y="614" type="curve" smooth="yes"/>
      <point x="407" y="542" smooth="yes"/>
      <point x="280" y="431" smooth="yes"/>
      <point x="280" y="346" type="curve" smooth="yes"/>
      <point x="280" y="298" smooth="yes"/>
      <point x="304" y="260" smooth="yes"/>
      <point x="351" y="233" type="curve" smooth="yes"/>
      <point x="467" y="166" type="line" smooth="yes"/>
      <point x="503" y="145" smooth="yes"/>
      <point x="517" y="121" smooth="yes"/>
      <point x="517" y="97" type="curve" smooth="yes" name="hr01"/>
      <point x="517" y="50" smooth="yes"/>
      <point x="477" y="33" smooth="yes"/>
      <point x="427" y="33" type="curve" smooth="yes"/>
      <point x="385" y="33"/>
      <point x="351" y="40"/>
      <point x="322" y="57" type="curve"/>
      <point x="322" y="131" type="line" smooth="yes"/>
      <point x="322" y="145" smooth="yes"/>
      <point x="292" y="145" smooth="yes"/>
      <point x="285" y="145" type="curve" smooth="yes"/>
      <point x="284" y="145"/>
      <point x="264" y="30"/>
      <point x="264" y="14" type="curve"/>
      <point x="317" y="-4" smooth="yes"/>
      <point x="373" y="-12" smooth="yes"/>
      <point x="421" y="-12" type="curve" smooth="yes"/>
      <point x="519" y="-12" smooth="yes"/>
      <point x="586" y="29" smooth="yes"/>
      <point x="586" y="108" type="curve" smooth="yes"/>
      <point x="586" y="149" smooth="yes"/>
      <point x="559" y="193" smooth="yes"/>
      <point x="501" y="227" type="curve" smooth="yes"/>
      <point x="376" y="300" type="line" smooth="yes"/>
      <point x="350" y="315" smooth="yes"/>
      <point x="339" y="333" smooth="yes"/>
      <point x="339" y="357" type="curve" smooth="yes"/>
      <point x="339" y="427" smooth="yes"/>
      <point x="476" y="534" smooth="yes"/>
      <point x="476" y="614" type="curve" smooth="yes" name="hr02"/>
      <point x="476" y="694"/>
      <point x="417" y="758"/>
      <point x="243" y="758" type="curve"/>
      <point x="135" y="718"/>
      <point x="116" y="606"/>
      <point x="116" y="460" type="curve"/>
    </contour>
  </outline>
</glyph>
<glyph name="ae" format="1">
  <advance width="731"/>
  <unicode hex="00E6"/>
  <outline>
    <contour>
      <point x="209" y="430" type="curve" name="hr00"/>
      <point x="277" y="430" smooth="yes"/>
      <point x="318" y="382" smooth="yes"/>
      <point x="318" y="319" type="curve" smooth="yes"/>
      <point x="318" y="261" type="line"/>
      <point x="123" y="257" smooth="yes"/>
      <point x="50" y="175" smooth="yes"/>
      <point x="50" y="102" type="curve" smooth="yes"/>
      <point x="50" y="45" smooth="yes"/>
      <point x="86" y="-12" smooth="yes"/>
      <point x="153" y="-12" type="curve" smooth="yes"/>
      <point x="194" y="-12"/>
      <point x="256" y="-1"/>
      <point x="353" y="66" type="curve"/>
      <point x="392" y="13" smooth="yes"/>
      <point x="454" y="-12" smooth="yes"/>
      <point x="528" y="-12" type="curve" smooth="yes"/>
      <point x="573" y="-12"/>
      <point x="623" y="-4"/>
      <point x="677" y="31" type="curve"/>
      <point x="674" y="45"/>
      <point x="669" y="53"/>
      <point x="660" y="61" type="curve"/>
      <point x="619" y="44" smooth="yes"/>
      <point x="580" y="36" smooth="yes"/>
      <point x="545" y="36" type="curve" smooth="yes"/>
      <point x="452" y="36"/>
      <point x="389" y="91"/>
      <point x="389" y="224" type="curve"/>
      <point x="506" y="221"/>
      <point x="604" y="227"/>
      <point x="706" y="245" type="curve"/>
      <point x="706" y="359" smooth="yes"/>
      <point x="664" y="468" smooth="yes"/>
      <point x="551" y="468" type="curve" smooth="yes"/>
      <point x="477" y="468"/>
      <point x="416" y="442"/>
      <point x="374" y="395" type="curve"/>
      <point x="358" y="428" smooth="yes"/>
      <point x="329" y="453" smooth="yes"/>
      <point x="285" y="463" type="curve" smooth="yes"/>
      <point x="270" y="466"/>
      <point x="255" y="468"/>
      <point x="237" y="468" type="curve"/>
      <point x="144" y="450"/>
      <point x="64" y="406"/>
      <point x="64" y="406" type="curve"/>
      <point x="66" y="390" smooth="yes"/>
      <point x="81" y="348" smooth="yes"/>
      <point x="103" y="348" type="curve" smooth="yes"/>
      <point x="136" y="348"/>
      <point x="189" y="407"/>
    </contour>
    <contour>
      <point x="318" y="91" type="line"/>
      <point x="275" y="62" smooth="yes"/>
      <point x="226" y="44" smooth="yes"/>
      <point x="187" y="44" type="curve" smooth="yes"/>
      <point x="142" y="44" smooth="yes"/>
      <point x="126" y="81" smooth="yes"/>
      <point x="126" y="120" type="curve" smooth="yes"/>
      <point x="126" y="133"/>
      <point x="128" y="148"/>
      <point x="131" y="160" type="curve"/>
      <point x="164" y="189"/>
      <point x="230" y="213"/>
      <point x="318" y="224" type="curve"/>
    </contour>
    <contour>
      <point x="475" y="415" type="curve"/>
      <point x="492" y="419" smooth="yes"/>
      <point x="508" y="420" smooth="yes"/>
      <point x="523" y="420" type="curve" smooth="yes"/>
      <point x="591" y="420" smooth="yes"/>
      <point x="625" y="380" smooth="yes"/>
      <point x="625" y="317" type="curve" smooth="yes"/>
      <point x="625" y="306"/>
      <point x="624" y="295"/>
      <point x="622" y="283" type="curve"/>
      <point x="546" y="269"/>
      <point x="469" y="263"/>
      <point x="392" y="262" type="curve"/>
      <point x="402" y="334"/>
      <point x="432" y="386"/>
    </contour>
  </outline>
</glyph>
<glyph name="eth" format="1">
  <advance width="522"/>
  <unicode hex="00F0"/>
  <outline>
    <contour>
      <point x="161" y="518" type="line" name="hr00"/>
      <point x="263" y="576" type="line"/>
      <point x="304" y="536"/>
      <point x="338" y="491"/>
      <point x="364" y="441" type="curve"/>
      <point x="336" y="459" smooth="yes"/>
      <point x="303" y="468" smooth="yes"/>
      <point x="265" y="468" type="curve" smooth="yes"/>
      <point x="141" y="468" smooth="yes"/>
      <point x="40" y="385" smooth="yes"/>
      <point x="40" y="230" type="curve" smooth="yes"/>
      <point x="40" y="68" smooth="yes"/>
      <point x="132" y="-12" smooth="yes"/>
      <point x="254" y="-12" type="curve" smooth="yes"/>
      <point x="386" y="-12" smooth="yes"/>
      <point x="482" y="69" smooth="yes"/>
      <point x="482" y="236" type="curve" smooth="yes"/>
      <point x="482" y="391"/>
      <point x="404" y="513"/>
      <point x="310" y="602" type="curve"/>
      <point x="409" y="659" type="line"/>
      <point x="390" y="695" type="line"/>
      <point x="273" y="635" type="line"/>
      <point x="225" y="675"/>
      <point x="175" y="707"/>
      <point x="131" y="731" type="curve"/>
      <point x="109" y="693" type="line"/>
      <point x="149" y="669"/>
      <point x="188" y="642"/>
      <point x="225" y="611" type="curve"/>
      <point x="136" y="566" type="line"/>
    </contour>
    <contour>
      <point x="118" y="231" type="curve" smooth="yes"/>
      <point x="118" y="311"/>
      <point x="140" y="379"/>
      <point x="178" y="409" type="curve"/>
      <point x="199" y="418" smooth="yes"/>
      <point x="234" y="424" smooth="yes"/>
      <point x="263" y="424" type="curve" smooth="yes"/>
      <point x="345" y="424" smooth="yes"/>
      <point x="405" y="360" smooth="yes"/>
      <point x="405" y="231" type="curve" smooth="yes"/>
      <point x="405" y="97" smooth="yes"/>
      <point x="345" y="32" smooth="yes"/>
      <point x="263" y="32" type="curve" smooth="yes"/>
      <point x="181" y="32" smooth="yes"/>
      <point x="118" y="97" smooth="yes"/>
    </contour>
  </outline>
</glyph>
<glyph name="thorn" format="1">
  <advance width="562"/>
  <unicode hex="00FE"/>
  <outline>
    <contour>
      <point x="209" y="11" type="curve" name="hr00"/>
      <point x="221" y="45" type="line"/>
      <point x="246" y="36" smooth="yes"/>
      <point x="267" y="31" smooth="yes"/>
      <point x="289" y="31" type="curve" smooth="yes"/>
      <point x="381" y="31" smooth="yes"/>
      <point x="444" y="87" smooth="yes"/>
      <point x="444" y="226" type="curve" smooth="yes"/>
      <point x="444" y="342" smooth="yes"/>
      <point x="389" y="409" smooth="yes"/>
      <point x="309" y="409" type="curve" smooth="yes"/>
      <point x="276" y="409"/>
      <point x="237" y="397"/>
      <point x="196" y="371" type="curve"/>
      <point x="182" y="340" smooth="yes"/>
      <point x="177" y="318" smooth="yes"/>
      <point x="177" y="279" type="curve" smooth="yes"/>
      <point x="177" y="-198" type="line"/>
      <point x="289" y="-220" type="line"/>
      <point x="289" y="-228"/>
      <point x="288" y="-251"/>
      <point x="275" y="-250" type="curve"/>
      <point x="143" y="-246" type="line"/>
      <point x="34" y="-250" type="line" smooth="yes"/>
      <point x="20" y="-251"/>
      <point x="20" y="-227"/>
      <point x="20" y="-220" type="curve"/>
      <point x="106" y="-198" type="line"/>
      <point x="106" y="704" type="line"/>
      <point x="32" y="704" type="line" smooth="yes"/>
      <point x="18" y="704" smooth="yes"/>
      <point x="18" y="734" smooth="yes"/>
      <point x="18" y="741" type="curve" smooth="yes"/>
      <point x="18" y="742"/>
      <point x="145" y="762"/>
      <point x="161" y="762" type="curve"/>
      <point x="168" y="758" smooth="yes"/>
      <point x="177" y="749" smooth="yes"/>
      <point x="177" y="734" type="curve" smooth="yes"/>
      <point x="176" y="622"/>
      <point x="174" y="509"/>
      <point x="173" y="397" type="curve"/>
      <point x="174" y="396"/>
      <point x="176" y="394"/>
      <point x="177" y="393" type="curve"/>
      <point x="177" y="393"/>
      <point x="239" y="441"/>
      <point x="312" y="468" type="curve"/>
      <point x="428" y="468" smooth="yes"/>
      <point x="522" y="387" smooth="yes"/>
      <point x="522" y="228" type="curve" smooth="yes"/>
      <point x="522" y="58" smooth="yes"/>
      <point x="425" y="-12" smooth="yes"/>
      <point x="306" y="-12" type="curve" smooth="yes"/>
      <point x="276" y="-12"/>
      <point x="243" y="-7"/>
    </contour>
  </outline>
</glyph>
<glyph name="dcroat" format="1">
  <advance width="552"/>
  <unicode hex="0111"/>
  <outline>
    <contour>
      <point x="522" y="612" type="line"/>
      <point x="186" y="612" type="line"/>
      <point x="186" y="569" type="line"/>
      <point x="522" y="554" type="line"/>
    </contour>
    <component  base="d"/>
  </outline>
</glyph>
<glyph name="hbar" format="1">
  <advance width="578"/>
  <unicode hex="0127"/>
  <outline>
    <contour>
      <point x="34" y="554" type="line"/>
      <point x="370" y="569" type="line"/>
      <point x="370" y="612" type="line"/>
      <point x="34" y="612" type="line"/>
    </contour>
    <component  base="h"/>
  </outline>
</glyph>
<glyph name="dotlessi" format="1">
  <advance width="303"/>
  <unicode hex="0131"/>
  <outline>
    <contour>
      <point x="197" y="52" type="line" name="hr00"/>
      <point x="197" y="440" type="line" smooth="yes"/>
      <point x="197" y="455"/>
      <point x="188" y="464"/>
      <point x="181" y="468" type="curve"/>
      <point x="165" y="468" smooth="yes"/>
      <point x="41" y="448" smooth="yes"/>
      <point x="41" y="447" type="curve" smooth="yes"/>
      <point x="41" y="440" smooth="yes"/>
      <point x="41" y="410" smooth="yes"/>
      <point x="55" y="410" type="curve" smooth="yes"/>
      <point x="126" y="410" type="line"/>
      <point x="126" y="52" type="line"/>
      <point x="40" y="30" type="line"/>
      <point x="40" y="24" smooth="yes"/>
      <point x="40" y="0" smooth="yes"/>
      <point x="54" y="0" type="curve" smooth="yes"/>
      <point x="162" y="4" type="line"/>
      <point x="269" y="0" type="line" smooth="yes"/>
      <point x="283" y="0"/>
      <point x="283" y="24"/>
      <point x="283" y="30" type="curve"/>
    </contour>
  </outline>
</glyph>
<glyph name="kgreenlandic" format="1">
  <advance width="511"/>
  <unicode hex="0138"/>
  <outline>
    <contour>
      <point x="163" y="4" type="line" name="hr00"/>
      <point x="255" y="0" type="line" smooth="yes"/>
      <point x="268" y="-1"/>
      <point x="269" y="23"/>
      <point x="269" y="30" type="curve"/>
      <point x="197" y="52" type="line"/>
      <point x="197" y="217" type="line"/>
      <point x="232" y="221" type="line"/>
      <point x="396" y="0" type="line"/>
      <point x="511" y="0" type="line" smooth="yes"/>
      <point x="524" y="0"/>
      <point x="525" y="23"/>
      <point x="525" y="30" type="curve"/>
      <point x="442" y="52" type="line"/>
      <point x="295" y="245" type="line"/>
      <point x="417" y="404" type="line"/>
      <point x="484" y="426" type="line"/>
      <point x="484" y="433" smooth="yes"/>
      <point x="482" y="456" smooth="yes"/>
      <point x="470" y="456" type="curve" smooth="yes"/>
      <point x="370" y="452" type="line"/>
      <point x="302" y="456" type="line" smooth="yes"/>
      <point x="288" y="457"/>
      <point x="288" y="431"/>
      <point x="288" y="426" type="curve"/>
      <point x="350" y="406" type="line"/>
      <point x="253" y="261" type="line"/>
      <point x="197" y="261" type="line"/>
      <point x="197" y="440" type="line" smooth="yes"/>
      <point x="197" y="455"/>
      <point x="188" y="464"/>
      <point x="181" y="468" type="curve"/>
      <point x="165" y="468" smooth="yes"/>
      <point x="41" y="448" smooth="yes"/>
      <point x="41" y="447" type="curve" smooth="yes"/>
      <point x="41" y="440" smooth="yes"/>
      <point x="41" y="410" smooth="yes"/>
      <point x="55" y="410" type="curve" smooth="yes"/>
      <point x="126" y="410" type="line"/>
      <point x="126" y="52" type="line"/>
      <point x="40" y="30" type="line"/>
      <point x="40" y="24" smooth="yes"/>
      <point x="40" y="-1" smooth="yes"/>
      <point x="54" y="0" type="curve" smooth="yes"/>
    </contour>
  </outline>
</glyph>
<glyph name="lslash" format="1">
  <advance width="283"/>
  <unicode hex="0142"/>
  <outline>
    <contour>
      <point x="20" y="280" type="line" name="hr00"/>
      <point x="283" y="431" type="line"/>
      <point x="264" y="469" type="line"/>
      <point x="-6" y="332" type="line"/>
    </contour>
    <component  base="l"/>
  </outline>
</glyph>
<glyph name="Eng" format="1">
  <advance width="790"/>
  <unicode hex="014A"/>
  <outline>
    <contour>
      <point x="615" y="648" type="line" name="hr00"/>
      <point x="621" y="126" type="line"/>
      <point x="200" y="696" type="line"/>
      <point x="77" y="700"/>
      <point x="65" y="700"/>
      <point x="65" y="700" type="curve"/>
      <point x="50" y="700"/>
      <point x="50" y="676"/>
      <point x="50" y="669" type="curve"/>
      <point x="132" y="647" type="line"/>
      <point x="132" y="52" type="line"/>
      <point x="50" y="30" type="line"/>
      <point x="50" y="23" smooth="yes"/>
      <point x="50" y="0" smooth="yes"/>
      <point x="65" y="0" type="curve" smooth="yes"/>
      <point x="65" y="0"/>
      <point x="76" y="0"/>
      <point x="163" y="4" type="curve"/>
      <point x="284" y="0" type="line"/>
      <point x="300" y="0"/>
      <point x="300" y="22"/>
      <point x="300" y="30" type="curve"/>
      <point x="194" y="52" type="line"/>
      <point x="186" y="583" type="line"/>
      <point x="616" y="0" type="line"/>
      <point x="672" y="136" type="line"/>
      <point x="675" y="648" type="line"/>
      <point x="750" y="670" type="line"/>
      <point x="750" y="677" smooth="yes"/>
      <point x="750" y="700" smooth="yes"/>
      <point x="735" y="700" type="curve" smooth="yes"/>
      <point x="735" y="700"/>
      <point x="734" y="700"/>
      <point x="647" y="696" type="curve"/>
      <point x="526" y="700" type="line"/>
      <point x="510" y="700"/>
      <point x="510" y="678"/>
      <point x="510" y="670" type="curve"/>
    </contour>
    <contour>
      <point x="594" y="109" type="line" smooth="yes"/>
      <point x="594" y="-11" smooth="yes"/>
      <point x="539" y="-125" smooth="yes"/>
      <point x="457" y="-233" type="curve" smooth="yes"/>
      <point x="487" y="-254" type="line"/>
      <point x="599" y="-130"/>
      <point x="672" y="-2"/>
      <point x="672" y="136" type="curve"/>
    </contour>
  </outline>
</glyph>
<glyph name="OE" format="1">
  <advance width="956"/>
  <unicode hex="0152"/>
  <outline>
    <contour>
      <point x="828" y="555" type="line" smooth="yes"/>
      <point x="828" y="541"/>
      <point x="863" y="541"/>
      <point x="871" y="541" type="curve"/>
      <point x="895" y="690" type="line"/>
      <point x="894" y="700" smooth="yes"/>
      <point x="881" y="700" smooth="yes"/>
      <point x="863" y="700" type="curve" smooth="yes"/>
      <point x="523" y="696" type="line"/>
      <point x="467" y="705" smooth="yes"/>
      <point x="412" y="712" smooth="yes"/>
      <point x="355" y="712" type="curve" smooth="yes" name="hr01"/>
      <point x="178" y="712" smooth="yes"/>
      <point x="40" y="594" smooth="yes"/>
      <point x="40" y="341" type="curve" smooth="yes"/>
      <point x="40" y="98" smooth="yes"/>
      <point x="179" y="-12" smooth="yes"/>
      <point x="361" y="-12" type="curve" smooth="yes"/>
      <point x="412" y="-12"/>
      <point x="472" y="-4"/>
      <point x="525" y="8" type="curve"/>
      <point x="869" y="0" type="line" smooth="yes" name="hr02"/>
      <point x="889" y="-1" smooth="yes"/>
      <point x="897" y="1" smooth="yes"/>
      <point x="898" y="12" type="curve" smooth="yes"/>
      <point x="906" y="163" type="line"/>
      <point x="899" y="163"/>
      <point x="864" y="163"/>
      <point x="864" y="149" type="curve"/>
      <point x="838" y="55" type="line"/>
      <point x="563" y="55" type="line"/>
      <point x="572" y="326" type="line"/>
      <point x="828" y="339" type="line"/>
      <point x="828" y="382" type="line"/>
      <point x="572" y="382" type="line"/>
      <point x="563" y="646" type="line"/>
      <point x="828" y="649" type="line"/>
    </contour>
    <contour>
      <point x="375" y="36" type="curve" smooth="yes" name="hr03"/>
      <point x="235" y="36" smooth="yes"/>
      <point x="128" y="141" smooth="yes"/>
      <point x="128" y="355" type="curve" smooth="yes"/>
      <point x="128" y="484"/>
      <point x="167" y="591"/>
      <point x="230" y="639" type="curve"/>
      <point x="276" y="655" smooth="yes"/>
      <point x="318" y="661" smooth="yes"/>
      <point x="360" y="661" type="curve" smooth="yes"/>
      <point x="403" y="661"/>
      <point x="445" y="654"/>
      <point x="489" y="643" type="curve"/>
      <point x="489" y="57" type="line"/>
      <point x="448" y="43" smooth="yes"/>
      <point x="413" y="36" smooth="yes"/>
    </contour>
  </outline>
</glyph>
<glyph name="oe" format="1">
  <advance width="834"/>
  <unicode hex="0153"/>
  <outline>
    <contour>
      <point x="644" y="468" type="curve" smooth="yes" name="hr00"/>
      <point x="558" y="468"/>
      <point x="490" y="433"/>
      <point x="448" y="371" type="curve"/>
      <point x="410" y="435" smooth="yes"/>
      <point x="342" y="468" smooth="yes"/>
      <point x="265" y="468" type="curve" smooth="yes"/>
      <point x="141" y="468" smooth="yes"/>
      <point x="40" y="385" smooth="yes"/>
      <point x="40" y="230" type="curve" smooth="yes"/>
      <point x="40" y="68" smooth="yes"/>
      <point x="132" y="-12" smooth="yes"/>
      <point x="254" y="-12" type="curve" smooth="yes"/>
      <point x="333" y="-12"/>
      <point x="399" y="16"/>
      <point x="439" y="75" type="curve"/>
      <point x="477" y="17" smooth="yes"/>
      <point x="543" y="-12" smooth="yes"/>
      <point x="621" y="-12" type="curve" smooth="yes"/>
      <point x="666" y="-12"/>
      <point x="716" y="-4"/>
      <point x="770" y="31" type="curve"/>
      <point x="767" y="45"/>
      <point x="762" y="53"/>
      <point x="753" y="61" type="curve"/>
      <point x="712" y="44" smooth="yes"/>
      <point x="673" y="36" smooth="yes"/>
      <point x="638" y="36" type="curve" smooth="yes"/>
      <point x="543" y="36"/>
      <point x="482" y="100"/>
      <point x="482" y="224" type="curve"/>
      <point x="599" y="221"/>
      <point x="697" y="229"/>
      <point x="799" y="245" type="curve"/>
      <point x="799" y="359" smooth="yes"/>
      <point x="757" y="468" smooth="yes"/>
    </contour>
    <contour>
      <point x="118" y="231" type="curve" smooth="yes"/>
      <point x="118" y="311"/>
      <point x="140" y="379"/>
      <point x="177" y="409" type="curve"/>
      <point x="198" y="418" smooth="yes"/>
      <point x="232" y="424" smooth="yes"/>
      <point x="261" y="424" type="curve" smooth="yes"/>
      <point x="342" y="424" smooth="yes"/>
      <point x="404" y="360" smooth="yes"/>
      <point x="404" y="231" type="curve" smooth="yes"/>
      <point x="404" y="97" smooth="yes"/>
      <point x="342" y="32" smooth="yes"/>
      <point x="261" y="32" type="curve" smooth="yes"/>
      <point x="180" y="32" smooth="yes"/>
      <point x="118" y="97" smooth="yes"/>
    </contour>
    <contour>
      <point x="568" y="415" type="curve"/>
      <point x="585" y="419" smooth="yes"/>
      <point x="601" y="420" smooth="yes"/>
      <point x="616" y="420" type="curve" smooth="yes"/>
      <point x="684" y="420" smooth="yes"/>
      <point x="718" y="380" smooth="yes"/>
      <point x="718" y="317" type="curve" smooth="yes"/>
      <point x="718" y="306"/>
      <point x="717" y="295"/>
      <point x="715" y="283" type="curve"/>
      <point x="639" y="269"/>
      <point x="562" y="263"/>
      <point x="485" y="262" type="curve"/>
      <point x="495" y="334"/>
      <point x="525" y="386"/>
    </contour>
  </outline>
</glyph>
<glyph name="Scaron" format="1">
  <advance width="534"/>
  <unicode hex="0160"/>
  <outline>
    <contour>
      <point x="494" y="170" type="curve" smooth="yes" name="hr00"/>
      <point x="494" y="227" smooth="yes"/>
      <point x="454" y="292" smooth="yes"/>
      <point x="376" y="337" type="curve" smooth="yes"/>
      <point x="204" y="435" type="line" smooth="yes"/>
      <point x="166" y="457" smooth="yes"/>
      <point x="129" y="490" smooth="yes"/>
      <point x="129" y="547" type="curve" smooth="yes"/>
      <point x="129" y="559"/>
      <point x="130" y="573"/>
      <point x="134" y="587" type="curve"/>
      <point x="168" y="642" smooth="yes"/>
      <point x="226" y="662" smooth="yes"/>
      <point x="282" y="662" type="curve" smooth="yes"/>
      <point x="324" y="662"/>
      <point x="365" y="650"/>
      <point x="393" y="637" type="curve"/>
      <point x="393" y="536" type="line" smooth="yes"/>
      <point x="393" y="522"/>
      <point x="427" y="522"/>
      <point x="435" y="522" type="curve"/>
      <point x="461" y="676" type="line"/>
      <point x="405" y="697" smooth="yes"/>
      <point x="346" y="712" smooth="yes"/>
      <point x="288" y="712" type="curve" smooth="yes"/>
      <point x="140" y="712" smooth="yes"/>
      <point x="59" y="622" smooth="yes"/>
      <point x="59" y="528" type="curve" smooth="yes"/>
      <point x="59" y="468" smooth="yes"/>
      <point x="92" y="407" smooth="yes"/>
      <point x="161" y="368" type="curve" smooth="yes"/>
      <point x="338" y="267" type="line" smooth="yes"/>
      <point x="394" y="235" smooth="yes"/>
      <point x="409" y="190" smooth="yes"/>
      <point x="409" y="157" type="curve" smooth="yes"/>
      <point x="409" y="92" smooth="yes"/>
      <point x="366" y="36" smooth="yes"/>
      <point x="266" y="36" type="curve" smooth="yes"/>
      <point x="215" y="36"/>
      <point x="153" y="51"/>
      <point x="111" y="78" type="curve"/>
      <point x="111" y="189" type="line" smooth="yes"/>
      <point x="111" y="201" smooth="yes"/>
      <point x="76" y="201" smooth="yes"/>
      <point x="68" y="201" type="curve" smooth="yes"/>
      <point x="67" y="201"/>
      <point x="50" y="79"/>
      <point x="45" y="36" type="curve"/>
      <point x="122" y="3" smooth="yes"/>
      <point x="191" y="-12" smooth="yes"/>
      <point x="258" y="-12" type="curve" smooth="yes"/>
      <point x="392" y="-12" smooth="yes"/>
      <point x="494" y="51" smooth="yes"/>
    </contour>
    <component  base="caron" xOffset="119" yOffset="244"/>
  </outline>
</glyph>
<glyph name="florin" format="1">
  <advance width="510"/>
  <unicode hex="0192"/>
  <outline>
    <contour>
      <point x="97" y="263" type="line" name="hr00"/>
      <point x="192" y="263" type="line"/>
      <point x="192" y="-31" type="line" smooth="yes"/>
      <point x="192" y="-103" smooth="yes"/>
      <point x="194" y="-186" smooth="yes"/>
      <point x="128" y="-186" type="curve" smooth="yes"/>
      <point x="101" y="-186"/>
      <point x="70" y="-177"/>
      <point x="48" y="-163" type="curve"/>
      <point x="30" y="-202" type="line"/>
      <point x="55" y="-219" smooth="yes"/>
      <point x="97" y="-231" smooth="yes"/>
      <point x="132" y="-231" type="curve" smooth="yes"/>
      <point x="209" y="-231" smooth="yes"/>
      <point x="263" y="-188" smooth="yes"/>
      <point x="263" y="-82" type="curve" smooth="yes"/>
      <point x="263" y="263" type="line"/>
      <point x="403" y="263" type="line"/>
      <point x="403" y="300" type="line"/>
      <point x="263" y="300" type="line"/>
      <point x="263" y="465" type="line" smooth="yes"/>
      <point x="263" y="516" smooth="yes"/>
      <point x="280" y="563" smooth="yes"/>
      <point x="347" y="563" type="curve" smooth="yes"/>
      <point x="369" y="563"/>
      <point x="393" y="553"/>
      <point x="410" y="537" type="curve"/>
      <point x="409" y="513" smooth="yes"/>
      <point x="407" y="488" smooth="yes"/>
      <point x="406" y="464" type="curve" smooth="yes"/>
      <point x="406" y="452" smooth="yes"/>
      <point x="439" y="448" smooth="yes"/>
      <point x="446" y="448" type="curve" smooth="yes"/>
      <point x="447" y="448"/>
      <point x="473" y="560"/>
      <point x="475" y="574" type="curve"/>
      <point x="441" y="597" smooth="yes"/>
      <point x="389" y="613" smooth="yes"/>
      <point x="343" y="613" type="curve" smooth="yes"/>
      <point x="254" y="613" smooth="yes"/>
      <point x="192" y="570" smooth="yes"/>
      <point x="192" y="464" type="curve" smooth="yes"/>
      <point x="192" y="300" type="line"/>
      <point x="97" y="300" type="line"/>
    </contour>
  </outline>
</glyph>
<glyph name="dotlessj" format="1">
  <advance width="258"/>
  <unicode hex="0237"/>
  <outline>
    <contour>
      <point x="172" y="440" type="curve" smooth="yes" name="hr00"/>
      <point x="172" y="455"/>
      <point x="163" y="464"/>
      <point x="156" y="468" type="curve"/>
      <point x="140" y="468" smooth="yes"/>
      <point x="16" y="448" smooth="yes"/>
      <point x="16" y="447" type="curve" smooth="yes"/>
      <point x="16" y="440" smooth="yes"/>
      <point x="16" y="410" smooth="yes"/>
      <point x="30" y="410" type="curve" smooth="yes"/>
      <point x="100" y="410" type="line"/>
      <point x="100" y="69" type="line" smooth="yes"/>
      <point x="100" y="-40"/>
      <point x="78" y="-140"/>
      <point x="14" y="-243" type="curve"/>
      <point x="41" y="-262" type="line"/>
      <point x="134" y="-142" smooth="yes"/>
      <point x="171" y="-17" smooth="yes"/>
      <point x="171" y="72" type="curve" smooth="yes"/>
      <point x="171" y="195" smooth="yes"/>
      <point x="172" y="317" smooth="yes"/>
    </contour>
  </outline>
</glyph>
<glyph name="circumflex" format="1">
  <advance width="335"/>
  <unicode hex="02C6"/>
  <outline>
    <contour>
      <point x="168" y="611" type="line" name="hr00"/>
      <point x="264" y="509" type="line"/>
      <point x="290" y="526" type="line"/>
      <point x="246" y="589"/>
      <point x="213" y="642"/>
      <point x="190" y="685" type="curve"/>
      <point x="145" y="685" type="line"/>
      <point x="122" y="642"/>
      <point x="89" y="589"/>
      <point x="45" y="526" type="curve"/>
      <point x="71" y="509" type="line"/>
    </contour>
  </outline>
</glyph>
<glyph name="ring" format="1">
  <advance width="285"/>
  <unicode hex="02DA"/>
  <outline>
    <contour>
      <point x="235" y="606" type="curve" smooth="yes" name="hr00"/>
      <point x="235" y="663" smooth="yes"/>
      <point x="194" y="691" smooth="yes"/>
      <point x="144" y="691" type="curve" smooth="yes"/>
      <point x="93" y="691" smooth="yes"/>
      <point x="50" y="660" smooth="yes"/>
      <point x="50" y="604" type="curve" smooth="yes"/>
      <point x="50" y="544" smooth="yes"/>
      <point x="89" y="515" smooth="yes"/>
      <point x="140" y="515" type="curve" smooth="yes"/>
      <point x="196" y="515" smooth="yes"/>
      <point x="235" y="544" smooth="yes"/>
    </contour>
    <contour>
      <point x="96" y="604" type="curve" smooth="yes"/>
      <point x="96" y="626"/>
      <point x="103" y="647"/>
      <point x="116" y="653" type="curve"/>
      <point x="122" y="656" smooth="yes"/>
      <point x="133" y="658" smooth="yes"/>
      <point x="143" y="658" type="curve" smooth="yes"/>
      <point x="169" y="658" smooth="yes"/>
      <point x="189" y="639" smooth="yes"/>
      <point x="189" y="604" type="curve" smooth="yes"/>
      <point x="189" y="565" smooth="yes"/>
      <point x="169" y="548" smooth="yes"/>
      <point x="143" y="548" type="curve" smooth="yes"/>
      <point x="118" y="548" smooth="yes"/>
      <point x="96" y="565" smooth="yes"/>
    </contour>
  </outline>
</glyph>
<glyph name="ogonek" format="1">
  <advance width="469"/>
  <unicode hex="02DB"/>
  <outline>
    <contour>
      <point x="247" y="7" type="line" name="hr00"/>
      <point x="170" y="-29" smooth="yes"/>
      <point x="135" y="-90" smooth="yes"/>
      <point x="135" y="-141" type="curve" smooth="yes"/>
      <point x="135" y="-191" smooth="yes"/>
      <point x="171" y="-233" smooth="yes"/>
      <point x="238" y="-233" type="curve" smooth="yes"/>
      <point x="277" y="-233"/>
      <point x="306" y="-218"/>
      <point x="324" y="-202" type="curve"/>
      <point x="321" y="-188"/>
      <point x="316" y="-180"/>
      <point x="307" y="-172" type="curve"/>
      <point x="291" y="-183" smooth="yes"/>
      <point x="271" y="-189" smooth="yes"/>
      <point x="252" y="-189" type="curve" smooth="yes"/>
      <point x="222" y="-189" smooth="yes"/>
      <point x="195" y="-173" smooth="yes"/>
      <point x="195" y="-134" type="curve" smooth="yes"/>
      <point x="195" y="-85"/>
      <point x="233" y="-18"/>
      <point x="326" y="7" type="curve"/>
    </contour>
  </outline>
</glyph>
<glyph name="tilde" format="1">
  <advance width="416"/>
  <unicode hex="02DC"/>
  <outline>
    <contour>
      <point x="349" y="651" type="line"/>
      <point x="329" y="632" smooth="yes"/>
      <point x="309" y="621" smooth="yes"/>
      <point x="287" y="621" type="curve" smooth="yes"/>
      <point x="240" y="621" smooth="yes"/>
      <point x="199" y="648" smooth="yes"/>
      <point x="151" y="648" type="curve" smooth="yes" name="hr01"/>
      <point x="118" y="648"/>
      <point x="84" y="632"/>
      <point x="50" y="573" type="curve"/>
      <point x="67" y="554" type="line"/>
      <point x="87" y="573" smooth="yes"/>
      <point x="107" y="584" smooth="yes"/>
      <point x="129" y="584" type="curve" smooth="yes"/>
      <point x="176" y="584" smooth="yes"/>
      <point x="217" y="557" smooth="yes"/>
      <point x="265" y="557" type="curve" smooth="yes" name="hr02"/>
      <point x="298" y="557"/>
      <point x="332" y="573"/>
      <point x="366" y="632" type="curve"/>
    </contour>
  </outline>
</glyph>
<glyph name="hungarumlaut" format="1">
  <advance width="474"/>
  <unicode hex="02DD"/>
  <outline>
    <contour>
      <point x="61" y="518" type="line" name="hr00"/>
      <point x="97" y="528" smooth="yes"/>
      <point x="185" y="558" smooth="yes"/>
      <point x="252" y="601" type="curve" smooth="yes"/>
      <point x="256" y="603" smooth="yes"/>
      <point x="257" y="608" smooth="yes"/>
      <point x="257" y="613" type="curve" smooth="yes"/>
      <point x="257" y="633"/>
      <point x="237" y="674"/>
      <point x="232" y="680" type="curve"/>
      <point x="137" y="593"/>
      <point x="50" y="537"/>
      <point x="50" y="537" type="curve"/>
    </contour>
    <contour>
      <point x="228" y="518" type="line"/>
      <point x="264" y="528" smooth="yes"/>
      <point x="352" y="558" smooth="yes"/>
      <point x="419" y="601" type="curve" smooth="yes"/>
      <point x="423" y="603" smooth="yes"/>
      <point x="424" y="608" smooth="yes"/>
      <point x="424" y="613" type="curve" smooth="yes"/>
      <point x="424" y="633"/>
      <point x="404" y="674"/>
      <point x="399" y="680" type="curve"/>
      <point x="304" y="593"/>
      <point x="217" y="537"/>
      <point x="217" y="537" type="curve"/>
    </contour>
  </outline>
</glyph>
<glyph name="pi" format="1">
  <advance width="521"/>
  <unicode hex="03C0"/>
  <outline>
    <contour>
      <point x="341" y="195" type="curve" smooth="yes" name="hr00"/>
      <point x="341" y="106"/>
      <point x="358" y="74"/>
      <point x="425" y="-12" type="curve"/>
      <point x="452" y="7" type="line"/>
      <point x="432" y="53" type="line" smooth="yes"/>
      <point x="416" y="90" smooth="yes"/>
      <point x="412" y="110" smooth="yes"/>
      <point x="412" y="192" type="curve" smooth="yes"/>
      <point x="412" y="399" type="line"/>
      <point x="447" y="399" type="line" smooth="yes"/>
      <point x="459" y="399" smooth="yes"/>
      <point x="470" y="399" smooth="yes"/>
      <point x="482" y="399" type="curve" smooth="yes"/>
      <point x="496" y="399" smooth="yes"/>
      <point x="496" y="429" smooth="yes"/>
      <point x="496" y="436" type="curve" smooth="yes"/>
      <point x="496" y="437" smooth="yes"/>
      <point x="372" y="457" smooth="yes"/>
      <point x="356" y="457" type="curve" smooth="yes"/>
      <point x="160" y="457" type="line" smooth="yes"/>
      <point x="144" y="457" smooth="yes"/>
      <point x="20" y="437" smooth="yes"/>
      <point x="20" y="436" type="curve" smooth="yes"/>
      <point x="20" y="429" smooth="yes"/>
      <point x="20" y="399" smooth="yes"/>
      <point x="34" y="399" type="curve" smooth="yes"/>
      <point x="46" y="399" smooth="yes"/>
      <point x="57" y="399" smooth="yes"/>
      <point x="69" y="399" type="curve" smooth="yes"/>
      <point x="105" y="399" type="line"/>
      <point x="105" y="0" type="line"/>
      <point x="176" y="0" type="line"/>
      <point x="176" y="399" type="line"/>
      <point x="340" y="399" type="line"/>
      <point x="340" y="331" smooth="yes"/>
      <point x="341" y="263" smooth="yes"/>
    </contour>
  </outline>
</glyph>
<glyph name="emdash" format="1">
  <advance width="839"/>
  <unicode hex="2014"/>
  <outline>
    <contour>
      <point x="125" y="225" type="line" name="hr00"/>
      <point x="734" y="225" type="line"/>
      <point x="734" y="281" type="line"/>
      <point x="125" y="281" type="line"/>
    </contour>
  </outline>
</glyph>
<glyph name="quoteleft" format="1">
  <advance width="204"/>
  <unicode hex="2018"/>
  <outline>
    <contour>
      <point x="164" y="739" type="line" name="hr00"/>
      <point x="88" y="724" smooth="yes"/>
      <point x="31" y="659" smooth="yes"/>
      <point x="31" y="585" type="curve" smooth="yes"/>
      <point x="31" y="521" smooth="yes"/>
      <point x="50" y="476" smooth="yes"/>
      <point x="77" y="476" type="curve" smooth="yes"/>
      <point x="95" y="476"/>
      <point x="118" y="479"/>
      <point x="136" y="483" type="curve"/>
      <point x="141" y="507" smooth="yes"/>
      <point x="144" y="529" smooth="yes"/>
      <point x="144" y="548" type="curve" smooth="yes"/>
      <point x="144" y="588" smooth="yes"/>
      <point x="132" y="608" smooth="yes"/>
      <point x="107" y="608" type="curve" smooth="yes"/>
      <point x="101" y="608"/>
      <point x="98" y="608"/>
      <point x="91" y="607" type="curve"/>
      <point x="91" y="612" type="line" smooth="yes"/>
      <point x="91" y="658"/>
      <point x="123" y="695"/>
      <point x="173" y="710" type="curve"/>
    </contour>
  </outline>
</glyph>
<glyph name="quoteright" format="1">
  <advance width="204"/>
  <unicode hex="2019"/>
  <outline>
    <contour>
      <point x="40" y="467" type="line" name="hr00"/>
      <point x="116" y="482" smooth="yes"/>
      <point x="173" y="547" smooth="yes"/>
      <point x="173" y="621" type="curve" smooth="yes"/>
      <point x="173" y="685" smooth="yes"/>
      <point x="154" y="730" smooth="yes"/>
      <point x="127" y="730" type="curve" smooth="yes"/>
      <point x="109" y="730"/>
      <point x="86" y="727"/>
      <point x="68" y="723" type="curve"/>
      <point x="63" y="699" smooth="yes"/>
      <point x="60" y="677" smooth="yes"/>
      <point x="60" y="658" type="curve" smooth="yes"/>
      <point x="60" y="618" smooth="yes"/>
      <point x="72" y="598" smooth="yes"/>
      <point x="97" y="598" type="curve" smooth="yes"/>
      <point x="103" y="598"/>
      <point x="106" y="598"/>
      <point x="113" y="599" type="curve"/>
      <point x="113" y="594" type="line" smooth="yes"/>
      <point x="113" y="548"/>
      <point x="81" y="511"/>
      <point x="31" y="496" type="curve"/>
    </contour>
  </outline>
</glyph>
<glyph name="quotedblright" format="1">
  <advance width="380"/>
  <unicode hex="201D"/>
  <outline>
    <contour>
      <point x="216" y="467" type="line" name="hr00"/>
      <point x="292" y="482" smooth="yes"/>
      <point x="349" y="547" smooth="yes"/>
      <point x="349" y="621" type="curve" smooth="yes"/>
      <point x="349" y="685" smooth="yes"/>
      <point x="330" y="730" smooth="yes"/>
      <point x="303" y="730" type="curve" smooth="yes"/>
      <point x="285" y="730"/>
      <point x="262" y="727"/>
      <point x="244" y="723" type="curve"/>
      <point x="239" y="699" smooth="yes"/>
      <point x="236" y="677" smooth="yes"/>
      <point x="236" y="658" type="curve" smooth="yes"/>
      <point x="236" y="618" smooth="yes"/>
      <point x="248" y="598" smooth="yes"/>
      <point x="273" y="598" type="curve" smooth="yes"/>
      <point x="279" y="598"/>
      <point x="282" y="598"/>
      <point x="289" y="599" type="curve"/>
      <point x="289" y="594" type="line" smooth="yes"/>
      <point x="289" y="548"/>
      <point x="257" y="511"/>
      <point x="207" y="496" type="curve"/>
    </contour>
    <contour>
      <point x="40" y="467" type="line"/>
      <point x="116" y="482" smooth="yes"/>
      <point x="173" y="547" smooth="yes"/>
      <point x="173" y="621" type="curve" smooth="yes"/>
      <point x="173" y="685" smooth="yes"/>
      <point x="154" y="730" smooth="yes"/>
      <point x="127" y="730" type="curve" smooth="yes"/>
      <point x="109" y="730"/>
      <point x="86" y="727"/>
      <point x="68" y="723" type="curve"/>
      <point x="63" y="699" smooth="yes"/>
      <point x="60" y="677" smooth="yes"/>
      <point x="60" y="658" type="curve" smooth="yes"/>
      <point x="60" y="618" smooth="yes"/>
      <point x="72" y="598" smooth="yes"/>
      <point x="97" y="598" type="curve" smooth="yes"/>
      <point x="103" y="598"/>
      <point x="106" y="598"/>
      <point x="113" y="599" type="curve"/>
      <point x="113" y="594" type="line" smooth="yes"/>
      <point x="113" y="548"/>
      <point x="81" y="511"/>
      <point x="31" y="496" type="curve"/>
    </contour>
  </outline>
</glyph>
<glyph name="dagger" format="1">
  <advance width="366"/>
  <unicode hex="2020"/>
  <outline>
    <contour>
      <point x="15" y="437" type="line" name="hr00"/>
      <point x="147" y="437" type="line"/>
      <point x="139" y="298" type="line"/>
      <point x="159" y="-45" type="line"/>
      <point x="208" y="-45" type="line"/>
      <point x="228" y="298" type="line"/>
      <point x="220" y="437" type="line"/>
      <point x="351" y="437" type="line"/>
      <point x="351" y="486" type="line"/>
      <point x="216" y="502" type="line"/>
      <point x="208" y="641" type="line"/>
      <point x="159" y="641" type="line"/>
      <point x="151" y="502" type="line"/>
      <point x="15" y="486" type="line"/>
    </contour>
  </outline>
</glyph>
<glyph name="daggerdbl" format="1">
  <advance width="366"/>
  <unicode hex="2021"/>
  <outline>
    <contour>
      <point x="15" y="437" type="line" name="hr00"/>
      <point x="147" y="437" type="line"/>
      <point x="139" y="298" type="line"/>
      <point x="147" y="159" type="line"/>
      <point x="15" y="159" type="line"/>
      <point x="15" y="110" type="line"/>
      <point x="151" y="94" type="line"/>
      <point x="159" y="-45" type="line"/>
      <point x="208" y="-45" type="line"/>
      <point x="216" y="94" type="line"/>
      <point x="351" y="110" type="line"/>
      <point x="351" y="159" type="line"/>
      <point x="220" y="159" type="line"/>
      <point x="228" y="298" type="line"/>
      <point x="220" y="437" type="line"/>
      <point x="351" y="437" type="line"/>
      <point x="351" y="486" type="line"/>
      <point x="216" y="502" type="line"/>
      <point x="208" y="641" type="line"/>
      <point x="159" y="641" type="line"/>
      <point x="151" y="502" type="line"/>
      <point x="15" y="486" type="line"/>
    </contour>
  </outline>
</glyph>
<glyph name="bullet" format="1">
  <advance width="251"/>
  <unicode hex="2022"/>
  <outline>
    <contour>
      <point x="147" y="347" type="curve" smooth="yes" name="hr00"/>
      <point x="116" y="347"/>
      <point x="62" y="339"/>
      <point x="62" y="339" type="curve"/>
      <point x="62" y="339" smooth="yes"/>
      <point x="50" y="298" smooth="yes"/>
      <point x="50" y="260" type="curve" smooth="yes"/>
      <point x="50" y="222" smooth="yes"/>
      <point x="60" y="186" smooth="yes"/>
      <point x="105" y="186" type="curve" smooth="yes"/>
      <point x="138" y="186"/>
      <point x="191" y="197"/>
      <point x="191" y="197" type="curve"/>
      <point x="191" y="197" smooth="yes"/>
      <point x="201" y="237" smooth="yes"/>
      <point x="201" y="271" type="curve" smooth="yes"/>
      <point x="201" y="312" smooth="yes"/>
      <point x="188" y="347" smooth="yes"/>
    </contour>
  </outline>
</glyph>
<glyph name="perthousand" format="1">
  <advance width="1073"/>
  <unicode hex="2030"/>
  <outline>
    <contour>
      <point x="314" y="396" type="curve" smooth="yes" name="hr00"/>
      <point x="314" y="508" smooth="yes"/>
      <point x="250" y="563" smooth="yes"/>
      <point x="174" y="563" type="curve" smooth="yes"/>
      <point x="95" y="563" smooth="yes"/>
      <point x="30" y="503" smooth="yes"/>
      <point x="30" y="391" type="curve" smooth="yes"/>
      <point x="30" y="274" smooth="yes"/>
      <point x="89" y="218" smooth="yes"/>
      <point x="167" y="218" type="curve" smooth="yes"/>
      <point x="252" y="218" smooth="yes"/>
      <point x="314" y="276" smooth="yes"/>
    </contour>
    <contour>
      <point x="238" y="390" type="curve" smooth="yes"/>
      <point x="238" y="302" smooth="yes"/>
      <point x="219" y="260" smooth="yes"/>
      <point x="172" y="260" type="curve" smooth="yes"/>
      <point x="125" y="260" smooth="yes"/>
      <point x="106" y="302" smooth="yes"/>
      <point x="106" y="390" type="curve" smooth="yes"/>
      <point x="106" y="478" smooth="yes"/>
      <point x="125" y="520" smooth="yes"/>
      <point x="172" y="520" type="curve" smooth="yes"/>
      <point x="219" y="520" smooth="yes"/>
      <point x="238" y="478" smooth="yes"/>
    </contour>
    <contour>
      <point x="721" y="166" type="curve" smooth="yes"/>
      <point x="721" y="278" smooth="yes"/>
      <point x="657" y="333" smooth="yes"/>
      <point x="581" y="333" type="curve" smooth="yes"/>
      <point x="502" y="333" smooth="yes"/>
      <point x="437" y="273" smooth="yes"/>
      <point x="437" y="161" type="curve" smooth="yes"/>
      <point x="437" y="44" smooth="yes"/>
      <point x="496" y="-12" smooth="yes"/>
      <point x="574" y="-12" type="curve" smooth="yes"/>
      <point x="659" y="-12" smooth="yes"/>
      <point x="721" y="46" smooth="yes"/>
    </contour>
    <contour>
      <point x="645" y="160" type="curve" smooth="yes"/>
      <point x="645" y="72" smooth="yes"/>
      <point x="626" y="30" smooth="yes"/>
      <point x="579" y="30" type="curve" smooth="yes"/>
      <point x="532" y="30" smooth="yes"/>
      <point x="513" y="72" smooth="yes"/>
      <point x="513" y="160" type="curve" smooth="yes"/>
      <point x="513" y="248" smooth="yes"/>
      <point x="532" y="290" smooth="yes"/>
      <point x="579" y="290" type="curve" smooth="yes"/>
      <point x="626" y="290" smooth="yes"/>
      <point x="645" y="248" smooth="yes"/>
    </contour>
    <contour>
      <point x="1043" y="166" type="curve" smooth="yes"/>
      <point x="1043" y="278" smooth="yes"/>
      <point x="979" y="333" smooth="yes"/>
      <point x="903" y="333" type="curve" smooth="yes"/>
      <point x="824" y="333" smooth="yes"/>
      <point x="759" y="273" smooth="yes"/>
      <point x="759" y="161" type="curve" smooth="yes"/>
      <point x="759" y="44" smooth="yes"/>
      <point x="818" y="-12" smooth="yes"/>
      <point x="896" y="-12" type="curve" smooth="yes"/>
      <point x="981" y="-12" smooth="yes"/>
      <point x="1043" y="46" smooth="yes"/>
    </contour>
    <contour>
      <point x="967" y="160" type="curve" smooth="yes"/>
      <point x="967" y="72" smooth="yes"/>
      <point x="948" y="30" smooth="yes"/>
      <point x="901" y="30" type="curve" smooth="yes"/>
      <point x="854" y="30" smooth="yes"/>
      <point x="835" y="72" smooth="yes"/>
      <point x="835" y="160" type="curve" smooth="yes"/>
      <point x="835" y="248" smooth="yes"/>
      <point x="854" y="290" smooth="yes"/>
      <point x="901" y="290" type="curve" smooth="yes"/>
      <point x="948" y="290" smooth="yes"/>
      <point x="967" y="248" smooth="yes"/>
    </contour>
    <component  base="fraction" xOffset="223"/>
  </outline>
</glyph>
<glyph name="guilsinglright" format="1">
  <advance width="297"/>
  <unicode hex="203A"/>
  <outline>
    <contour>
      <point x="267" y="241" type="line" name="hr00"/>
      <point x="79" y="444" type="line"/>
      <point x="50" y="420" type="line"/>
      <point x="180" y="227" type="line"/>
      <point x="50" y="34" type="line"/>
      <point x="79" y="10" type="line"/>
      <point x="267" y="213" type="line"/>
    </contour>
  </outline>
</glyph>
<glyph name="fraction" format="1">
  <advance width="305"/>
  <unicode hex="2044"/>
  <outline>
    <contour>
      <point x="28" y="-50" type="line" name="hr00"/>
      <point x="84" y="-50" type="line"/>
      <point x="276" y="601" type="line"/>
      <point x="220" y="601" type="line"/>
    </contour>
  </outline>
</glyph>
<glyph name="Euro" format="1">
  <advance width="510"/>
  <unicode hex="20AC"/>
  <outline>
    <contour>
      <point x="325" y="251" type="line" name="hr00"/>
      <point x="176" y="251" type="line"/>
      <point x="176" y="298" type="line"/>
      <point x="325" y="298" type="line"/>
      <point x="325" y="335" type="line"/>
      <point x="178" y="335" type="line"/>
      <point x="189" y="455" smooth="yes"/>
      <point x="234" y="513" smooth="yes"/>
      <point x="309" y="513" type="curve" smooth="yes"/>
      <point x="339" y="513"/>
      <point x="377" y="503"/>
      <point x="400" y="487" type="curve"/>
      <point x="396" y="414" type="line"/>
      <point x="396" y="402" smooth="yes"/>
      <point x="429" y="398" smooth="yes"/>
      <point x="436" y="398" type="curve" smooth="yes"/>
      <point x="437" y="398"/>
      <point x="463" y="510"/>
      <point x="465" y="524" type="curve"/>
      <point x="425" y="547" smooth="yes"/>
      <point x="367" y="563" smooth="yes"/>
      <point x="313" y="563" type="curve" smooth="yes"/>
      <point x="205" y="563"/>
      <point x="115" y="483"/>
      <point x="96" y="335" type="curve"/>
      <point x="39" y="335" type="line"/>
      <point x="39" y="298" type="line"/>
      <point x="93" y="298" type="line"/>
      <point x="93" y="290" smooth="yes"/>
      <point x="93" y="282" smooth="yes"/>
      <point x="93" y="274" type="curve" smooth="yes"/>
      <point x="93" y="266"/>
      <point x="93" y="259"/>
      <point x="93" y="251" type="curve"/>
      <point x="39" y="251" type="line"/>
      <point x="39" y="214" type="line"/>
      <point x="96" y="214" type="line"/>
      <point x="114" y="61" smooth="yes"/>
      <point x="196" y="-12" smooth="yes"/>
      <point x="301" y="-12" type="curve" smooth="yes"/>
      <point x="359" y="-12"/>
      <point x="420" y="4"/>
      <point x="463" y="27" type="curve"/>
      <point x="461" y="41" smooth="yes"/>
      <point x="435" y="153" smooth="yes"/>
      <point x="434" y="153" type="curve" smooth="yes"/>
      <point x="427" y="153"/>
      <point x="394" y="149"/>
      <point x="394" y="137" type="curve"/>
      <point x="398" y="64" type="line"/>
      <point x="372" y="48" smooth="yes"/>
      <point x="342" y="37" smooth="yes"/>
      <point x="309" y="37" type="curve" smooth="yes"/>
      <point x="234" y="37"/>
      <point x="189" y="94"/>
      <point x="178" y="214" type="curve"/>
      <point x="325" y="214" type="line"/>
    </contour>
  </outline>
</glyph>
